STARTFONT 2.1
FONT -FontForge-Arial-Book-R-Normal--16-150-75-75-P-82-ISO10646-1
SIZE 15 75 75
FONTBOUNDINGBOX 42 22 -10 -5
COMMENT "Generated by fontforge, http://fontforge.sourceforge.net"
COMMENT "(c) 2017 The Monotype Corporation. All Rights Reserved. "
COMMENT ""
COMMENT "Hebrew OpenType Layout logic copyright (c) 2003 & 2007, Ralph Hancock & John Hudson. This layout logic for Biblical Hebrew is open source software under the MIT License; see embedded license description for details."
STARTPROPERTIES 40
FOUNDRY "FontForge"
FAMILY_NAME "Arial"
WEIGHT_NAME "Book"
SLANT "R"
SETWIDTH_NAME "Normal"
ADD_STYLE_NAME ""
PIXEL_SIZE 16
POINT_SIZE 150
RESOLUTION_X 75
RESOLUTION_Y 75
SPACING "P"
AVERAGE_WIDTH 82
CHARSET_REGISTRY "ISO10646"
CHARSET_ENCODING "1"
FONTNAME_REGISTRY ""
CHARSET_COLLECTIONS "ASCII ISOLatin1Encoding ISO8859-2 ISO8859-5 ISO8859-7 ISO8859-9 ISO8859-8 ISO8859-6 ISO8859-4 ISO10646-1"
FONT_NAME "ArialMT"
FACE_NAME "Arial"
COPYRIGHT "(c) 2017 The Monotype Corporation. All Rights Reserved. "
FONT_VERSION "7.03"
FONT_ASCENT 13
FONT_DESCENT 3
UNDERLINE_POSITION -2
UNDERLINE_THICKNESS 2
X_HEIGHT 8
CAP_HEIGHT 11
RAW_ASCENT 799
RAW_DESCENT 200
NORM_SPACE 4
RELATIVE_WEIGHT 40
RELATIVE_SETWIDTH 50
SUPERSCRIPT_X 0
SUPERSCRIPT_Y 7
SUPERSCRIPT_SIZE 10
SUBSCRIPT_X 0
SUBSCRIPT_Y 2
SUBSCRIPT_SIZE 10
FIGURE_WIDTH 9
AVG_LOWERCASE_WIDTH 83
AVG_UPPERCASE_WIDTH 114
ENDPROPERTIES
CHARS 4649
STARTCHAR space
ENCODING 32
SWIDTH 277 0
DWIDTH 4 0
BBX 1 1 0 0
BITMAP
00
ENDCHAR
STARTCHAR exclam
ENCODING 33
SWIDTH 277 0
DWIDTH 4 0
BBX 2 12 1 0
BITMAP
C0
C0
C0
C0
C0
C0
40
40
40
00
C0
C0
ENDCHAR
STARTCHAR quotedbl
ENCODING 34
SWIDTH 354 0
DWIDTH 6 0
BBX 5 4 1 8
BITMAP
D8
D8
D0
50
ENDCHAR
STARTCHAR numbersign
ENCODING 35
SWIDTH 556 0
DWIDTH 9 0
BBX 8 12 1 0
BITMAP
22
22
22
FF
24
44
44
FF
48
48
8C
88
ENDCHAR
STARTCHAR dollar
ENCODING 36
SWIDTH 556 0
DWIDTH 9 0
BBX 8 14 1 -1
BITMAP
08
3E
7B
69
C8
48
3C
0E
0B
4B
6B
4A
3E
08
ENDCHAR
STARTCHAR percent
ENCODING 37
SWIDTH 889 0
DWIDTH 14 0
BBX 13 12 1 0
BITMAP
20C0
4880
4880
4900
D900
7200
0220
0490
0588
0988
0890
10F0
ENDCHAR
STARTCHAR ampersand
ENCODING 38
SWIDTH 666 0
DWIDTH 11 0
BBX 10 12 1 0
BITMAP
0800
1200
3300
2600
3C00
1800
7CC0
6780
C300
6300
7FC0
7C40
ENDCHAR
STARTCHAR quotesingle
ENCODING 39
SWIDTH 190 0
DWIDTH 3 0
BBX 2 4 1 8
BITMAP
C0
C0
C0
40
ENDCHAR
STARTCHAR parenleft
ENCODING 40
SWIDTH 333 0
DWIDTH 5 0
BBX 5 15 1 -3
BITMAP
10
20
60
40
40
C0
40
40
40
C0
60
40
60
20
18
ENDCHAR
STARTCHAR parenright
ENCODING 41
SWIDTH 333 0
DWIDTH 5 0
BBX 4 15 2 -3
BITMAP
80
80
C0
40
20
60
30
30
60
60
20
40
40
80
80
ENDCHAR
STARTCHAR asterisk
ENCODING 42
SWIDTH 389 0
DWIDTH 6 0
BBX 6 5 0 7
BITMAP
10
94
7C
30
48
ENDCHAR
STARTCHAR plus
ENCODING 43
SWIDTH 583 0
DWIDTH 9 0
BBX 8 8 1 2
BITMAP
08
08
08
FF
FF
08
08
08
ENDCHAR
STARTCHAR comma
ENCODING 44
SWIDTH 277 0
DWIDTH 4 0
BBX 2 4 1 -2
BITMAP
C0
C0
40
40
ENDCHAR
STARTCHAR hyphen
ENCODING 45
SWIDTH 333 0
DWIDTH 5 0
BBX 4 1 2 4
BITMAP
F0
ENDCHAR
STARTCHAR period
ENCODING 46
SWIDTH 277 0
DWIDTH 4 0
BBX 2 2 1 0
BITMAP
C0
C0
ENDCHAR
STARTCHAR slash
ENCODING 47
SWIDTH 277 0
DWIDTH 4 0
BBX 4 12 1 0
BITMAP
10
20
20
20
20
40
60
40
80
80
80
80
ENDCHAR
STARTCHAR zero
ENCODING 48
SWIDTH 556 0
DWIDTH 9 0
BBX 8 12 1 0
BITMAP
0C
3E
62
62
41
41
41
C1
C2
43
22
7C
ENDCHAR
STARTCHAR one
ENCODING 49
SWIDTH 556 0
DWIDTH 9 0
BBX 4 12 3 0
BITMAP
10
30
30
F0
20
20
20
20
20
20
20
20
ENDCHAR
STARTCHAR two
ENCODING 50
SWIDTH 556 0
DWIDTH 9 0
BBX 8 12 0 0
BITMAP
08
7E
63
23
03
03
06
18
38
60
FF
FF
ENDCHAR
STARTCHAR three
ENCODING 51
SWIDTH 556 0
DWIDTH 9 0
BBX 7 12 2 0
BITMAP
18
7C
CC
06
0C
18
1C
06
82
C6
4C
7C
ENDCHAR
STARTCHAR four
ENCODING 52
SWIDTH 556 0
DWIDTH 9 0
BBX 8 12 0 0
BITMAP
02
06
0A
12
12
32
42
FF
FF
02
02
02
ENDCHAR
STARTCHAR five
ENCODING 53
SWIDTH 556 0
DWIDTH 9 0
BBX 8 12 1 0
BITMAP
3F
3F
20
40
48
6E
03
03
43
C3
23
3C
ENDCHAR
STARTCHAR six
ENCODING 54
SWIDTH 556 0
DWIDTH 9 0
BBX 8 12 1 0
BITMAP
08
3E
63
60
58
7E
63
C3
C3
42
63
1C
ENDCHAR
STARTCHAR seven
ENCODING 55
SWIDTH 556 0
DWIDTH 9 0
BBX 7 12 2 0
BITMAP
FE
FE
04
18
18
10
30
30
60
20
40
40
ENDCHAR
STARTCHAR eight
ENCODING 56
SWIDTH 556 0
DWIDTH 9 0
BBX 8 12 1 0
BITMAP
08
3E
63
62
66
1C
7E
63
41
C3
63
3E
ENDCHAR
STARTCHAR nine
ENCODING 57
SWIDTH 556 0
DWIDTH 9 0
BBX 8 12 1 0
BITMAP
08
7C
63
41
43
63
7D
79
01
C3
26
7C
ENDCHAR
STARTCHAR colon
ENCODING 58
SWIDTH 277 0
DWIDTH 4 0
BBX 2 9 1 0
BITMAP
C0
C0
00
00
00
00
00
C0
C0
ENDCHAR
STARTCHAR semicolon
ENCODING 59
SWIDTH 277 0
DWIDTH 4 0
BBX 2 11 1 -2
BITMAP
C0
C0
00
00
00
00
00
C0
C0
40
40
ENDCHAR
STARTCHAR less
ENCODING 60
SWIDTH 583 0
DWIDTH 9 0
BBX 7 8 2 2
BITMAP
06
0E
70
C0
E0
38
0E
02
ENDCHAR
STARTCHAR equal
ENCODING 61
SWIDTH 583 0
DWIDTH 9 0
BBX 8 4 1 4
BITMAP
FF
00
00
FF
ENDCHAR
STARTCHAR greater
ENCODING 62
SWIDTH 583 0
DWIDTH 9 0
BBX 9 8 1 2
BITMAP
4000
7000
1C00
0700
0F80
1C00
E000
8000
ENDCHAR
STARTCHAR question
ENCODING 63
SWIDTH 556 0
DWIDTH 9 0
BBX 7 12 2 0
BITMAP
10
7C
C6
02
04
08
18
10
10
00
30
30
ENDCHAR
STARTCHAR at
ENCODING 64
SWIDTH 1015 0
DWIDTH 16 0
BBX 15 15 2 -3
BITMAP
0100
1FE0
3038
414C
8DEC
99C4
9044
B084
9088
B198
DFF0
8E86
6018
3018
0FC0
ENDCHAR
STARTCHAR A
ENCODING 65
SWIDTH 666 0
DWIDTH 11 0
BBX 11 12 0 0
BITMAP
0600
0E00
0E00
1900
1180
1980
1180
3F80
60C0
60C0
6060
C060
ENDCHAR
STARTCHAR B
ENCODING 66
SWIDTH 666 0
DWIDTH 11 0
BBX 9 12 1 0
BITMAP
7E00
CF00
C300
C100
C300
7E00
C300
C180
C180
C180
7F80
7800
ENDCHAR
STARTCHAR C
ENCODING 67
SWIDTH 722 0
DWIDTH 12 0
BBX 11 12 1 0
BITMAP
0400
1F80
61C0
4040
C000
C000
C000
C000
6060
60C0
3F80
1F80
ENDCHAR
STARTCHAR D
ENCODING 68
SWIDTH 722 0
DWIDTH 12 0
BBX 10 12 1 0
BITMAP
FC00
CF00
C380
C0C0
C0C0
C0C0
C0C0
C0C0
C0C0
C180
7F80
7800
ENDCHAR
STARTCHAR E
ENCODING 69
SWIDTH 666 0
DWIDTH 11 0
BBX 9 12 1 0
BITMAP
7F80
C000
C000
C000
C000
FF00
C000
C000
C000
C000
7F80
7F80
ENDCHAR
STARTCHAR F
ENCODING 70
SWIDTH 610 0
DWIDTH 10 0
BBX 8 12 1 0
BITMAP
FF
C0
C0
C0
C0
FE
C0
C0
C0
C0
C0
C0
ENDCHAR
STARTCHAR G
ENCODING 71
SWIDTH 777 0
DWIDTH 12 0
BBX 11 12 1 0
BITMAP
0300
1FC0
6060
4040
C000
C000
C3E0
C060
6060
6060
3FE0
0F80
ENDCHAR
STARTCHAR H
ENCODING 72
SWIDTH 722 0
DWIDTH 12 0
BBX 10 12 1 0
BITMAP
C0C0
C0C0
C0C0
C0C0
C0C0
FF80
C0C0
C0C0
C0C0
C0C0
C0C0
C0C0
ENDCHAR
STARTCHAR I
ENCODING 73
SWIDTH 277 0
DWIDTH 4 0
BBX 2 12 1 0
BITMAP
C0
C0
C0
C0
C0
C0
C0
C0
C0
C0
C0
C0
ENDCHAR
STARTCHAR J
ENCODING 74
SWIDTH 500 0
DWIDTH 8 0
BBX 7 12 0 0
BITMAP
06
06
06
06
06
06
06
06
46
C6
7C
78
ENDCHAR
STARTCHAR K
ENCODING 75
SWIDTH 666 0
DWIDTH 11 0
BBX 10 12 1 0
BITMAP
C180
C300
C600
CC00
D800
F800
EC00
C600
C300
C300
C180
C0C0
ENDCHAR
STARTCHAR L
ENCODING 76
SWIDTH 556 0
DWIDTH 9 0
BBX 8 12 1 0
BITMAP
C0
C0
C0
C0
C0
C0
C0
C0
C0
C0
7F
7F
ENDCHAR
STARTCHAR M
ENCODING 77
SWIDTH 833 0
DWIDTH 13 0
BBX 12 12 1 0
BITMAP
6060
E070
6070
50B0
59B0
50B0
4930
4D30
4930
4630
4630
4430
ENDCHAR
STARTCHAR N
ENCODING 78
SWIDTH 722 0
DWIDTH 12 0
BBX 10 12 1 0
BITMAP
C080
6080
7080
7080
5880
4C80
4C80
4680
4380
41C0
4180
40C0
ENDCHAR
STARTCHAR O
ENCODING 79
SWIDTH 777 0
DWIDTH 12 0
BBX 12 12 1 0
BITMAP
1C00
3F80
20E0
6020
C060
C030
C030
C060
6060
6060
3F80
1F80
ENDCHAR
STARTCHAR P
ENCODING 80
SWIDTH 666 0
DWIDTH 11 0
BBX 9 12 1 0
BITMAP
7E00
C700
C180
C180
C180
C180
FF00
C000
C000
C000
C000
C000
ENDCHAR
STARTCHAR Q
ENCODING 81
SWIDTH 777 0
DWIDTH 12 0
BBX 12 12 1 0
BITMAP
0400
1F80
60E0
4020
C060
C030
C030
C060
6260
63E0
1FC0
1FE0
ENDCHAR
STARTCHAR R
ENCODING 82
SWIDTH 722 0
DWIDTH 12 0
BBX 11 12 1 0
BITMAP
7F00
C780
C180
C0C0
C0C0
7F80
CE00
C600
C380
C180
C0C0
C060
ENDCHAR
STARTCHAR S
ENCODING 83
SWIDTH 666 0
DWIDTH 11 0
BBX 9 12 2 0
BITMAP
3E00
7F00
E300
C000
4000
7000
0E00
0300
8100
C180
FF00
3E00
ENDCHAR
STARTCHAR T
ENCODING 84
SWIDTH 610 0
DWIDTH 10 0
BBX 9 12 1 0
BITMAP
FF80
1800
1800
1800
1800
1800
1800
1800
1800
1800
1800
1800
ENDCHAR
STARTCHAR U
ENCODING 85
SWIDTH 722 0
DWIDTH 12 0
BBX 10 12 1 0
BITMAP
C0C0
C0C0
C0C0
C0C0
C0C0
C0C0
C0C0
C0C0
C0C0
6180
7F80
1F00
ENDCHAR
STARTCHAR V
ENCODING 86
SWIDTH 666 0
DWIDTH 11 0
BBX 11 12 0 0
BITMAP
C060
6060
6040
3080
3180
3080
1900
0B00
1A00
0B00
0600
0600
ENDCHAR
STARTCHAR W
ENCODING 87
SWIDTH 943 0
DWIDTH 15 0
BBX 15 12 0 0
BITMAP
C186
6182
4284
2346
6644
3268
2448
1638
1468
1830
1830
1830
ENDCHAR
STARTCHAR X
ENCODING 88
SWIDTH 666 0
DWIDTH 11 0
BBX 11 12 0 0
BITMAP
6060
30C0
1980
0B00
0E00
0600
0E00
0F00
1980
30C0
60C0
C060
ENDCHAR
STARTCHAR Y
ENCODING 89
SWIDTH 666 0
DWIDTH 11 0
BBX 10 12 1 0
BITMAP
C0C0
C180
6300
3300
1600
1C00
0C00
0C00
0C00
0C00
0C00
0C00
ENDCHAR
STARTCHAR Z
ENCODING 90
SWIDTH 610 0
DWIDTH 10 0
BBX 9 12 0 0
BITMAP
7F80
0180
0180
0300
0600
0C00
1800
1800
3000
6000
FF80
FF80
ENDCHAR
STARTCHAR bracketleft
ENCODING 91
SWIDTH 277 0
DWIDTH 4 0
BBX 3 15 2 -3
BITMAP
E0
80
80
80
80
80
80
80
80
80
80
80
80
80
E0
ENDCHAR
STARTCHAR backslash
ENCODING 92
SWIDTH 277 0
DWIDTH 4 0
BBX 4 12 1 0
BITMAP
80
C0
80
40
40
40
40
20
60
20
10
10
ENDCHAR
STARTCHAR bracketright
ENCODING 93
SWIDTH 277 0
DWIDTH 4 0
BBX 3 15 1 -3
BITMAP
E0
40
40
40
40
40
40
40
40
40
40
40
40
40
E0
ENDCHAR
STARTCHAR asciicircum
ENCODING 94
SWIDTH 469 0
DWIDTH 8 0
BBX 7 6 0 6
BITMAP
18
38
28
24
44
C2
ENDCHAR
STARTCHAR underscore
ENCODING 95
SWIDTH 556 0
DWIDTH 9 0
BBX 9 1 1 -3
BITMAP
FF80
ENDCHAR
STARTCHAR grave
ENCODING 96
SWIDTH 333 0
DWIDTH 5 0
BBX 2 2 2 10
BITMAP
C0
C0
ENDCHAR
STARTCHAR a
ENCODING 97
SWIDTH 556 0
DWIDTH 9 0
BBX 7 9 2 0
BITMAP
78
FC
C6
04
FC
C4
86
CE
F6
ENDCHAR
STARTCHAR b
ENCODING 98
SWIDTH 556 0
DWIDTH 9 0
BBX 7 12 1 0
BITMAP
40
40
40
48
7E
C6
42
42
42
C6
72
5E
ENDCHAR
STARTCHAR c
ENCODING 99
SWIDTH 500 0
DWIDTH 8 0
BBX 8 9 1 0
BITMAP
08
3C
63
40
40
C2
63
22
3E
ENDCHAR
STARTCHAR d
ENCODING 100
SWIDTH 556 0
DWIDTH 9 0
BBX 8 12 1 0
BITMAP
02
02
02
0E
3F
63
42
41
C1
63
67
39
ENDCHAR
STARTCHAR e
ENCODING 101
SWIDTH 556 0
DWIDTH 9 0
BBX 8 9 1 0
BITMAP
08
7E
63
C3
FF
40
63
23
3E
ENDCHAR
STARTCHAR f
ENCODING 102
SWIDTH 277 0
DWIDTH 4 0
BBX 4 12 1 0
BITMAP
70
60
C0
F0
C0
C0
C0
C0
C0
C0
C0
C0
ENDCHAR
STARTCHAR g
ENCODING 103
SWIDTH 556 0
DWIDTH 9 0
BBX 8 12 1 -3
BITMAP
09
3F
63
41
41
C1
63
7D
09
C2
66
7C
ENDCHAR
STARTCHAR h
ENCODING 104
SWIDTH 556 0
DWIDTH 9 0
BBX 8 12 1 0
BITMAP
40
40
40
4C
7E
C6
43
43
43
43
43
43
ENDCHAR
STARTCHAR i
ENCODING 105
SWIDTH 222 0
DWIDTH 4 0
BBX 1 12 2 0
BITMAP
80
80
00
80
80
80
80
80
80
80
80
80
ENDCHAR
STARTCHAR j
ENCODING 106
SWIDTH 222 0
DWIDTH 4 0
BBX 5 15 -1 -3
BITMAP
20
20
00
20
20
20
20
20
20
20
20
20
20
20
E0
ENDCHAR
STARTCHAR k
ENCODING 107
SWIDTH 500 0
DWIDTH 8 0
BBX 6 12 2 0
BITMAP
80
80
80
8C
98
B0
E0
F0
B0
98
8C
8C
ENDCHAR
STARTCHAR l
ENCODING 108
SWIDTH 222 0
DWIDTH 4 0
BBX 1 12 2 0
BITMAP
80
80
80
80
80
80
80
80
80
80
80
80
ENDCHAR
STARTCHAR m
ENCODING 109
SWIDTH 833 0
DWIDTH 13 0
BBX 12 9 1 0
BITMAP
5CC0
7FE0
C630
4220
4220
4220
4220
4220
4220
ENDCHAR
STARTCHAR n
ENCODING 110
SWIDTH 556 0
DWIDTH 9 0
BBX 7 9 2 0
BITMAP
88
FC
CC
86
86
86
86
86
86
ENDCHAR
STARTCHAR o
ENCODING 111
SWIDTH 556 0
DWIDTH 9 0
BBX 9 9 1 0
BITMAP
0800
7E00
6300
4300
4180
C300
6300
2300
7C00
ENDCHAR
STARTCHAR p
ENCODING 112
SWIDTH 556 0
DWIDTH 9 0
BBX 7 12 1 -3
BITMAP
70
FC
C6
42
42
42
C6
C6
5C
40
40
40
ENDCHAR
STARTCHAR q
ENCODING 113
SWIDTH 556 0
DWIDTH 9 0
BBX 8 12 1 -3
BITMAP
11
3F
63
42
41
C2
63
23
7A
02
02
02
ENDCHAR
STARTCHAR r
ENCODING 114
SWIDTH 333 0
DWIDTH 5 0
BBX 5 9 1 0
BITMAP
50
78
60
C0
40
40
40
40
40
ENDCHAR
STARTCHAR s
ENCODING 115
SWIDTH 500 0
DWIDTH 8 0
BBX 8 9 0 0
BITMAP
1C
7E
C4
60
3E
06
43
42
3C
ENDCHAR
STARTCHAR t
ENCODING 116
SWIDTH 277 0
DWIDTH 4 0
BBX 4 12 0 0
BITMAP
20
20
20
F0
20
20
20
20
20
20
70
30
ENDCHAR
STARTCHAR u
ENCODING 117
SWIDTH 556 0
DWIDTH 9 0
BBX 7 9 2 0
BITMAP
8C
8C
8C
8C
8C
8C
8C
FE
76
ENDCHAR
STARTCHAR v
ENCODING 118
SWIDTH 500 0
DWIDTH 8 0
BBX 8 9 0 0
BITMAP
C1
62
23
62
24
1C
1C
18
08
ENDCHAR
STARTCHAR w
ENCODING 119
SWIDTH 722 0
DWIDTH 12 0
BBX 12 9 0 0
BITMAP
C610
6620
4E60
2520
6B40
29E0
1940
18C0
10C0
ENDCHAR
STARTCHAR x
ENCODING 120
SWIDTH 500 0
DWIDTH 8 0
BBX 8 9 0 0
BITMAP
63
66
16
1C
18
3C
36
63
C3
ENDCHAR
STARTCHAR y
ENCODING 121
SWIDTH 500 0
DWIDTH 8 0
BBX 8 12 0 -3
BITMAP
C1
62
23
62
24
1C
1C
18
08
08
70
70
ENDCHAR
STARTCHAR z
ENCODING 122
SWIDTH 500 0
DWIDTH 8 0
BBX 7 9 1 0
BITMAP
FE
0C
0C
18
30
60
C0
FE
FE
ENDCHAR
STARTCHAR braceleft
ENCODING 123
SWIDTH 333 0
DWIDTH 5 0
BBX 4 15 1 -3
BITMAP
30
20
40
40
40
60
40
80
C0
60
40
40
40
60
30
ENDCHAR
STARTCHAR bar
ENCODING 124
SWIDTH 259 0
DWIDTH 4 0
BBX 1 15 2 -3
BITMAP
80
80
80
80
80
80
80
80
80
80
80
80
80
80
80
ENDCHAR
STARTCHAR braceright
ENCODING 125
SWIDTH 333 0
DWIDTH 5 0
BBX 5 15 0 -3
BITMAP
C0
20
20
20
20
20
30
08
30
20
20
20
20
30
60
ENDCHAR
STARTCHAR asciitilde
ENCODING 126
SWIDTH 583 0
DWIDTH 9 0
BBX 7 2 2 5
BITMAP
72
FE
ENDCHAR
STARTCHAR space.dup1
ENCODING 160
SWIDTH 277 0
DWIDTH 4 0
BBX 1 1 0 0
BITMAP
00
ENDCHAR
STARTCHAR exclamdown
ENCODING 161
SWIDTH 333 0
DWIDTH 5 0
BBX 2 12 2 -3
BITMAP
C0
C0
00
40
40
40
C0
C0
C0
C0
C0
C0
ENDCHAR
STARTCHAR cent
ENCODING 162
SWIDTH 556 0
DWIDTH 9 0
BBX 8 15 1 -3
BITMAP
02
04
04
0C
36
EE
C8
48
D2
73
72
3C
20
20
20
ENDCHAR
STARTCHAR sterling
ENCODING 163
SWIDTH 556 0
DWIDTH 9 0
BBX 9 12 0 0
BITMAP
0800
3E00
6300
2000
6000
7C00
2000
1000
2000
2000
FF00
6780
ENDCHAR
STARTCHAR currency
ENCODING 164
SWIDTH 556 0
DWIDTH 9 0
BBX 7 8 2 2
BITMAP
82
FE
4C
84
84
4C
FE
82
ENDCHAR
STARTCHAR yen
ENCODING 165
SWIDTH 556 0
DWIDTH 9 0
BBX 9 12 0 0
BITMAP
C180
6180
3300
3300
1200
1C00
7F80
0800
7F80
0800
0800
0800
ENDCHAR
STARTCHAR brokenbar
ENCODING 166
SWIDTH 259 0
DWIDTH 4 0
BBX 1 15 2 -3
BITMAP
80
80
80
80
80
80
00
00
00
80
80
80
80
80
80
ENDCHAR
STARTCHAR section
ENCODING 167
SWIDTH 556 0
DWIDTH 9 0
BBX 8 15 1 -3
BITMAP
08
24
43
20
38
7C
46
C2
71
7A
1C
06
62
66
3E
ENDCHAR
STARTCHAR dieresis
ENCODING 168
SWIDTH 333 0
DWIDTH 5 0
BBX 4 2 1 10
BITMAP
90
90
ENDCHAR
STARTCHAR copyright
ENCODING 169
SWIDTH 736 0
DWIDTH 12 0
BBX 12 12 0 0
BITMAP
0200
1F80
32E0
4710
4910
9010
9010
4890
4F30
6060
1040
1F80
ENDCHAR
STARTCHAR ordfeminine
ENCODING 170
SWIDTH 370 0
DWIDTH 6 0
BBX 6 6 0 6
BITMAP
38
C8
38
68
4C
74
ENDCHAR
STARTCHAR guillemotleft
ENCODING 171
SWIDTH 556 0
DWIDTH 9 0
BBX 7 7 1 1
BITMAP
12
36
48
D8
44
36
12
ENDCHAR
STARTCHAR logicalnot
ENCODING 172
SWIDTH 583 0
DWIDTH 9 0
BBX 8 4 1 4
BITMAP
FF
03
03
03
ENDCHAR
STARTCHAR hyphen.dup2
ENCODING 173
SWIDTH 333 0
DWIDTH 5 0
BBX 4 1 2 4
BITMAP
F0
ENDCHAR
STARTCHAR registered
ENCODING 174
SWIDTH 736 0
DWIDTH 12 0
BBX 12 12 0 0
BITMAP
0200
1F80
30E0
4F10
4890
8F90
8A10
4A10
48B0
6060
1040
1F80
ENDCHAR
STARTCHAR macron
ENCODING 175
SWIDTH 552 0
DWIDTH 9 0
BBX 9 1 1 13
BITMAP
FF80
ENDCHAR
STARTCHAR degree
ENCODING 176
SWIDTH 399 0
DWIDTH 6 0
BBX 5 4 1 8
BITMAP
20
50
88
70
ENDCHAR
STARTCHAR plusminus
ENCODING 177
SWIDTH 548 0
DWIDTH 9 0
BBX 8 10 1 0
BITMAP
08
08
08
FF
08
08
08
00
FF
FF
ENDCHAR
STARTCHAR uni00B2
ENCODING 178
SWIDTH 333 0
DWIDTH 5 0
BBX 6 6 0 6
BITMAP
38
CC
0C
38
60
7C
ENDCHAR
STARTCHAR uni00B3
ENCODING 179
SWIDTH 333 0
DWIDTH 5 0
BBX 4 6 1 6
BITMAP
E0
D0
30
10
90
E0
ENDCHAR
STARTCHAR acute
ENCODING 180
SWIDTH 333 0
DWIDTH 5 0
BBX 2 2 3 10
BITMAP
C0
C0
ENDCHAR
STARTCHAR mu
ENCODING 181
SWIDTH 576 0
DWIDTH 9 0
BBX 8 12 1 -3
BITMAP
46
46
46
46
46
46
C6
FE
7B
40
40
40
ENDCHAR
STARTCHAR paragraph
ENCODING 182
SWIDTH 537 0
DWIDTH 9 0
BBX 8 15 1 -3
BITMAP
1F
72
F2
F2
F2
F2
F2
12
12
12
12
12
12
12
12
ENDCHAR
STARTCHAR periodcentered
ENCODING 183
SWIDTH 333 0
DWIDTH 5 0
BBX 2 2 2 5
BITMAP
C0
C0
ENDCHAR
STARTCHAR cedilla
ENCODING 184
SWIDTH 333 0
DWIDTH 5 0
BBX 4 4 1 -3
BITMAP
20
40
10
E0
ENDCHAR
STARTCHAR uni00B9
ENCODING 185
SWIDTH 333 0
DWIDTH 5 0
BBX 3 6 1 6
BITMAP
20
E0
20
20
20
20
ENDCHAR
STARTCHAR ordmasculine
ENCODING 186
SWIDTH 365 0
DWIDTH 6 0
BBX 6 6 0 6
BITMAP
10
48
44
44
C8
78
ENDCHAR
STARTCHAR guillemotright
ENCODING 187
SWIDTH 556 0
DWIDTH 9 0
BBX 7 7 1 1
BITMAP
CC
24
24
36
36
44
48
ENDCHAR
STARTCHAR onequarter
ENCODING 188
SWIDTH 833 0
DWIDTH 13 0
BBX 13 12 1 0
BITMAP
2020
E040
2080
2080
2180
2200
0210
0C30
08D0
10D0
10F8
3010
ENDCHAR
STARTCHAR onehalf
ENCODING 189
SWIDTH 833 0
DWIDTH 13 0
BBX 12 12 1 0
BITMAP
2020
E0C0
2080
2080
2100
2200
04F0
04D0
1810
1070
1060
20F0
ENDCHAR
STARTCHAR threequarters
ENCODING 190
SWIDTH 833 0
DWIDTH 13 0
BBX 12 12 1 0
BITMAP
E040
D040
30C0
1100
9100
E600
0420
0860
08A0
18A0
21F0
2020
ENDCHAR
STARTCHAR questiondown
ENCODING 191
SWIDTH 610 0
DWIDTH 10 0
BBX 8 12 1 -3
BITMAP
18
18
00
08
08
18
30
E0
C2
43
46
3E
ENDCHAR
STARTCHAR Agrave
ENCODING 192
SWIDTH 666 0
DWIDTH 11 0
BBX 11 15 0 0
BITMAP
0C00
0400
0000
0600
0E00
0E00
1900
1180
1980
1180
3F80
60C0
60C0
6060
C060
ENDCHAR
STARTCHAR Aacute
ENCODING 193
SWIDTH 666 0
DWIDTH 11 0
BBX 11 15 0 0
BITMAP
0300
0400
0000
0600
0E00
0E00
1900
1180
1980
1180
3F80
60C0
60C0
6060
C060
ENDCHAR
STARTCHAR Acircumflex
ENCODING 194
SWIDTH 666 0
DWIDTH 11 0
BBX 11 15 0 0
BITMAP
0600
0F00
0000
0600
0E00
0E00
1900
1180
1980
1180
3F80
60C0
60C0
6060
C060
ENDCHAR
STARTCHAR Atilde
ENCODING 195
SWIDTH 666 0
DWIDTH 11 0
BBX 11 14 0 0
BITMAP
0F80
0000
0600
0E00
0E00
1900
1180
1980
1180
3F80
60C0
60C0
6060
C060
ENDCHAR
STARTCHAR Adieresis
ENCODING 196
SWIDTH 666 0
DWIDTH 11 0
BBX 11 14 0 0
BITMAP
0900
0000
0600
0E00
0E00
1900
1180
1980
1180
3F80
60C0
60C0
6060
C060
ENDCHAR
STARTCHAR Aring
ENCODING 197
SWIDTH 666 0
DWIDTH 11 0
BBX 11 14 0 0
BITMAP
0A00
0A00
0600
0E00
0E00
1900
1180
1980
1180
3F80
60C0
60C0
6060
C060
ENDCHAR
STARTCHAR AE
ENCODING 198
SWIDTH 1000 0
DWIDTH 16 0
BBX 16 12 0 0
BITMAP
03FF
06C0
06C0
0CC0
0CC0
18FE
18C0
1FC0
30C0
60C0
60FE
C0FE
ENDCHAR
STARTCHAR Ccedilla
ENCODING 199
SWIDTH 722 0
DWIDTH 12 0
BBX 11 15 1 -3
BITMAP
0400
1F80
61C0
4040
C000
C000
C000
C000
6060
60C0
3F80
1F80
0400
0600
0E00
ENDCHAR
STARTCHAR Egrave
ENCODING 200
SWIDTH 666 0
DWIDTH 11 0
BBX 9 15 1 0
BITMAP
1800
0C00
0000
7F80
C000
C000
C000
C000
FF00
C000
C000
C000
C000
7F80
7F80
ENDCHAR
STARTCHAR Eacute
ENCODING 201
SWIDTH 666 0
DWIDTH 11 0
BBX 9 15 1 0
BITMAP
0C00
0800
0000
7F80
C000
C000
C000
C000
FF00
C000
C000
C000
C000
7F80
7F80
ENDCHAR
STARTCHAR Ecircumflex
ENCODING 202
SWIDTH 666 0
DWIDTH 11 0
BBX 9 15 1 0
BITMAP
0C00
1E00
0000
7F80
C000
C000
C000
C000
FF00
C000
C000
C000
C000
7F80
7F80
ENDCHAR
STARTCHAR Edieresis
ENCODING 203
SWIDTH 666 0
DWIDTH 11 0
BBX 9 14 1 0
BITMAP
3200
0000
7F80
C000
C000
C000
C000
FF00
C000
C000
C000
C000
7F80
7F80
ENDCHAR
STARTCHAR Igrave
ENCODING 204
SWIDTH 277 0
DWIDTH 4 0
BBX 2 15 1 0
BITMAP
C0
40
00
C0
C0
C0
C0
C0
C0
C0
C0
C0
C0
C0
C0
ENDCHAR
STARTCHAR Iacute
ENCODING 205
SWIDTH 277 0
DWIDTH 4 0
BBX 2 15 2 0
BITMAP
C0
C0
00
C0
C0
C0
C0
C0
C0
C0
C0
C0
C0
C0
C0
ENDCHAR
STARTCHAR Icircumflex
ENCODING 206
SWIDTH 277 0
DWIDTH 4 0
BBX 3 15 1 0
BITMAP
60
E0
00
60
60
60
60
60
60
60
60
60
60
60
60
ENDCHAR
STARTCHAR Idieresis
ENCODING 207
SWIDTH 277 0
DWIDTH 4 0
BBX 4 14 1 0
BITMAP
90
00
60
60
60
60
60
60
60
60
60
60
60
60
ENDCHAR
STARTCHAR Eth
ENCODING 208
SWIDTH 722 0
DWIDTH 12 0
BBX 11 12 0 0
BITMAP
3F00
33C0
3060
3040
3060
FC60
3060
3060
3020
3060
3FC0
3C00
ENDCHAR
STARTCHAR Ntilde
ENCODING 209
SWIDTH 722 0
DWIDTH 12 0
BBX 10 14 1 0
BITMAP
1F00
0000
C080
6080
7080
7080
5880
4C80
4C80
4680
4380
41C0
4180
40C0
ENDCHAR
STARTCHAR Ograve
ENCODING 210
SWIDTH 777 0
DWIDTH 12 0
BBX 12 15 1 0
BITMAP
0C00
0600
0000
1C00
3F80
20E0
6020
C060
C030
C030
C060
6060
6060
3F80
1F80
ENDCHAR
STARTCHAR Oacute
ENCODING 211
SWIDTH 777 0
DWIDTH 12 0
BBX 12 15 1 0
BITMAP
0300
0200
0000
1C00
3F80
20E0
6020
C060
C030
C030
C060
6060
6060
3F80
1F80
ENDCHAR
STARTCHAR Ocircumflex
ENCODING 212
SWIDTH 777 0
DWIDTH 12 0
BBX 12 15 1 0
BITMAP
0600
0E00
0000
1C00
3F80
20E0
6020
C060
C030
C030
C060
6060
6060
3F80
1F80
ENDCHAR
STARTCHAR Otilde
ENCODING 213
SWIDTH 777 0
DWIDTH 12 0
BBX 12 14 1 0
BITMAP
0F80
0000
1C00
3F80
20E0
6020
C060
C030
C030
C060
6060
6060
3F80
1F80
ENDCHAR
STARTCHAR Odieresis
ENCODING 214
SWIDTH 777 0
DWIDTH 12 0
BBX 12 14 1 0
BITMAP
1B00
0000
1C00
3F80
20E0
6020
C060
C030
C030
C060
6060
6060
3F80
1F80
ENDCHAR
STARTCHAR multiply
ENCODING 215
SWIDTH 583 0
DWIDTH 9 0
BBX 7 7 1 3
BITMAP
40
66
3C
38
38
66
C6
ENDCHAR
STARTCHAR Oslash
ENCODING 216
SWIDTH 777 0
DWIDTH 12 0
BBX 12 12 1 0
BITMAP
0320
3DC0
60C0
40E0
C160
C630
CC30
6C30
7060
3060
5FC0
4F80
ENDCHAR
STARTCHAR Ugrave
ENCODING 217
SWIDTH 722 0
DWIDTH 12 0
BBX 10 15 1 0
BITMAP
1800
0C00
0000
C0C0
C0C0
C0C0
C0C0
C0C0
C0C0
C0C0
C0C0
C0C0
6180
7F80
1F00
ENDCHAR
STARTCHAR Uacute
ENCODING 218
SWIDTH 722 0
DWIDTH 12 0
BBX 10 15 1 0
BITMAP
0600
0400
0000
C0C0
C0C0
C0C0
C0C0
C0C0
C0C0
C0C0
C0C0
C0C0
6180
7F80
1F00
ENDCHAR
STARTCHAR Ucircumflex
ENCODING 219
SWIDTH 722 0
DWIDTH 12 0
BBX 10 15 1 0
BITMAP
0C00
1C00
0000
C0C0
C0C0
C0C0
C0C0
C0C0
C0C0
C0C0
C0C0
C0C0
6180
7F80
1F00
ENDCHAR
STARTCHAR Udieresis
ENCODING 220
SWIDTH 722 0
DWIDTH 12 0
BBX 10 14 1 0
BITMAP
1E00
0000
C0C0
C0C0
C0C0
C0C0
C0C0
C0C0
C0C0
C0C0
C0C0
6180
7F80
1F00
ENDCHAR
STARTCHAR Yacute
ENCODING 221
SWIDTH 666 0
DWIDTH 11 0
BBX 10 15 1 0
BITMAP
0600
0800
0000
C0C0
C180
6300
3300
1600
1C00
0C00
0C00
0C00
0C00
0C00
0C00
ENDCHAR
STARTCHAR Thorn
ENCODING 222
SWIDTH 666 0
DWIDTH 11 0
BBX 9 12 1 0
BITMAP
C000
C000
7800
7F00
C380
C180
C180
C180
FF00
C000
C000
C000
ENDCHAR
STARTCHAR germandbls
ENCODING 223
SWIDTH 610 0
DWIDTH 10 0
BBX 7 12 2 0
BITMAP
60
E8
C4
88
98
90
88
84
86
A2
B6
9E
ENDCHAR
STARTCHAR agrave
ENCODING 224
SWIDTH 556 0
DWIDTH 9 0
BBX 7 12 2 0
BITMAP
30
30
00
78
FC
C6
04
FC
C4
86
CE
F6
ENDCHAR
STARTCHAR aacute
ENCODING 225
SWIDTH 556 0
DWIDTH 9 0
BBX 7 12 2 0
BITMAP
18
18
00
78
FC
C6
04
FC
C4
86
CE
F6
ENDCHAR
STARTCHAR acircumflex
ENCODING 226
SWIDTH 556 0
DWIDTH 9 0
BBX 7 12 2 0
BITMAP
30
78
00
78
FC
C6
04
FC
C4
86
CE
F6
ENDCHAR
STARTCHAR atilde
ENCODING 227
SWIDTH 556 0
DWIDTH 9 0
BBX 7 12 2 0
BITMAP
24
78
00
78
FC
C6
04
FC
C4
86
CE
F6
ENDCHAR
STARTCHAR adieresis
ENCODING 228
SWIDTH 556 0
DWIDTH 9 0
BBX 7 12 2 0
BITMAP
48
48
00
78
FC
C6
04
FC
C4
86
CE
F6
ENDCHAR
STARTCHAR aring
ENCODING 229
SWIDTH 556 0
DWIDTH 9 0
BBX 7 12 2 0
BITMAP
30
28
30
78
FC
C6
04
FC
C4
86
CE
F6
ENDCHAR
STARTCHAR ae
ENCODING 230
SWIDTH 889 0
DWIDTH 14 0
BBX 13 9 2 0
BITMAP
7980
DFE0
CE30
0410
7FF8
C400
8618
CE20
F1E0
ENDCHAR
STARTCHAR ccedilla
ENCODING 231
SWIDTH 500 0
DWIDTH 8 0
BBX 8 12 1 -3
BITMAP
08
3C
63
40
40
C2
63
22
3E
18
0C
38
ENDCHAR
STARTCHAR egrave
ENCODING 232
SWIDTH 556 0
DWIDTH 9 0
BBX 8 12 1 0
BITMAP
18
08
00
08
7E
63
C3
FF
40
63
23
3E
ENDCHAR
STARTCHAR eacute
ENCODING 233
SWIDTH 556 0
DWIDTH 9 0
BBX 8 12 1 0
BITMAP
0C
0C
00
08
7E
63
C3
FF
40
63
23
3E
ENDCHAR
STARTCHAR ecircumflex
ENCODING 234
SWIDTH 556 0
DWIDTH 9 0
BBX 8 12 1 0
BITMAP
18
3C
00
08
7E
63
C3
FF
40
63
23
3E
ENDCHAR
STARTCHAR edieresis
ENCODING 235
SWIDTH 556 0
DWIDTH 9 0
BBX 8 12 1 0
BITMAP
24
24
00
08
7E
63
C3
FF
40
63
23
3E
ENDCHAR
STARTCHAR igrave
ENCODING 236
SWIDTH 277 0
DWIDTH 4 0
BBX 2 12 1 0
BITMAP
C0
C0
00
C0
C0
C0
C0
C0
C0
C0
C0
C0
ENDCHAR
STARTCHAR iacute
ENCODING 237
SWIDTH 277 0
DWIDTH 4 0
BBX 2 12 2 0
BITMAP
C0
C0
00
80
80
80
80
80
80
80
80
80
ENDCHAR
STARTCHAR icircumflex
ENCODING 238
SWIDTH 277 0
DWIDTH 4 0
BBX 4 12 1 0
BITMAP
E0
D0
00
40
40
40
40
40
40
40
40
40
ENDCHAR
STARTCHAR idieresis
ENCODING 239
SWIDTH 277 0
DWIDTH 4 0
BBX 4 12 1 0
BITMAP
90
90
00
60
60
60
60
60
60
60
60
60
ENDCHAR
STARTCHAR eth
ENCODING 240
SWIDTH 556 0
DWIDTH 9 0
BBX 8 12 1 0
BITMAP
32
0C
24
0E
3F
63
C3
43
43
63
43
1E
ENDCHAR
STARTCHAR ntilde
ENCODING 241
SWIDTH 556 0
DWIDTH 9 0
BBX 7 12 2 0
BITMAP
24
78
00
88
FC
CC
86
86
86
86
86
86
ENDCHAR
STARTCHAR ograve
ENCODING 242
SWIDTH 556 0
DWIDTH 9 0
BBX 9 12 1 0
BITMAP
1800
0800
0000
0800
7E00
6300
4300
4180
C300
6300
2300
7C00
ENDCHAR
STARTCHAR oacute
ENCODING 243
SWIDTH 556 0
DWIDTH 9 0
BBX 9 12 1 0
BITMAP
0C00
0C00
0000
0800
7E00
6300
4300
4180
C300
6300
2300
7C00
ENDCHAR
STARTCHAR ocircumflex
ENCODING 244
SWIDTH 556 0
DWIDTH 9 0
BBX 9 12 1 0
BITMAP
1800
3C00
0000
0800
7E00
6300
4300
4180
C300
6300
2300
7C00
ENDCHAR
STARTCHAR otilde
ENCODING 245
SWIDTH 556 0
DWIDTH 9 0
BBX 9 12 1 0
BITMAP
1200
3C00
0000
0800
7E00
6300
4300
4180
C300
6300
2300
7C00
ENDCHAR
STARTCHAR odieresis
ENCODING 246
SWIDTH 556 0
DWIDTH 9 0
BBX 9 12 1 0
BITMAP
2400
2400
0000
0800
7E00
6300
4300
4180
C300
6300
2300
7C00
ENDCHAR
STARTCHAR divide
ENCODING 247
SWIDTH 548 0
DWIDTH 9 0
BBX 8 6 1 3
BITMAP
18
00
FF
FF
18
18
ENDCHAR
STARTCHAR oslash
ENCODING 248
SWIDTH 610 0
DWIDTH 10 0
BBX 9 9 1 0
BITMAP
0900
7E00
6700
C500
4980
DB00
7300
6200
7E00
ENDCHAR
STARTCHAR ugrave
ENCODING 249
SWIDTH 556 0
DWIDTH 9 0
BBX 7 12 2 0
BITMAP
60
10
00
8C
8C
8C
8C
8C
8C
8C
FE
76
ENDCHAR
STARTCHAR uacute
ENCODING 250
SWIDTH 556 0
DWIDTH 9 0
BBX 7 12 2 0
BITMAP
18
10
00
8C
8C
8C
8C
8C
8C
8C
FE
76
ENDCHAR
STARTCHAR ucircumflex
ENCODING 251
SWIDTH 556 0
DWIDTH 9 0
BBX 7 12 2 0
BITMAP
30
70
00
8C
8C
8C
8C
8C
8C
8C
FE
76
ENDCHAR
STARTCHAR udieresis
ENCODING 252
SWIDTH 556 0
DWIDTH 9 0
BBX 7 12 2 0
BITMAP
D8
D8
00
8C
8C
8C
8C
8C
8C
8C
FE
76
ENDCHAR
STARTCHAR yacute
ENCODING 253
SWIDTH 500 0
DWIDTH 8 0
BBX 8 15 0 -3
BITMAP
0C
0C
00
C1
62
23
62
24
1C
1C
18
08
08
70
70
ENDCHAR
STARTCHAR thorn
ENCODING 254
SWIDTH 556 0
DWIDTH 9 0
BBX 7 15 1 -3
BITMAP
40
40
40
58
FC
C6
42
42
42
C6
C6
5C
40
40
40
ENDCHAR
STARTCHAR ydieresis
ENCODING 255
SWIDTH 500 0
DWIDTH 8 0
BBX 8 15 0 -3
BITMAP
24
24
00
C1
62
23
62
24
1C
1C
18
08
08
70
70
ENDCHAR
STARTCHAR Amacron
ENCODING 256
SWIDTH 666 0
DWIDTH 11 0
BBX 11 14 0 0
BITMAP
1F00
0000
0600
0E00
0E00
1900
1180
1980
1180
3F80
60C0
60C0
6060
C060
ENDCHAR
STARTCHAR amacron
ENCODING 257
SWIDTH 556 0
DWIDTH 9 0
BBX 7 11 2 0
BITMAP
7C
00
78
FC
C6
04
FC
C4
86
CE
F6
ENDCHAR
STARTCHAR Abreve
ENCODING 258
SWIDTH 666 0
DWIDTH 11 0
BBX 11 15 0 0
BITMAP
1100
0F00
0000
0600
0E00
0E00
1900
1180
1980
1180
3F80
60C0
60C0
6060
C060
ENDCHAR
STARTCHAR abreve
ENCODING 259
SWIDTH 556 0
DWIDTH 9 0
BBX 7 12 2 0
BITMAP
44
78
00
78
FC
C6
04
FC
C4
86
CE
F6
ENDCHAR
STARTCHAR Aogonek
ENCODING 260
SWIDTH 666 0
DWIDTH 11 0
BBX 12 15 0 -3
BITMAP
0600
0E00
0E00
1900
1180
1980
1180
3F80
60C0
60C0
6060
C060
0040
0040
0070
ENDCHAR
STARTCHAR aogonek
ENCODING 261
SWIDTH 556 0
DWIDTH 9 0
BBX 7 12 2 -3
BITMAP
78
FC
C6
04
FC
C4
86
CE
F6
06
04
06
ENDCHAR
STARTCHAR Cacute
ENCODING 262
SWIDTH 722 0
DWIDTH 12 0
BBX 11 15 1 0
BITMAP
0300
0200
0000
0400
1F80
61C0
4040
C000
C000
C000
C000
6060
60C0
3F80
1F80
ENDCHAR
STARTCHAR cacute
ENCODING 263
SWIDTH 500 0
DWIDTH 8 0
BBX 8 12 1 0
BITMAP
0C
08
00
08
3C
63
40
40
C2
63
22
3E
ENDCHAR
STARTCHAR Ccircumflex
ENCODING 264
SWIDTH 722 0
DWIDTH 12 0
BBX 11 15 1 0
BITMAP
0600
0B00
0000
0400
1F80
61C0
4040
C000
C000
C000
C000
6060
60C0
3F80
1F80
ENDCHAR
STARTCHAR ccircumflex
ENCODING 265
SWIDTH 500 0
DWIDTH 8 0
BBX 8 12 1 0
BITMAP
18
36
00
08
3C
63
40
40
C2
63
22
3E
ENDCHAR
STARTCHAR Cdotaccent
ENCODING 266
SWIDTH 722 0
DWIDTH 12 0
BBX 11 15 1 0
BITMAP
0600
0600
0000
0400
1F80
61C0
4040
C000
C000
C000
C000
6060
60C0
3F80
1F80
ENDCHAR
STARTCHAR cdotaccent
ENCODING 267
SWIDTH 500 0
DWIDTH 8 0
BBX 8 12 1 0
BITMAP
18
18
00
08
3C
63
40
40
C2
63
22
3E
ENDCHAR
STARTCHAR Ccaron
ENCODING 268
SWIDTH 722 0
DWIDTH 12 0
BBX 11 15 1 0
BITMAP
1B00
0700
0000
0400
1F80
61C0
4040
C000
C000
C000
C000
6060
60C0
3F80
1F80
ENDCHAR
STARTCHAR ccaron
ENCODING 269
SWIDTH 500 0
DWIDTH 8 0
BBX 8 12 1 0
BITMAP
36
1C
00
08
3C
63
40
40
C2
63
22
3E
ENDCHAR
STARTCHAR Dcaron
ENCODING 270
SWIDTH 722 0
DWIDTH 12 0
BBX 10 15 1 0
BITMAP
3600
3800
0000
FC00
CF00
C380
C0C0
C0C0
C0C0
C0C0
C0C0
C0C0
C180
7F80
7800
ENDCHAR
STARTCHAR dcaron
ENCODING 271
SWIDTH 614 0
DWIDTH 10 0
BBX 10 12 1 0
BITMAP
0240
0240
0240
0E40
3F00
6300
4200
4100
C100
6300
6700
3900
ENDCHAR
STARTCHAR Dcroat
ENCODING 272
SWIDTH 722 0
DWIDTH 12 0
BBX 11 12 0 0
BITMAP
3F00
33C0
3060
3040
3060
FC60
3060
3060
3020
3060
3FC0
3C00
ENDCHAR
STARTCHAR dcroat
ENCODING 273
SWIDTH 556 0
DWIDTH 9 0
BBX 9 12 1 0
BITMAP
0200
0F80
0200
0E00
3F00
6300
4200
4100
C100
6300
6700
3900
ENDCHAR
STARTCHAR Emacron
ENCODING 274
SWIDTH 666 0
DWIDTH 11 0
BBX 9 14 1 0
BITMAP
3E00
0000
7F80
C000
C000
C000
C000
FF00
C000
C000
C000
C000
7F80
7F80
ENDCHAR
STARTCHAR emacron
ENCODING 275
SWIDTH 556 0
DWIDTH 9 0
BBX 8 11 1 0
BITMAP
3E
00
08
7E
63
C3
FF
40
63
23
3E
ENDCHAR
STARTCHAR Ebreve
ENCODING 276
SWIDTH 666 0
DWIDTH 11 0
BBX 9 15 1 0
BITMAP
2200
1E00
0000
7F80
C000
C000
C000
C000
FF00
C000
C000
C000
C000
7F80
7F80
ENDCHAR
STARTCHAR ebreve
ENCODING 277
SWIDTH 556 0
DWIDTH 9 0
BBX 8 12 1 0
BITMAP
22
3C
00
08
7E
63
C3
FF
40
63
23
3E
ENDCHAR
STARTCHAR Edotaccent
ENCODING 278
SWIDTH 666 0
DWIDTH 11 0
BBX 9 14 1 0
BITMAP
0C00
0000
7F80
C000
C000
C000
C000
FF00
C000
C000
C000
C000
7F80
7F80
ENDCHAR
STARTCHAR edotaccent
ENCODING 279
SWIDTH 556 0
DWIDTH 9 0
BBX 8 12 1 0
BITMAP
0C
0C
00
08
7E
63
C3
FF
40
63
23
3E
ENDCHAR
STARTCHAR Eogonek
ENCODING 280
SWIDTH 666 0
DWIDTH 11 0
BBX 9 15 1 -3
BITMAP
7F80
C000
C000
C000
C000
FF00
C000
C000
C000
C000
7F80
7F80
0100
0200
0180
ENDCHAR
STARTCHAR eogonek
ENCODING 281
SWIDTH 556 0
DWIDTH 9 0
BBX 8 12 1 -3
BITMAP
08
7E
63
C3
FF
40
63
23
3E
08
08
0E
ENDCHAR
STARTCHAR Ecaron
ENCODING 282
SWIDTH 666 0
DWIDTH 11 0
BBX 9 15 1 0
BITMAP
3600
1C00
0000
7F80
C000
C000
C000
C000
FF00
C000
C000
C000
C000
7F80
7F80
ENDCHAR
STARTCHAR ecaron
ENCODING 283
SWIDTH 556 0
DWIDTH 9 0
BBX 8 12 1 0
BITMAP
36
1C
00
08
7E
63
C3
FF
40
63
23
3E
ENDCHAR
STARTCHAR Gcircumflex
ENCODING 284
SWIDTH 777 0
DWIDTH 12 0
BBX 11 15 1 0
BITMAP
0600
0F00
0D80
0300
1FC0
6060
4040
C000
C000
C3E0
C060
6060
6060
3FE0
0F80
ENDCHAR
STARTCHAR gcircumflex
ENCODING 285
SWIDTH 556 0
DWIDTH 9 0
BBX 8 15 1 -3
BITMAP
18
3C
00
09
3F
63
41
41
C1
63
7D
09
C2
66
7C
ENDCHAR
STARTCHAR Gbreve
ENCODING 286
SWIDTH 777 0
DWIDTH 12 0
BBX 11 15 1 0
BITMAP
0880
0F00
0000
0300
1FC0
6060
4040
C000
C000
C3E0
C060
6060
6060
3FE0
0F80
ENDCHAR
STARTCHAR gbreve
ENCODING 287
SWIDTH 556 0
DWIDTH 9 0
BBX 8 15 1 -3
BITMAP
22
3C
00
09
3F
63
41
41
C1
63
7D
09
C2
66
7C
ENDCHAR
STARTCHAR Gdotaccent
ENCODING 288
SWIDTH 777 0
DWIDTH 12 0
BBX 11 14 1 0
BITMAP
0600
0600
0300
1FC0
6060
4040
C000
C000
C3E0
C060
6060
6060
3FE0
0F80
ENDCHAR
STARTCHAR gdotaccent
ENCODING 289
SWIDTH 556 0
DWIDTH 9 0
BBX 8 15 1 -3
BITMAP
18
18
00
09
3F
63
41
41
C1
63
7D
09
C2
66
7C
ENDCHAR
STARTCHAR uni0122
ENCODING 290
SWIDTH 777 0
DWIDTH 12 0
BBX 11 16 1 -4
BITMAP
0300
1FC0
6060
4040
C000
C000
C3E0
C060
6060
6060
3FE0
0F80
0000
0600
0200
0200
ENDCHAR
STARTCHAR uni0123
ENCODING 291
SWIDTH 556 0
DWIDTH 9 0
BBX 8 16 1 -3
BITMAP
08
08
18
00
09
3F
63
41
41
C1
63
7D
09
C2
66
7C
ENDCHAR
STARTCHAR Hcircumflex
ENCODING 292
SWIDTH 722 0
DWIDTH 12 0
BBX 10 15 1 0
BITMAP
0C00
1A00
0000
C0C0
C0C0
C0C0
C0C0
C0C0
FF80
C0C0
C0C0
C0C0
C0C0
C0C0
C0C0
ENDCHAR
STARTCHAR hcircumflex
ENCODING 293
SWIDTH 556 0
DWIDTH 9 0
BBX 8 15 1 0
BITMAP
18
3C
00
40
40
40
4C
7E
C6
43
43
43
43
43
43
ENDCHAR
STARTCHAR Hbar
ENCODING 294
SWIDTH 722 0
DWIDTH 12 0
BBX 11 12 0 0
BITMAP
6060
6060
FFE0
6060
6060
7FC0
6060
6060
6060
6060
6060
6060
ENDCHAR
STARTCHAR hbar
ENCODING 295
SWIDTH 556 0
DWIDTH 9 0
BBX 8 12 1 0
BITMAP
40
F8
40
48
FC
66
43
43
43
43
43
43
ENDCHAR
STARTCHAR Itilde
ENCODING 296
SWIDTH 277 0
DWIDTH 4 0
BBX 5 15 1 0
BITMAP
48
F0
00
60
60
60
60
60
60
60
60
60
60
60
60
ENDCHAR
STARTCHAR itilde
ENCODING 297
SWIDTH 277 0
DWIDTH 4 0
BBX 5 12 1 0
BITMAP
48
F0
00
20
20
20
20
20
20
20
20
20
ENDCHAR
STARTCHAR Imacron
ENCODING 298
SWIDTH 277 0
DWIDTH 4 0
BBX 5 14 0 0
BITMAP
F8
00
30
30
30
30
30
30
30
30
30
30
30
30
ENDCHAR
STARTCHAR imacron
ENCODING 299
SWIDTH 277 0
DWIDTH 4 0
BBX 5 11 0 0
BITMAP
F8
00
20
20
20
20
20
20
20
20
20
ENDCHAR
STARTCHAR Ibreve
ENCODING 300
SWIDTH 277 0
DWIDTH 4 0
BBX 4 14 1 0
BITMAP
B0
E0
60
60
60
60
60
60
60
60
60
60
60
60
ENDCHAR
STARTCHAR ibreve
ENCODING 301
SWIDTH 277 0
DWIDTH 4 0
BBX 5 12 0 0
BITMAP
88
70
00
20
20
20
20
20
20
20
20
20
ENDCHAR
STARTCHAR Iogonek
ENCODING 302
SWIDTH 277 0
DWIDTH 4 0
BBX 3 15 2 -3
BITMAP
C0
C0
C0
C0
C0
C0
C0
C0
C0
C0
C0
C0
80
80
E0
ENDCHAR
STARTCHAR iogonek
ENCODING 303
SWIDTH 222 0
DWIDTH 4 0
BBX 3 15 1 -3
BITMAP
40
40
00
40
40
40
40
40
40
40
40
40
80
80
E0
ENDCHAR
STARTCHAR Idotaccent
ENCODING 304
SWIDTH 277 0
DWIDTH 4 0
BBX 2 14 1 0
BITMAP
C0
00
C0
C0
C0
C0
C0
C0
C0
C0
C0
C0
C0
C0
ENDCHAR
STARTCHAR dotlessi
ENCODING 305
SWIDTH 277 0
DWIDTH 4 0
BBX 1 9 3 0
BITMAP
80
80
80
80
80
80
80
80
80
ENDCHAR
STARTCHAR IJ
ENCODING 306
SWIDTH 734 0
DWIDTH 12 0
BBX 10 12 1 0
BITMAP
C0C0
C0C0
C0C0
C0C0
C0C0
C0C0
C0C0
C0C0
C8C0
D8C0
CF80
CF00
ENDCHAR
STARTCHAR ij
ENCODING 307
SWIDTH 443 0
DWIDTH 7 0
BBX 5 15 2 -3
BITMAP
90
90
00
90
90
90
90
90
90
90
90
90
10
18
70
ENDCHAR
STARTCHAR Jcircumflex
ENCODING 308
SWIDTH 500 0
DWIDTH 8 0
BBX 8 15 0 0
BITMAP
06
0D
00
06
06
06
06
06
06
06
06
46
C6
7C
78
ENDCHAR
STARTCHAR jcircumflex
ENCODING 309
SWIDTH 222 0
DWIDTH 4 0
BBX 5 15 -1 -3
BITMAP
70
68
00
20
20
20
20
20
20
20
20
20
20
20
E0
ENDCHAR
STARTCHAR uni0136
ENCODING 310
SWIDTH 666 0
DWIDTH 11 0
BBX 10 16 1 -4
BITMAP
C180
C300
C600
CC00
D800
F800
EC00
C600
C300
C300
C180
C0C0
0000
0C00
0400
0800
ENDCHAR
STARTCHAR uni0137
ENCODING 311
SWIDTH 500 0
DWIDTH 8 0
BBX 6 16 2 -4
BITMAP
80
80
80
8C
98
B0
E0
F0
B0
98
8C
8C
00
30
10
30
ENDCHAR
STARTCHAR kgreenlandic
ENCODING 312
SWIDTH 500 0
DWIDTH 8 0
BBX 6 9 2 0
BITMAP
8C
98
B0
E0
F0
B0
98
8C
8C
ENDCHAR
STARTCHAR Lacute
ENCODING 313
SWIDTH 556 0
DWIDTH 9 0
BBX 8 15 1 0
BITMAP
30
20
00
C0
C0
C0
C0
C0
C0
C0
C0
C0
C0
7F
7F
ENDCHAR
STARTCHAR lacute
ENCODING 314
SWIDTH 222 0
DWIDTH 4 0
BBX 2 15 2 0
BITMAP
C0
C0
80
80
80
80
80
80
80
80
80
80
80
80
80
ENDCHAR
STARTCHAR uni013B
ENCODING 315
SWIDTH 556 0
DWIDTH 9 0
BBX 8 16 1 -4
BITMAP
C0
C0
C0
C0
C0
C0
C0
C0
C0
C0
7F
7F
00
18
08
08
ENDCHAR
STARTCHAR uni013C
ENCODING 316
SWIDTH 222 0
DWIDTH 4 0
BBX 2 16 1 -4
BITMAP
C0
C0
C0
C0
C0
C0
C0
C0
C0
C0
C0
C0
00
C0
40
40
ENDCHAR
STARTCHAR Lcaron
ENCODING 317
SWIDTH 556 0
DWIDTH 9 0
BBX 8 12 1 0
BITMAP
C6
C6
C2
C6
C0
C0
C0
C0
C0
C0
7F
7F
ENDCHAR
STARTCHAR lcaron
ENCODING 318
SWIDTH 291 0
DWIDTH 5 0
BBX 3 12 2 0
BITMAP
E0
E0
A0
A0
80
80
80
80
80
80
80
80
ENDCHAR
STARTCHAR Ldot
ENCODING 319
SWIDTH 556 0
DWIDTH 9 0
BBX 8 12 1 0
BITMAP
C0
C0
C0
C0
C0
D8
D8
C0
C0
C0
7F
7F
ENDCHAR
STARTCHAR ldot
ENCODING 320
SWIDTH 333 0
DWIDTH 5 0
BBX 4 12 2 0
BITMAP
80
80
80
80
80
B0
B0
80
80
80
80
80
ENDCHAR
STARTCHAR Lslash
ENCODING 321
SWIDTH 556 0
DWIDTH 9 0
BBX 9 12 0 0
BITMAP
6000
6000
6400
6C00
7800
3000
E000
E000
6000
6000
3F80
3F80
ENDCHAR
STARTCHAR lslash
ENCODING 322
SWIDTH 222 0
DWIDTH 4 0
BBX 4 12 0 0
BITMAP
20
20
20
20
30
60
60
A0
20
20
20
20
ENDCHAR
STARTCHAR Nacute
ENCODING 323
SWIDTH 722 0
DWIDTH 12 0
BBX 10 15 1 0
BITMAP
0600
0800
0000
C080
6080
7080
7080
5880
4C80
4C80
4680
4380
41C0
4180
40C0
ENDCHAR
STARTCHAR nacute
ENCODING 324
SWIDTH 556 0
DWIDTH 9 0
BBX 7 12 2 0
BITMAP
18
20
00
88
FC
CC
86
86
86
86
86
86
ENDCHAR
STARTCHAR uni0145
ENCODING 325
SWIDTH 722 0
DWIDTH 12 0
BBX 10 16 1 -4
BITMAP
C080
6080
7080
7080
5880
4C80
4C80
4680
4380
41C0
4180
40C0
0000
0C00
0400
0800
ENDCHAR
STARTCHAR uni0146
ENCODING 326
SWIDTH 556 0
DWIDTH 9 0
BBX 7 13 2 -4
BITMAP
88
FC
CC
86
86
86
86
86
86
00
30
10
20
ENDCHAR
STARTCHAR Ncaron
ENCODING 327
SWIDTH 722 0
DWIDTH 12 0
BBX 10 15 1 0
BITMAP
3600
0C00
0000
C080
6080
7080
7080
5880
4C80
4C80
4680
4380
41C0
4180
40C0
ENDCHAR
STARTCHAR ncaron
ENCODING 328
SWIDTH 556 0
DWIDTH 9 0
BBX 7 12 2 0
BITMAP
78
70
00
88
FC
CC
86
86
86
86
86
86
ENDCHAR
STARTCHAR napostrophe
ENCODING 329
SWIDTH 604 0
DWIDTH 10 0
BBX 10 12 0 0
BITMAP
C000
C000
4000
5100
1F80
1980
30C0
30C0
30C0
30C0
30C0
30C0
ENDCHAR
STARTCHAR Eng
ENCODING 330
SWIDTH 723 0
DWIDTH 12 0
BBX 10 12 1 0
BITMAP
DC00
FF00
E0C0
C0C0
C0C0
C0C0
C0C0
C0C0
C0C0
C180
C780
CE00
ENDCHAR
STARTCHAR eng
ENCODING 331
SWIDTH 556 0
DWIDTH 9 0
BBX 8 12 1 -3
BITMAP
48
FC
66
43
43
43
43
43
43
03
06
0E
ENDCHAR
STARTCHAR Omacron
ENCODING 332
SWIDTH 777 0
DWIDTH 12 0
BBX 12 14 1 0
BITMAP
0F80
0000
1C00
3F80
20E0
6020
C060
C030
C030
C060
6060
6060
3F80
1F80
ENDCHAR
STARTCHAR omacron
ENCODING 333
SWIDTH 556 0
DWIDTH 9 0
BBX 9 11 1 0
BITMAP
3E00
0000
0800
7E00
6300
4300
4180
C300
6300
2300
7C00
ENDCHAR
STARTCHAR Obreve
ENCODING 334
SWIDTH 777 0
DWIDTH 12 0
BBX 12 15 1 0
BITMAP
0900
0F00
0000
1C00
3F80
20E0
6020
C060
C030
C030
C060
6060
6060
3F80
1F80
ENDCHAR
STARTCHAR obreve
ENCODING 335
SWIDTH 556 0
DWIDTH 9 0
BBX 9 12 1 0
BITMAP
2200
3C00
0000
0800
7E00
6300
4300
4180
C300
6300
2300
7C00
ENDCHAR
STARTCHAR Ohungarumlaut
ENCODING 336
SWIDTH 777 0
DWIDTH 12 0
BBX 12 15 1 0
BITMAP
0D80
0D00
0000
1C00
3F80
20E0
6020
C060
C030
C030
C060
6060
6060
3F80
1F80
ENDCHAR
STARTCHAR ohungarumlaut
ENCODING 337
SWIDTH 556 0
DWIDTH 9 0
BBX 9 12 1 0
BITMAP
1E00
1400
0000
0800
7E00
6300
4300
4180
C300
6300
2300
7C00
ENDCHAR
STARTCHAR OE
ENCODING 338
SWIDTH 1000 0
DWIDTH 16 0
BBX 15 12 1 0
BITMAP
04FC
7F80
3180
60C0
C0C0
C0FC
C080
C0C0
60C0
6180
7FFE
0EFE
ENDCHAR
STARTCHAR oe
ENCODING 339
SWIDTH 943 0
DWIDTH 15 0
BBX 15 9 1 0
BITMAP
0860
3CF8
738C
C30C
41FE
C300
630C
428C
7C78
ENDCHAR
STARTCHAR Racute
ENCODING 340
SWIDTH 722 0
DWIDTH 12 0
BBX 11 15 1 0
BITMAP
0C00
1800
0000
7F00
C780
C180
C0C0
C0C0
7F80
CE00
C600
C380
C180
C0C0
C060
ENDCHAR
STARTCHAR racute
ENCODING 341
SWIDTH 333 0
DWIDTH 5 0
BBX 5 12 1 0
BITMAP
30
60
00
50
78
60
C0
40
40
40
40
40
ENDCHAR
STARTCHAR uni0156
ENCODING 342
SWIDTH 722 0
DWIDTH 12 0
BBX 11 16 1 -4
BITMAP
7F00
C780
C180
C0C0
C0C0
7F80
CE00
C600
C380
C180
C0C0
C060
0000
0C00
0400
0400
ENDCHAR
STARTCHAR uni0157
ENCODING 343
SWIDTH 333 0
DWIDTH 5 0
BBX 5 13 1 -4
BITMAP
50
78
60
60
C0
C0
C0
C0
C0
00
C0
40
40
ENDCHAR
STARTCHAR Rcaron
ENCODING 344
SWIDTH 722 0
DWIDTH 12 0
BBX 11 15 1 0
BITMAP
3600
3400
0000
7F00
C780
C180
C0C0
C0C0
7F80
CE00
C600
C380
C180
C0C0
C060
ENDCHAR
STARTCHAR rcaron
ENCODING 345
SWIDTH 333 0
DWIDTH 5 0
BBX 4 12 1 0
BITMAP
F0
E0
00
A0
F0
C0
C0
80
80
80
80
80
ENDCHAR
STARTCHAR Sacute
ENCODING 346
SWIDTH 666 0
DWIDTH 11 0
BBX 9 15 2 0
BITMAP
1800
1000
0000
3E00
7F00
E300
C000
4000
7000
0E00
0300
8100
C180
FF00
3E00
ENDCHAR
STARTCHAR sacute
ENCODING 347
SWIDTH 500 0
DWIDTH 8 0
BBX 8 12 0 0
BITMAP
0C
08
00
1C
7E
C4
60
3E
06
43
42
3C
ENDCHAR
STARTCHAR Scircumflex
ENCODING 348
SWIDTH 666 0
DWIDTH 11 0
BBX 9 15 2 0
BITMAP
1800
1800
0000
3E00
7F00
E300
C000
4000
7000
0E00
0300
8100
C180
FF00
3E00
ENDCHAR
STARTCHAR scircumflex
ENCODING 349
SWIDTH 500 0
DWIDTH 8 0
BBX 8 12 0 0
BITMAP
18
3C
00
1C
7E
C4
60
3E
06
43
42
3C
ENDCHAR
STARTCHAR Scedilla
ENCODING 350
SWIDTH 666 0
DWIDTH 11 0
BBX 9 15 2 -3
BITMAP
3E00
7F00
E300
C000
4000
7000
0E00
0300
8100
C180
FF00
3E00
1800
0800
3800
ENDCHAR
STARTCHAR scedilla
ENCODING 351
SWIDTH 500 0
DWIDTH 8 0
BBX 8 12 0 -3
BITMAP
1C
7E
C4
60
3E
06
43
42
3C
1C
0C
38
ENDCHAR
STARTCHAR Scaron
ENCODING 352
SWIDTH 666 0
DWIDTH 11 0
BBX 9 15 2 0
BITMAP
6C00
1C00
0000
3E00
7F00
E300
C000
4000
7000
0E00
0300
8100
C180
FF00
3E00
ENDCHAR
STARTCHAR scaron
ENCODING 353
SWIDTH 500 0
DWIDTH 8 0
BBX 8 12 0 0
BITMAP
3C
38
00
1C
7E
C4
60
3E
06
43
42
3C
ENDCHAR
STARTCHAR uni0162
ENCODING 354
SWIDTH 610 0
DWIDTH 10 0
BBX 9 15 1 -3
BITMAP
FF80
1800
1800
1800
1800
1800
1800
1800
1800
1800
1800
1800
1000
0400
3800
ENDCHAR
STARTCHAR uni0163
ENCODING 355
SWIDTH 277 0
DWIDTH 4 0
BBX 5 15 0 -3
BITMAP
20
20
20
F0
20
20
20
20
20
20
70
30
20
08
70
ENDCHAR
STARTCHAR Tcaron
ENCODING 356
SWIDTH 610 0
DWIDTH 10 0
BBX 9 15 1 0
BITMAP
6600
1800
0000
FF80
1800
1800
1800
1800
1800
1800
1800
1800
1800
1800
1800
ENDCHAR
STARTCHAR tcaron
ENCODING 357
SWIDTH 375 0
DWIDTH 6 0
BBX 6 12 0 0
BITMAP
2C
2C
24
F4
20
20
20
20
20
20
70
30
ENDCHAR
STARTCHAR Tbar
ENCODING 358
SWIDTH 610 0
DWIDTH 10 0
BBX 9 12 1 0
BITMAP
FF80
1800
1800
1800
1800
1800
FE00
1800
1800
1800
1800
1800
ENDCHAR
STARTCHAR tbar
ENCODING 359
SWIDTH 277 0
DWIDTH 4 0
BBX 4 12 0 0
BITMAP
20
20
20
F0
20
20
F0
F0
20
20
70
30
ENDCHAR
STARTCHAR Utilde
ENCODING 360
SWIDTH 722 0
DWIDTH 12 0
BBX 10 15 1 0
BITMAP
0100
1F00
0000
C0C0
C0C0
C0C0
C0C0
C0C0
C0C0
C0C0
C0C0
C0C0
6180
7F80
1F00
ENDCHAR
STARTCHAR utilde
ENCODING 361
SWIDTH 556 0
DWIDTH 9 0
BBX 7 12 2 0
BITMAP
44
7C
00
8C
8C
8C
8C
8C
8C
8C
FE
76
ENDCHAR
STARTCHAR Umacron
ENCODING 362
SWIDTH 722 0
DWIDTH 12 0
BBX 10 14 1 0
BITMAP
1F00
0000
C0C0
C0C0
C0C0
C0C0
C0C0
C0C0
C0C0
C0C0
C0C0
6180
7F80
1F00
ENDCHAR
STARTCHAR umacron
ENCODING 363
SWIDTH 556 0
DWIDTH 9 0
BBX 7 11 2 0
BITMAP
F8
00
8C
8C
8C
8C
8C
8C
8C
FE
76
ENDCHAR
STARTCHAR Ubreve
ENCODING 364
SWIDTH 722 0
DWIDTH 12 0
BBX 10 15 1 0
BITMAP
1200
1E00
0000
C0C0
C0C0
C0C0
C0C0
C0C0
C0C0
C0C0
C0C0
C0C0
6180
7F80
1F00
ENDCHAR
STARTCHAR ubreve
ENCODING 365
SWIDTH 556 0
DWIDTH 9 0
BBX 7 12 2 0
BITMAP
48
70
00
8C
8C
8C
8C
8C
8C
8C
FE
76
ENDCHAR
STARTCHAR Uring
ENCODING 366
SWIDTH 722 0
DWIDTH 12 0
BBX 10 15 1 0
BITMAP
0800
0C00
1400
C0C0
C0C0
C0C0
C0C0
C0C0
C0C0
C0C0
C0C0
C0C0
6180
7F80
1F00
ENDCHAR
STARTCHAR uring
ENCODING 367
SWIDTH 556 0
DWIDTH 9 0
BBX 7 12 2 0
BITMAP
30
50
30
8C
8C
8C
8C
8C
8C
8C
FE
76
ENDCHAR
STARTCHAR Uhungarumlaut
ENCODING 368
SWIDTH 722 0
DWIDTH 12 0
BBX 10 15 1 0
BITMAP
0F00
1300
0000
C0C0
C0C0
C0C0
C0C0
C0C0
C0C0
C0C0
C0C0
C0C0
6180
7F80
1F00
ENDCHAR
STARTCHAR uhungarumlaut
ENCODING 369
SWIDTH 556 0
DWIDTH 9 0
BBX 7 12 2 0
BITMAP
6C
48
00
8C
8C
8C
8C
8C
8C
8C
FE
76
ENDCHAR
STARTCHAR Uogonek
ENCODING 370
SWIDTH 722 0
DWIDTH 12 0
BBX 10 15 1 -3
BITMAP
C0C0
C0C0
C0C0
C0C0
C0C0
C0C0
C0C0
C0C0
C0C0
6180
7F80
1F00
0400
0800
0600
ENDCHAR
STARTCHAR uogonek
ENCODING 371
SWIDTH 556 0
DWIDTH 9 0
BBX 7 12 2 -3
BITMAP
8C
8C
8C
8C
8C
8C
8C
FE
76
08
0C
0C
ENDCHAR
STARTCHAR Wcircumflex
ENCODING 372
SWIDTH 943 0
DWIDTH 15 0
BBX 15 15 0 0
BITMAP
0180
0380
0000
C186
6182
4284
2346
6644
3268
2448
1638
1468
1830
1830
1830
ENDCHAR
STARTCHAR wcircumflex
ENCODING 373
SWIDTH 722 0
DWIDTH 12 0
BBX 12 12 0 0
BITMAP
0600
0F00
0000
C610
6620
4E60
2520
6B40
29E0
1940
18C0
10C0
ENDCHAR
STARTCHAR Ycircumflex
ENCODING 374
SWIDTH 666 0
DWIDTH 11 0
BBX 10 15 1 0
BITMAP
0C00
1C00
0000
C0C0
C180
6300
3300
1600
1C00
0C00
0C00
0C00
0C00
0C00
0C00
ENDCHAR
STARTCHAR ycircumflex
ENCODING 375
SWIDTH 500 0
DWIDTH 8 0
BBX 8 15 0 -3
BITMAP
0C
36
00
C1
62
23
62
24
1C
1C
18
08
08
70
70
ENDCHAR
STARTCHAR Ydieresis
ENCODING 376
SWIDTH 666 0
DWIDTH 11 0
BBX 10 14 1 0
BITMAP
1200
0000
C0C0
C180
6300
3300
1600
1C00
0C00
0C00
0C00
0C00
0C00
0C00
ENDCHAR
STARTCHAR Zacute
ENCODING 377
SWIDTH 610 0
DWIDTH 10 0
BBX 9 15 0 0
BITMAP
0600
0400
0000
7F80
0180
0180
0300
0600
0C00
1800
1800
3000
6000
FF80
FF80
ENDCHAR
STARTCHAR zacute
ENCODING 378
SWIDTH 500 0
DWIDTH 8 0
BBX 7 12 1 0
BITMAP
18
10
00
FE
0C
0C
18
30
60
C0
FE
FE
ENDCHAR
STARTCHAR Zdotaccent
ENCODING 379
SWIDTH 610 0
DWIDTH 10 0
BBX 9 14 0 0
BITMAP
0C00
0000
7F80
0180
0180
0300
0600
0C00
1800
1800
3000
6000
FF80
FF80
ENDCHAR
STARTCHAR zdotaccent
ENCODING 380
SWIDTH 500 0
DWIDTH 8 0
BBX 7 12 1 0
BITMAP
30
30
00
FE
0C
0C
18
30
60
C0
FE
FE
ENDCHAR
STARTCHAR Zcaron
ENCODING 381
SWIDTH 610 0
DWIDTH 10 0
BBX 9 15 0 0
BITMAP
1B00
1C00
0000
7F80
0180
0180
0300
0600
0C00
1800
1800
3000
6000
FF80
FF80
ENDCHAR
STARTCHAR zcaron
ENCODING 382
SWIDTH 500 0
DWIDTH 8 0
BBX 7 12 1 0
BITMAP
6C
38
00
FE
0C
0C
18
30
60
C0
FE
FE
ENDCHAR
STARTCHAR longs
ENCODING 383
SWIDTH 222 0
DWIDTH 4 0
BBX 4 12 1 0
BITMAP
70
E0
40
40
40
40
40
40
40
40
40
40
ENDCHAR
STARTCHAR uni0180
ENCODING 384
SWIDTH 556 0
DWIDTH 9 0
BBX 8 12 1 0
BITMAP
40
F8
40
48
FC
C6
42
42
43
C6
7C
5C
ENDCHAR
STARTCHAR uni0181
ENCODING 385
SWIDTH 758 0
DWIDTH 12 0
BBX 11 12 1 0
BITMAP
3E00
F3C0
B0C0
30C0
30C0
3F80
31C0
3060
3060
3060
3FC0
3E00
ENDCHAR
STARTCHAR uni0182
ENCODING 386
SWIDTH 656 0
DWIDTH 10 0
BBX 9 12 1 0
BITMAP
7F00
C000
C000
C000
C000
FE00
C300
C180
C180
C180
7F80
7800
ENDCHAR
STARTCHAR uni0183
ENCODING 387
SWIDTH 556 0
DWIDTH 9 0
BBX 8 12 1 0
BITMAP
FC
40
40
48
7E
C3
42
42
42
C6
76
58
ENDCHAR
STARTCHAR uni0184
ENCODING 388
SWIDTH 656 0
DWIDTH 10 0
BBX 10 12 0 0
BITMAP
2000
6000
E000
6000
6000
7F00
61C0
6040
60C0
60C0
3FC0
7C00
ENDCHAR
STARTCHAR uni0185
ENCODING 389
SWIDTH 556 0
DWIDTH 9 0
BBX 8 12 1 0
BITMAP
40
C0
C0
48
7E
C3
42
42
42
C6
76
58
ENDCHAR
STARTCHAR uni0186
ENCODING 390
SWIDTH 722 0
DWIDTH 12 0
BBX 11 12 1 0
BITMAP
0400
3F80
61C0
C040
0060
0060
0060
0060
C0C0
60C0
3F80
3F00
ENDCHAR
STARTCHAR uni0187
ENCODING 391
SWIDTH 722 0
DWIDTH 12 0
BBX 12 13 1 0
BITMAP
0010
0440
1FC0
70C0
6040
C000
C000
C000
C000
6060
60C0
3F80
0F80
ENDCHAR
STARTCHAR uni0188
ENCODING 392
SWIDTH 500 0
DWIDTH 8 0
BBX 9 10 1 0
BITMAP
0080
0900
3E00
6200
4000
4000
C200
6300
3600
1E00
ENDCHAR
STARTCHAR uni0189
ENCODING 393
SWIDTH 722 0
DWIDTH 12 0
BBX 11 12 0 0
BITMAP
3F00
33C0
3060
3040
3060
FC60
3060
3060
3020
3060
3FC0
3C00
ENDCHAR
STARTCHAR uni018A
ENCODING 394
SWIDTH 809 0
DWIDTH 13 0
BBX 12 12 1 0
BITMAP
7F00
F3C0
B0E0
3060
3030
3030
3030
3060
3060
3060
3FE0
3E00
ENDCHAR
STARTCHAR uni018B
ENCODING 395
SWIDTH 656 0
DWIDTH 10 0
BBX 10 12 1 0
BITMAP
3FC0
0180
0180
0180
0180
3F80
7180
6180
C180
6180
7F80
0F80
ENDCHAR
STARTCHAR uni018C
ENCODING 396
SWIDTH 556 0
DWIDTH 9 0
BBX 8 12 1 0
BITMAP
3F
02
02
12
3F
63
42
41
C1
63
77
39
ENDCHAR
STARTCHAR uni018D
ENCODING 397
SWIDTH 556 0
DWIDTH 9 0
BBX 9 12 1 -3
BITMAP
0800
7E00
6300
4300
4180
C300
6300
7E00
1800
1C00
0600
7E00
ENDCHAR
STARTCHAR uni018E
ENCODING 398
SWIDTH 666 0
DWIDTH 11 0
BBX 8 12 2 0
BITMAP
FF
03
03
03
03
FF
03
03
03
03
FF
FF
ENDCHAR
STARTCHAR uni018F
ENCODING 399
SWIDTH 752 0
DWIDTH 12 0
BBX 11 12 1 0
BITMAP
0400
1F80
60C0
2040
0060
7FE0
C060
C060
6060
60C0
3FC0
0E00
ENDCHAR
STARTCHAR uni0190
ENCODING 400
SWIDTH 604 0
DWIDTH 10 0
BBX 9 12 1 0
BITMAP
0800
3F00
6300
4180
2000
3C00
7800
6000
C080
6180
3F00
7C00
ENDCHAR
STARTCHAR uni0191
ENCODING 401
SWIDTH 610 0
DWIDTH 10 0
BBX 10 15 0 -3
BITMAP
3FC0
3000
3000
3000
3000
3F80
3000
3000
3000
3000
3000
3000
3000
2000
E000
ENDCHAR
STARTCHAR florin
ENCODING 402
SWIDTH 556 0
DWIDTH 9 0
BBX 9 15 0 -3
BITMAP
0380
0400
0C00
1F00
0400
0800
0C00
1800
1800
0800
1000
1000
1800
B000
7000
ENDCHAR
STARTCHAR uni0193
ENCODING 403
SWIDTH 777 0
DWIDTH 12 0
BBX 13 13 1 0
BITMAP
0008
0260
1FE0
60E0
4040
C000
C000
C3E0
C060
6060
6060
3FE0
1F00
ENDCHAR
STARTCHAR uni0194
ENCODING 404
SWIDTH 624 0
DWIDTH 10 0
BBX 10 15 0 -3
BITMAP
C0C0
60C0
6180
3180
3300
1B00
1B00
1E00
0C00
0C00
0C00
1E00
1E00
0B00
0E00
ENDCHAR
STARTCHAR uni0195
ENCODING 405
SWIDTH 880 0
DWIDTH 14 0
BBX 13 12 1 0
BITMAP
4000
4000
4000
4810
7E10
C610
4310
4310
4310
4318
4330
41E0
ENDCHAR
STARTCHAR uni0196
ENCODING 406
SWIDTH 222 0
DWIDTH 4 0
BBX 1 12 2 0
BITMAP
80
80
80
80
80
80
80
80
80
80
80
80
ENDCHAR
STARTCHAR uni0197
ENCODING 407
SWIDTH 277 0
DWIDTH 4 0
BBX 4 12 0 0
BITMAP
60
60
60
60
60
F0
60
60
60
60
60
60
ENDCHAR
STARTCHAR uni0198
ENCODING 408
SWIDTH 666 0
DWIDTH 11 0
BBX 10 12 1 0
BITMAP
1980
6300
C600
CC00
D800
F800
EC00
C600
C300
C300
C180
C0C0
ENDCHAR
STARTCHAR uni0199
ENCODING 409
SWIDTH 500 0
DWIDTH 8 0
BBX 6 12 2 0
BITMAP
60
C0
80
8C
98
B0
E0
F0
B0
98
8C
8C
ENDCHAR
STARTCHAR uni019A
ENCODING 410
SWIDTH 222 0
DWIDTH 4 0
BBX 3 12 1 0
BITMAP
40
40
40
40
40
E0
40
40
40
40
40
40
ENDCHAR
STARTCHAR uni019B
ENCODING 411
SWIDTH 500 0
DWIDTH 8 0
BBX 7 12 1 0
BITMAP
28
30
A0
30
30
68
38
48
C4
86
C4
86
ENDCHAR
STARTCHAR uni019C
ENCODING 412
SWIDTH 890 0
DWIDTH 14 0
BBX 12 12 1 0
BITMAP
4630
4630
4630
4630
4630
4630
4630
4630
4630
C630
7FF0
71B0
ENDCHAR
STARTCHAR uni019D
ENCODING 413
SWIDTH 722 0
DWIDTH 12 0
BBX 12 15 -1 -3
BITMAP
3030
1830
3830
2C30
2630
2330
2330
21B0
20F0
20E0
2060
2060
2000
2000
E000
ENDCHAR
STARTCHAR uni019E
ENCODING 414
SWIDTH 556 0
DWIDTH 9 0
BBX 8 12 1 -3
BITMAP
4C
FE
C6
43
43
43
43
43
43
03
03
03
ENDCHAR
STARTCHAR uni019F
ENCODING 415
SWIDTH 777 0
DWIDTH 12 0
BBX 12 12 1 0
BITMAP
0400
3FC0
3040
6060
C060
FFE0
C030
C060
6060
6060
1FC0
1E00
ENDCHAR
STARTCHAR Ohorn
ENCODING 416
SWIDTH 857 0
DWIDTH 14 0
BBX 13 12 1 0
BITMAP
1C08
3F88
20E8
6038
C060
C030
C030
C060
6060
6060
3F80
1F80
ENDCHAR
STARTCHAR ohorn
ENCODING 417
SWIDTH 655 0
DWIDTH 10 0
BBX 10 9 1 0
BITMAP
0840
7E40
6340
C1C0
4180
C300
6300
2200
7C00
ENDCHAR
STARTCHAR uni01A2
ENCODING 418
SWIDTH 868 0
DWIDTH 14 0
BBX 13 15 1 -3
BITMAP
1C38
3FF8
6198
6198
C198
C198
C198
C198
6198
6198
3F98
0F98
0018
0018
0018
ENDCHAR
STARTCHAR uni01A3
ENCODING 419
SWIDTH 667 0
DWIDTH 11 0
BBX 9 12 1 -3
BITMAP
0980
3C80
6480
C480
4480
C480
6480
4480
1E80
0080
0080
0080
ENDCHAR
STARTCHAR uni01A4
ENCODING 420
SWIDTH 754 0
DWIDTH 12 0
BBX 11 12 1 0
BITMAP
3F00
F3C0
B060
3060
3060
31C0
3F80
3000
3000
3000
3000
3000
ENDCHAR
STARTCHAR uni01A5
ENCODING 421
SWIDTH 556 0
DWIDTH 9 0
BBX 8 15 1 -3
BITMAP
30
70
C0
48
7E
C6
42
42
42
C3
C6
7C
40
40
40
ENDCHAR
STARTCHAR uni01A6
ENCODING 422
SWIDTH 666 0
DWIDTH 11 0
BBX 10 14 1 -2
BITMAP
C000
7800
7E00
C380
C180
C180
C180
FF00
CC00
C600
C600
C300
0180
00C0
ENDCHAR
STARTCHAR uni01A7
ENCODING 423
SWIDTH 666 0
DWIDTH 11 0
BBX 9 12 1 0
BITMAP
3C00
7F80
6380
0180
0100
0700
7800
E000
4080
6180
7F80
3E00
ENDCHAR
STARTCHAR uni01A8
ENCODING 424
SWIDTH 500 0
DWIDTH 8 0
BBX 8 9 1 0
BITMAP
30
7E
46
06
7C
C0
43
66
38
ENDCHAR
STARTCHAR uni01A9
ENCODING 425
SWIDTH 618 0
DWIDTH 10 0
BBX 9 12 1 0
BITMAP
FF00
C000
6000
3000
1800
0C00
1800
3000
3000
6000
7F80
7F80
ENDCHAR
STARTCHAR uni01AA
ENCODING 426
SWIDTH 380 0
DWIDTH 6 0
BBX 6 15 1 -3
BITMAP
40
90
78
30
30
30
30
30
30
30
30
30
30
18
1C
ENDCHAR
STARTCHAR uni01AB
ENCODING 427
SWIDTH 277 0
DWIDTH 4 0
BBX 5 15 0 -3
BITMAP
20
20
20
F0
20
20
20
20
20
20
70
38
18
18
70
ENDCHAR
STARTCHAR uni01AC
ENCODING 428
SWIDTH 610 0
DWIDTH 10 0
BBX 9 12 1 0
BITMAP
7F80
D800
9800
1800
1800
1800
1800
1800
1800
1800
1800
1800
ENDCHAR
STARTCHAR uni01AD
ENCODING 429
SWIDTH 277 0
DWIDTH 4 0
BBX 5 12 0 0
BITMAP
18
30
20
F0
20
20
20
20
20
20
70
38
ENDCHAR
STARTCHAR uni01AE
ENCODING 430
SWIDTH 610 0
DWIDTH 10 0
BBX 9 15 1 -3
BITMAP
FF80
1800
1800
1800
1800
1800
1800
1800
1800
1800
1800
1800
1800
0800
0E00
ENDCHAR
STARTCHAR Uhorn
ENCODING 431
SWIDTH 854 0
DWIDTH 14 0
BBX 12 12 1 0
BITMAP
C0F0
C0F0
C0D0
C0F0
C0C0
C0C0
C0C0
C0C0
C0C0
6180
7F80
1E00
ENDCHAR
STARTCHAR uhorn
ENCODING 432
SWIDTH 669 0
DWIDTH 11 0
BBX 9 9 2 0
BITMAP
8D00
8D00
8C80
8D80
8600
8C00
8C00
FE00
7600
ENDCHAR
STARTCHAR uni01B1
ENCODING 433
SWIDTH 747 0
DWIDTH 12 0
BBX 11 12 1 0
BITMAP
79E0
1B00
3080
20C0
6040
C060
C060
6060
6060
60C0
3F80
0E00
ENDCHAR
STARTCHAR uni01B2
ENCODING 434
SWIDTH 722 0
DWIDTH 12 0
BBX 10 12 1 0
BITMAP
C600
C180
C0C0
C0C0
C0C0
C0C0
C0C0
C180
C080
6180
3F00
1C00
ENDCHAR
STARTCHAR uni01B3
ENCODING 435
SWIDTH 772 0
DWIDTH 12 0
BBX 11 12 1 0
BITMAP
C0C0
C1E0
6300
3300
3600
1C00
0C00
0C00
0C00
0C00
0C00
0C00
ENDCHAR
STARTCHAR uni01B4
ENCODING 436
SWIDTH 500 0
DWIDTH 8 0
BBX 11 15 0 -3
BITMAP
00C0
01E0
0180
C100
6200
2300
6200
2400
1C00
1C00
1800
0800
0800
7000
7000
ENDCHAR
STARTCHAR uni01B5
ENCODING 437
SWIDTH 610 0
DWIDTH 10 0
BBX 9 12 0 0
BITMAP
7F80
0180
0180
0300
0600
FF80
1800
1800
3000
6000
FF80
FF80
ENDCHAR
STARTCHAR uni01B6
ENCODING 438
SWIDTH 500 0
DWIDTH 8 0
BBX 7 9 1 0
BITMAP
FE
0C
0C
18
FE
60
C0
FE
FE
ENDCHAR
STARTCHAR uni01B7
ENCODING 439
SWIDTH 610 0
DWIDTH 10 0
BBX 9 15 1 -3
BITMAP
FF00
0300
0600
0600
0C00
1800
1E00
1F00
0180
0180
0180
8300
C700
CE00
7C00
ENDCHAR
STARTCHAR uni01B8
ENCODING 440
SWIDTH 610 0
DWIDTH 10 0
BBX 9 15 0 -3
BITMAP
7F80
6000
3000
3000
1800
0C00
3C00
7C00
C000
C000
C000
6080
6180
3980
1F00
ENDCHAR
STARTCHAR uni01B9
ENCODING 441
SWIDTH 544 0
DWIDTH 9 0
BBX 8 12 1 -3
BITMAP
7F
60
30
18
0C
38
60
C0
42
63
23
3E
ENDCHAR
STARTCHAR uni01BA
ENCODING 442
SWIDTH 544 0
DWIDTH 9 0
BBX 7 12 1 -3
BITMAP
FE
0C
18
30
38
3C
0C
18
E0
C6
C6
7C
ENDCHAR
STARTCHAR uni01BB
ENCODING 443
SWIDTH 556 0
DWIDTH 9 0
BBX 8 12 0 0
BITMAP
08
3E
63
03
03
FF
06
18
38
60
FF
FF
ENDCHAR
STARTCHAR uni01BC
ENCODING 444
SWIDTH 556 0
DWIDTH 9 0
BBX 8 12 1 0
BITMAP
7F
30
30
30
38
0E
03
03
43
C3
43
3C
ENDCHAR
STARTCHAR uni01BD
ENCODING 445
SWIDTH 458 0
DWIDTH 7 0
BBX 6 9 1 0
BITMAP
FC
60
60
60
78
0C
84
8C
38
ENDCHAR
STARTCHAR uni01BE
ENCODING 446
SWIDTH 486 0
DWIDTH 8 0
BBX 8 12 0 0
BITMAP
20
20
20
F0
20
20
30
3C
06
43
66
3C
ENDCHAR
STARTCHAR uni01BF
ENCODING 447
SWIDTH 556 0
DWIDTH 9 0
BBX 8 12 1 -3
BITMAP
48
7E
C3
42
42
43
46
5E
78
C0
40
40
ENDCHAR
STARTCHAR uni01C0
ENCODING 448
SWIDTH 259 0
DWIDTH 4 0
BBX 1 12 2 0
BITMAP
80
80
80
80
80
80
80
80
80
80
80
80
ENDCHAR
STARTCHAR uni01C1
ENCODING 449
SWIDTH 413 0
DWIDTH 7 0
BBX 4 12 2 0
BITMAP
B0
B0
B0
B0
B0
B0
B0
B0
B0
B0
B0
B0
ENDCHAR
STARTCHAR uni01C2
ENCODING 450
SWIDTH 583 0
DWIDTH 9 0
BBX 8 12 1 0
BITMAP
08
08
08
08
FF
08
08
FF
08
08
08
08
ENDCHAR
STARTCHAR uni01C3
ENCODING 451
SWIDTH 277 0
DWIDTH 4 0
BBX 2 12 1 0
BITMAP
C0
C0
C0
C0
C0
C0
40
40
40
00
C0
C0
ENDCHAR
STARTCHAR uni01C4
ENCODING 452
SWIDTH 1333 0
DWIDTH 21 0
BBX 20 15 1 0
BITMAP
0006C0
0001C0
000000
FC0FF0
CF0030
C38060
C0C0C0
C0C180
C0C180
C0C300
C0C600
C0CC00
C19800
7F9FF0
781FF0
ENDCHAR
STARTCHAR uni01C5
ENCODING 453
SWIDTH 1222 0
DWIDTH 20 0
BBX 18 12 1 0
BITMAP
FC0D80
CF0700
C38000
C0DFC0
C0C0C0
C0C180
C0C300
C0C600
C0C600
C18C00
7F9FC0
781FC0
ENDCHAR
STARTCHAR uni01C6
ENCODING 454
SWIDTH 1048 0
DWIDTH 17 0
BBX 17 12 1 0
BITMAP
023600
021C00
020000
0E7F00
3F0300
630600
420C00
411800
C13000
633000
677F80
397F80
ENDCHAR
STARTCHAR uni01C7
ENCODING 455
SWIDTH 1062 0
DWIDTH 17 0
BBX 15 12 1 0
BITMAP
C006
C006
C006
C006
C006
C006
C006
C006
C0C6
C066
7F7C
7F3C
ENDCHAR
STARTCHAR uni01C8
ENCODING 456
SWIDTH 833 0
DWIDTH 13 0
BBX 12 15 1 -3
BITMAP
C020
C020
C000
C020
C020
C020
C020
C020
C020
C020
7F20
7F20
0020
0030
00E0
ENDCHAR
STARTCHAR uni01C9
ENCODING 457
SWIDTH 451 0
DWIDTH 7 0
BBX 5 15 2 -3
BITMAP
90
90
80
90
90
90
90
90
90
90
90
90
10
18
70
ENDCHAR
STARTCHAR uni01CA
ENCODING 458
SWIDTH 1222 0
DWIDTH 20 0
BBX 18 12 1 0
BITMAP
C080C0
6080C0
7080C0
7080C0
5880C0
4C80C0
4C80C0
4680C0
4390C0
41D8C0
419F80
40CF80
ENDCHAR
STARTCHAR uni01CB
ENCODING 459
SWIDTH 944 0
DWIDTH 15 0
BBX 14 15 1 -3
BITMAP
C08C
608C
7080
708C
588C
4C8C
4C8C
468C
438C
41CC
418C
40CC
000C
0018
0038
ENDCHAR
STARTCHAR uni01CC
ENCODING 460
SWIDTH 770 0
DWIDTH 12 0
BBX 9 15 2 -3
BITMAP
0080
0080
0000
8880
FC80
CC80
8680
8680
8680
8680
8680
8680
0080
0080
0380
ENDCHAR
STARTCHAR uni01CD
ENCODING 461
SWIDTH 666 0
DWIDTH 11 0
BBX 11 15 0 0
BITMAP
1B00
0B00
0600
0600
0E00
0E00
1900
1180
1980
1180
3F80
60C0
60C0
6060
C060
ENDCHAR
STARTCHAR uni01CE
ENCODING 462
SWIDTH 556 0
DWIDTH 9 0
BBX 7 12 2 0
BITMAP
6C
38
00
78
FC
C6
04
FC
C4
86
CE
F6
ENDCHAR
STARTCHAR uni01CF
ENCODING 463
SWIDTH 277 0
DWIDTH 4 0
BBX 6 15 0 0
BITMAP
CC
30
20
30
30
30
30
30
30
30
30
30
30
30
30
ENDCHAR
STARTCHAR uni01D0
ENCODING 464
SWIDTH 222 0
DWIDTH 4 0
BBX 4 12 0 0
BITMAP
F0
E0
00
40
40
40
40
40
40
40
40
40
ENDCHAR
STARTCHAR uni01D1
ENCODING 465
SWIDTH 777 0
DWIDTH 12 0
BBX 12 15 1 0
BITMAP
1980
0600
0400
1C00
3F80
20E0
6020
C060
C030
C030
C060
6060
6060
3F80
1F80
ENDCHAR
STARTCHAR uni01D2
ENCODING 466
SWIDTH 556 0
DWIDTH 9 0
BBX 9 12 1 0
BITMAP
3600
1C00
0000
0800
7E00
6300
4300
4180
C300
6300
2300
7C00
ENDCHAR
STARTCHAR uni01D3
ENCODING 467
SWIDTH 722 0
DWIDTH 12 0
BBX 10 15 1 0
BITMAP
1B00
1C00
0400
C0C0
C0C0
C0C0
C0C0
C0C0
C0C0
C0C0
C0C0
C0C0
6180
7F80
1F00
ENDCHAR
STARTCHAR uni01D4
ENCODING 468
SWIDTH 556 0
DWIDTH 9 0
BBX 7 12 2 0
BITMAP
78
70
00
8C
8C
8C
8C
8C
8C
8C
FE
76
ENDCHAR
STARTCHAR uni01D5
ENCODING 469
SWIDTH 722 0
DWIDTH 12 0
BBX 10 15 1 0
BITMAP
1E00
0000
1200
C0C0
C0C0
C0C0
C0C0
C0C0
C0C0
C0C0
C0C0
C0C0
6180
7F80
1F00
ENDCHAR
STARTCHAR uni01D6
ENCODING 470
SWIDTH 556 0
DWIDTH 9 0
BBX 7 14 2 0
BITMAP
F8
00
D8
D8
00
8C
8C
8C
8C
8C
8C
8C
FE
76
ENDCHAR
STARTCHAR uni01D7
ENCODING 471
SWIDTH 722 0
DWIDTH 12 0
BBX 10 15 1 0
BITMAP
0600
0800
1200
C0C0
C0C0
C0C0
C0C0
C0C0
C0C0
C0C0
C0C0
C0C0
6180
7F80
1F00
ENDCHAR
STARTCHAR uni01D8
ENCODING 472
SWIDTH 556 0
DWIDTH 9 0
BBX 7 15 2 0
BITMAP
18
10
00
D8
D8
00
8C
8C
8C
8C
8C
8C
8C
FE
76
ENDCHAR
STARTCHAR uni01D9
ENCODING 473
SWIDTH 722 0
DWIDTH 12 0
BBX 10 15 1 0
BITMAP
0A00
0400
1200
C0C0
C0C0
C0C0
C0C0
C0C0
C0C0
C0C0
C0C0
C0C0
6180
7F80
1F00
ENDCHAR
STARTCHAR uni01DA
ENCODING 474
SWIDTH 556 0
DWIDTH 9 0
BBX 7 15 2 0
BITMAP
78
38
00
D8
D8
00
8C
8C
8C
8C
8C
8C
8C
FE
76
ENDCHAR
STARTCHAR uni01DB
ENCODING 475
SWIDTH 722 0
DWIDTH 12 0
BBX 10 15 1 0
BITMAP
1800
0400
1200
C0C0
C0C0
C0C0
C0C0
C0C0
C0C0
C0C0
C0C0
C0C0
6180
7F80
1F00
ENDCHAR
STARTCHAR uni01DC
ENCODING 476
SWIDTH 556 0
DWIDTH 9 0
BBX 7 15 2 0
BITMAP
60
30
00
D8
D8
00
8C
8C
8C
8C
8C
8C
8C
FE
76
ENDCHAR
STARTCHAR uni01DD
ENCODING 477
SWIDTH 556 0
DWIDTH 9 0
BBX 8 9 1 0
BITMAP
38
7E
C3
03
FF
41
63
43
1C
ENDCHAR
STARTCHAR uni01DE
ENCODING 478
SWIDTH 666 0
DWIDTH 11 0
BBX 11 15 0 0
BITMAP
0F00
0000
0900
0600
0E00
0E00
1900
1180
1980
1180
3F80
60C0
60C0
6060
C060
ENDCHAR
STARTCHAR uni01DF
ENCODING 479
SWIDTH 556 0
DWIDTH 9 0
BBX 7 14 2 0
BITMAP
7C
00
28
28
00
78
FC
C6
04
FC
C4
86
CE
F6
ENDCHAR
STARTCHAR uni01E0
ENCODING 480
SWIDTH 666 0
DWIDTH 11 0
BBX 11 15 0 0
BITMAP
0F00
0000
0400
0600
0E00
0E00
1900
1180
1980
1180
3F80
60C0
60C0
6060
C060
ENDCHAR
STARTCHAR uni01E1
ENCODING 481
SWIDTH 556 0
DWIDTH 9 0
BBX 7 14 2 0
BITMAP
7C
00
30
30
00
78
FC
C6
04
FC
C4
86
CE
F6
ENDCHAR
STARTCHAR uni01E2
ENCODING 482
SWIDTH 1000 0
DWIDTH 16 0
BBX 16 14 0 0
BITMAP
00F8
0000
03FF
06C0
06C0
0CC0
0CC0
18FE
18C0
1FC0
30C0
60C0
60FE
C0FE
ENDCHAR
STARTCHAR uni01E3
ENCODING 483
SWIDTH 889 0
DWIDTH 14 0
BBX 13 11 2 0
BITMAP
0F80
0000
7980
DFE0
CE30
0410
7FF8
C400
8618
CE20
F1E0
ENDCHAR
STARTCHAR uni01E4
ENCODING 484
SWIDTH 777 0
DWIDTH 12 0
BBX 12 12 1 0
BITMAP
0200
3FC0
6060
E040
C000
C000
C3E0
C060
63F0
6060
3FE0
0700
ENDCHAR
STARTCHAR uni01E5
ENCODING 485
SWIDTH 556 0
DWIDTH 9 0
BBX 8 12 1 -3
BITMAP
16
FE
C6
C6
C6
C6
CE
FE
FF
02
8C
78
ENDCHAR
STARTCHAR Gcaron
ENCODING 486
SWIDTH 777 0
DWIDTH 12 0
BBX 11 15 1 0
BITMAP
0D80
0D00
0200
0300
1FC0
6060
4040
C000
C000
C3E0
C060
6060
6060
3FE0
0F80
ENDCHAR
STARTCHAR gcaron
ENCODING 487
SWIDTH 556 0
DWIDTH 9 0
BBX 8 15 1 -3
BITMAP
36
1C
00
09
3F
63
41
41
C1
63
7D
09
C2
66
7C
ENDCHAR
STARTCHAR uni01E8
ENCODING 488
SWIDTH 666 0
DWIDTH 11 0
BBX 10 15 1 0
BITMAP
3600
3400
0800
C180
C300
C600
CC00
D800
F800
EC00
C600
C300
C300
C180
C0C0
ENDCHAR
STARTCHAR uni01E9
ENCODING 489
SWIDTH 500 0
DWIDTH 8 0
BBX 6 15 2 0
BITMAP
D8
70
60
80
80
80
8C
98
B0
E0
F0
B0
98
8C
8C
ENDCHAR
STARTCHAR uni01EA
ENCODING 490
SWIDTH 777 0
DWIDTH 12 0
BBX 12 15 1 -3
BITMAP
1C00
3F80
20E0
6020
C060
C030
C030
C060
6060
6060
3F80
1F80
0400
0400
0300
ENDCHAR
STARTCHAR uni01EB
ENCODING 491
SWIDTH 556 0
DWIDTH 9 0
BBX 9 12 1 -3
BITMAP
0800
7E00
6300
4300
4180
C300
6300
2300
7C00
0800
0800
1C00
ENDCHAR
STARTCHAR uni01EC
ENCODING 492
SWIDTH 777 0
DWIDTH 12 0
BBX 12 17 1 -3
BITMAP
1F00
0000
1C00
3F80
20E0
6020
C060
C030
C030
C060
6060
6060
3F80
1F80
0400
0400
0300
ENDCHAR
STARTCHAR uni01ED
ENCODING 493
SWIDTH 556 0
DWIDTH 9 0
BBX 9 14 1 -3
BITMAP
3E00
0000
0800
7E00
6300
4300
4180
C300
6300
2300
7C00
0800
0800
1C00
ENDCHAR
STARTCHAR uni01EE
ENCODING 494
SWIDTH 610 0
DWIDTH 10 0
BBX 9 18 1 -3
BITMAP
3600
3400
0800
FF00
0300
0600
0600
0C00
1800
1E00
1F00
0180
0180
0180
8300
C700
CE00
7C00
ENDCHAR
STARTCHAR uni01EF
ENCODING 495
SWIDTH 544 0
DWIDTH 9 0
BBX 8 15 1 -3
BITMAP
36
1C
00
7F
06
0C
0C
18
1E
03
03
43
C3
43
3E
ENDCHAR
STARTCHAR uni01F0
ENCODING 496
SWIDTH 222 0
DWIDTH 4 0
BBX 5 15 -1 -3
BITMAP
78
70
00
20
20
20
20
20
20
20
20
20
20
20
E0
ENDCHAR
STARTCHAR uni01F1
ENCODING 497
SWIDTH 1333 0
DWIDTH 21 0
BBX 20 12 1 0
BITMAP
FC0FF0
CF0030
C38060
C0C0C0
C0C180
C0C180
C0C300
C0C600
C0CC00
C19800
7F9FF0
781FF0
ENDCHAR
STARTCHAR uni01F2
ENCODING 498
SWIDTH 1222 0
DWIDTH 20 0
BBX 18 12 1 0
BITMAP
FC0000
CF0000
C38000
C0DFC0
C0C0C0
C0C180
C0C300
C0C600
C0C600
C18C00
7F9FC0
781FC0
ENDCHAR
STARTCHAR uni01F3
ENCODING 499
SWIDTH 1048 0
DWIDTH 17 0
BBX 17 12 1 0
BITMAP
020000
020000
020000
0E7F00
3F0300
630600
420C00
411800
C13000
633000
677F80
397F80
ENDCHAR
STARTCHAR uni01F4
ENCODING 500
SWIDTH 777 0
DWIDTH 12 0
BBX 11 15 1 0
BITMAP
0300
0200
0000
0300
1FC0
6060
4040
C000
C000
C3E0
C060
6060
6060
3FE0
0F80
ENDCHAR
STARTCHAR uni01F5
ENCODING 501
SWIDTH 556 0
DWIDTH 9 0
BBX 8 15 1 -3
BITMAP
0C
08
00
09
3F
63
41
41
C1
63
7D
09
C2
66
7C
ENDCHAR
STARTCHAR uni01F6
ENCODING 502
SWIDTH 1034 0
DWIDTH 17 0
BBX 15 12 1 0
BITMAP
C0C0
C0C0
C0C0
C0C4
C0C4
FF84
C0C4
C0C4
C0C4
C0C6
C04C
C07C
ENDCHAR
STARTCHAR uni01F7
ENCODING 503
SWIDTH 618 0
DWIDTH 10 0
BBX 9 15 1 -3
BITMAP
C800
7F00
6300
C180
C180
C300
C300
C300
C600
C400
D800
F000
6000
C000
C000
ENDCHAR
STARTCHAR uni01F8
ENCODING 504
SWIDTH 722 0
DWIDTH 12 0
BBX 10 15 1 0
BITMAP
1800
0C00
0000
C080
6080
7080
7080
5880
4C80
4C80
4680
4380
41C0
4180
40C0
ENDCHAR
STARTCHAR uni01F9
ENCODING 505
SWIDTH 556 0
DWIDTH 9 0
BBX 7 12 2 0
BITMAP
60
20
00
88
FC
CC
86
86
86
86
86
86
ENDCHAR
STARTCHAR Aringacute
ENCODING 506
SWIDTH 666 0
DWIDTH 11 0
BBX 11 16 0 0
BITMAP
0600
0600
0A00
0A00
0600
0E00
0E00
1900
1180
1980
1180
3F80
60C0
60C0
6060
C060
ENDCHAR
STARTCHAR aringacute
ENCODING 507
SWIDTH 556 0
DWIDTH 9 0
BBX 7 15 2 0
BITMAP
18
30
00
30
28
30
78
FC
C6
04
FC
C4
86
CE
F6
ENDCHAR
STARTCHAR AEacute
ENCODING 508
SWIDTH 1000 0
DWIDTH 16 0
BBX 16 15 0 0
BITMAP
00C0
0180
0000
03FF
06C0
06C0
0CC0
0CC0
18FE
18C0
1FC0
30C0
60C0
60FE
C0FE
ENDCHAR
STARTCHAR aeacute
ENCODING 509
SWIDTH 889 0
DWIDTH 14 0
BBX 13 12 2 0
BITMAP
0300
0600
0000
7980
DFE0
CE30
0410
7FF8
C400
8618
CE20
F1E0
ENDCHAR
STARTCHAR Oslashacute
ENCODING 510
SWIDTH 777 0
DWIDTH 12 0
BBX 12 15 1 0
BITMAP
0300
0600
0000
0320
3DC0
60C0
40E0
C160
C630
CC30
6C30
7060
3060
5FC0
4F80
ENDCHAR
STARTCHAR oslashacute
ENCODING 511
SWIDTH 610 0
DWIDTH 10 0
BBX 9 12 1 0
BITMAP
0C00
0C00
0000
0900
7E00
6700
C500
4980
DB00
7300
6200
7E00
ENDCHAR
STARTCHAR uni0200
ENCODING 512
SWIDTH 666 0
DWIDTH 11 0
BBX 11 15 0 0
BITMAP
3600
0A00
0000
0600
0E00
0E00
1900
1180
1980
1180
3F80
60C0
60C0
6060
C060
ENDCHAR
STARTCHAR uni0201
ENCODING 513
SWIDTH 556 0
DWIDTH 9 0
BBX 7 12 2 0
BITMAP
D8
4C
00
78
FC
C6
04
FC
C4
86
CE
F6
ENDCHAR
STARTCHAR uni0202
ENCODING 514
SWIDTH 666 0
DWIDTH 11 0
BBX 11 15 0 0
BITMAP
0400
0F00
0000
0600
0E00
0E00
1900
1180
1980
1180
3F80
60C0
60C0
6060
C060
ENDCHAR
STARTCHAR uni0203
ENCODING 515
SWIDTH 556 0
DWIDTH 9 0
BBX 7 12 2 0
BITMAP
10
78
00
78
FC
C6
04
FC
C4
86
CE
F6
ENDCHAR
STARTCHAR uni0204
ENCODING 516
SWIDTH 666 0
DWIDTH 11 0
BBX 9 15 1 0
BITMAP
6C00
2600
0000
7F80
C000
C000
C000
C000
FF00
C000
C000
C000
C000
7F80
7F80
ENDCHAR
STARTCHAR uni0205
ENCODING 517
SWIDTH 556 0
DWIDTH 9 0
BBX 8 12 1 0
BITMAP
6C
26
00
08
7E
63
C3
FF
40
63
23
3E
ENDCHAR
STARTCHAR uni0206
ENCODING 518
SWIDTH 666 0
DWIDTH 11 0
BBX 9 15 1 0
BITMAP
0800
1E00
0000
7F80
C000
C000
C000
C000
FF00
C000
C000
C000
C000
7F80
7F80
ENDCHAR
STARTCHAR uni0207
ENCODING 519
SWIDTH 556 0
DWIDTH 9 0
BBX 8 12 1 0
BITMAP
08
3C
00
08
7E
63
C3
FF
40
63
23
3E
ENDCHAR
STARTCHAR uni0208
ENCODING 520
SWIDTH 277 0
DWIDTH 4 0
BBX 4 15 0 0
BITMAP
F0
50
00
30
30
30
30
30
30
30
30
30
30
30
30
ENDCHAR
STARTCHAR uni0209
ENCODING 521
SWIDTH 277 0
DWIDTH 4 0
BBX 4 12 0 0
BITMAP
F0
50
00
20
20
20
20
20
20
20
20
20
ENDCHAR
STARTCHAR uni020A
ENCODING 522
SWIDTH 277 0
DWIDTH 4 0
BBX 4 15 1 0
BITMAP
40
F0
00
60
60
60
60
60
60
60
60
60
60
60
60
ENDCHAR
STARTCHAR uni020B
ENCODING 523
SWIDTH 277 0
DWIDTH 4 0
BBX 4 12 1 0
BITMAP
40
F0
00
40
40
40
40
40
40
40
40
40
ENDCHAR
STARTCHAR uni020C
ENCODING 524
SWIDTH 777 0
DWIDTH 12 0
BBX 12 15 1 0
BITMAP
3600
0A00
0000
1C00
3F80
20E0
6020
C060
C030
C030
C060
6060
6060
3F80
1F80
ENDCHAR
STARTCHAR uni020D
ENCODING 525
SWIDTH 556 0
DWIDTH 9 0
BBX 9 12 1 0
BITMAP
6C00
2C00
0000
0800
7E00
6300
4300
4180
C300
6300
2300
7C00
ENDCHAR
STARTCHAR uni020E
ENCODING 526
SWIDTH 777 0
DWIDTH 12 0
BBX 12 15 1 0
BITMAP
0400
1F00
0000
1C00
3F80
20E0
6020
C060
C030
C030
C060
6060
6060
3F80
1F80
ENDCHAR
STARTCHAR uni020F
ENCODING 527
SWIDTH 556 0
DWIDTH 9 0
BBX 9 12 1 0
BITMAP
0800
3C00
0000
0800
7E00
6300
4300
4180
C300
6300
2300
7C00
ENDCHAR
STARTCHAR uni0210
ENCODING 528
SWIDTH 722 0
DWIDTH 12 0
BBX 11 15 1 0
BITMAP
6C00
2600
0000
7F00
C780
C180
C0C0
C0C0
7F80
CE00
C600
C380
C180
C0C0
C060
ENDCHAR
STARTCHAR uni0211
ENCODING 529
SWIDTH 333 0
DWIDTH 5 0
BBX 5 12 1 0
BITMAP
F0
50
00
70
78
70
60
60
60
60
60
60
ENDCHAR
STARTCHAR uni0212
ENCODING 530
SWIDTH 722 0
DWIDTH 12 0
BBX 11 15 1 0
BITMAP
0800
1E00
0000
7F00
C780
C180
C0C0
C0C0
7F80
CE00
C600
C380
C180
C0C0
C060
ENDCHAR
STARTCHAR uni0213
ENCODING 531
SWIDTH 333 0
DWIDTH 5 0
BBX 5 12 1 0
BITMAP
20
78
00
50
78
60
60
C0
C0
C0
C0
C0
ENDCHAR
STARTCHAR uni0214
ENCODING 532
SWIDTH 722 0
DWIDTH 12 0
BBX 10 15 1 0
BITMAP
3C00
3200
0000
C0C0
C0C0
C0C0
C0C0
C0C0
C0C0
C0C0
C0C0
C0C0
6180
7F80
1F00
ENDCHAR
STARTCHAR uni0215
ENCODING 533
SWIDTH 556 0
DWIDTH 9 0
BBX 8 12 1 0
BITMAP
78
28
00
43
43
43
43
43
43
C6
FE
32
ENDCHAR
STARTCHAR uni0216
ENCODING 534
SWIDTH 722 0
DWIDTH 12 0
BBX 10 15 1 0
BITMAP
0800
3E00
0000
C0C0
C0C0
C0C0
C0C0
C0C0
C0C0
C0C0
C0C0
C0C0
6180
7F80
1F00
ENDCHAR
STARTCHAR uni0217
ENCODING 535
SWIDTH 556 0
DWIDTH 9 0
BBX 7 12 2 0
BITMAP
20
78
00
8C
8C
8C
8C
8C
8C
8C
FE
76
ENDCHAR
STARTCHAR uni0218
ENCODING 536
SWIDTH 666 0
DWIDTH 11 0
BBX 9 16 2 -4
BITMAP
3E00
7F00
E300
C000
4000
7000
0E00
0300
8100
C180
FF00
3E00
0000
1800
0800
0800
ENDCHAR
STARTCHAR uni0219
ENCODING 537
SWIDTH 500 0
DWIDTH 8 0
BBX 8 13 0 -4
BITMAP
1C
7E
C4
60
3E
06
43
42
3C
00
18
08
10
ENDCHAR
STARTCHAR uni021A
ENCODING 538
SWIDTH 610 0
DWIDTH 10 0
BBX 9 16 1 -4
BITMAP
FF80
1800
1800
1800
1800
1800
1800
1800
1800
1800
1800
1800
1800
1800
0800
1000
ENDCHAR
STARTCHAR uni021B
ENCODING 539
SWIDTH 277 0
DWIDTH 4 0
BBX 4 16 0 -4
BITMAP
20
20
20
F0
20
20
20
20
20
20
70
30
10
10
10
10
ENDCHAR
STARTCHAR uni021C
ENCODING 540
SWIDTH 544 0
DWIDTH 9 0
BBX 8 15 1 -3
BITMAP
38
FE
43
03
03
06
0C
3B
73
03
03
06
3C
7C
40
ENDCHAR
STARTCHAR uni021D
ENCODING 541
SWIDTH 436 0
DWIDTH 7 0
BBX 6 12 1 -3
BITMAP
20
F8
88
08
18
18
FC
08
0C
18
30
C0
ENDCHAR
STARTCHAR uni021E
ENCODING 542
SWIDTH 722 0
DWIDTH 12 0
BBX 10 15 1 0
BITMAP
1B00
1C00
0000
C0C0
C0C0
C0C0
C0C0
C0C0
FF80
C0C0
C0C0
C0C0
C0C0
C0C0
C0C0
ENDCHAR
STARTCHAR uni021F
ENCODING 543
SWIDTH 556 0
DWIDTH 9 0
BBX 8 15 1 0
BITMAP
6C
1C
00
40
40
40
4C
7E
C6
43
43
43
43
43
43
ENDCHAR
STARTCHAR uni0220
ENCODING 544
SWIDTH 706 0
DWIDTH 11 0
BBX 9 15 1 -3
BITMAP
C300
7F80
C180
C180
C180
C180
C180
C180
C180
C180
C180
C180
0180
0180
0180
ENDCHAR
STARTCHAR uni0221
ENCODING 545
SWIDTH 681 0
DWIDTH 11 0
BBX 11 15 1 -3
BITMAP
0200
0200
0200
1200
3F00
6300
4200
4100
C100
6300
7600
3BC0
0240
0720
05C0
ENDCHAR
STARTCHAR uni0222
ENCODING 546
SWIDTH 604 0
DWIDTH 10 0
BBX 9 12 1 0
BITMAP
0E00
3B00
7980
6380
7700
1E00
6300
C180
C180
6180
3F00
3F00
ENDCHAR
STARTCHAR uni0223
ENCODING 547
SWIDTH 565 0
DWIDTH 9 0
BBX 8 12 1 0
BITMAP
34
66
63
63
7E
1C
63
C3
C3
63
7E
7E
ENDCHAR
STARTCHAR uni0224
ENCODING 548
SWIDTH 610 0
DWIDTH 10 0
BBX 9 13 0 -1
BITMAP
7F80
0180
0180
0300
0600
0C00
1800
1800
3000
6000
7F80
FF80
0080
ENDCHAR
STARTCHAR uni0225
ENCODING 549
SWIDTH 500 0
DWIDTH 8 0
BBX 7 10 1 -1
BITMAP
FE
0C
0C
18
30
60
C0
F0
FC
02
ENDCHAR
STARTCHAR uni0226
ENCODING 550
SWIDTH 666 0
DWIDTH 11 0
BBX 11 14 0 0
BITMAP
0600
0000
0600
0E00
0E00
1900
1180
1980
1180
3F80
60C0
60C0
6060
C060
ENDCHAR
STARTCHAR uni0227
ENCODING 551
SWIDTH 556 0
DWIDTH 9 0
BBX 7 12 2 0
BITMAP
30
30
00
78
FC
C6
04
FC
C4
86
CE
F6
ENDCHAR
STARTCHAR uni0228
ENCODING 552
SWIDTH 666 0
DWIDTH 11 0
BBX 9 15 1 -3
BITMAP
7F80
C000
C000
C000
C000
FF00
C000
C000
C000
C000
7F80
7F80
1800
0400
1C00
ENDCHAR
STARTCHAR uni0229
ENCODING 553
SWIDTH 556 0
DWIDTH 9 0
BBX 8 12 1 -3
BITMAP
08
7E
63
C3
FF
40
63
27
3C
08
0C
1C
ENDCHAR
STARTCHAR uni022A
ENCODING 554
SWIDTH 777 0
DWIDTH 12 0
BBX 12 15 1 0
BITMAP
0F00
0000
0900
1C00
3F80
20E0
6020
C060
C030
C030
C060
6060
6060
3F80
1F80
ENDCHAR
STARTCHAR uni022B
ENCODING 555
SWIDTH 556 0
DWIDTH 9 0
BBX 9 14 1 0
BITMAP
3E00
0000
1400
1400
0000
0800
7E00
6300
4300
4180
C300
6300
2300
7C00
ENDCHAR
STARTCHAR uni022C
ENCODING 556
SWIDTH 777 0
DWIDTH 12 0
BBX 12 15 1 0
BITMAP
0F00
0000
0F00
1C00
3F80
20E0
6020
C060
C030
C030
C060
6060
6060
3F80
1F80
ENDCHAR
STARTCHAR uni022D
ENCODING 557
SWIDTH 556 0
DWIDTH 9 0
BBX 9 14 1 0
BITMAP
3E00
0000
1200
2E00
0000
0800
7E00
6300
4300
4180
C300
6300
2300
7C00
ENDCHAR
STARTCHAR uni022E
ENCODING 558
SWIDTH 777 0
DWIDTH 12 0
BBX 12 14 1 0
BITMAP
0600
0000
1C00
3F80
20E0
6020
C060
C030
C030
C060
6060
6060
3F80
1F80
ENDCHAR
STARTCHAR uni022F
ENCODING 559
SWIDTH 556 0
DWIDTH 9 0
BBX 9 12 1 0
BITMAP
1800
1800
0000
0800
7E00
6300
4300
4180
C300
6300
2300
7C00
ENDCHAR
STARTCHAR uni0230
ENCODING 560
SWIDTH 777 0
DWIDTH 12 0
BBX 12 15 1 0
BITMAP
0F00
0000
0400
1C00
3F80
20E0
6020
C060
C030
C030
C060
6060
6060
3F80
1F80
ENDCHAR
STARTCHAR uni0231
ENCODING 561
SWIDTH 556 0
DWIDTH 9 0
BBX 9 14 1 0
BITMAP
3E00
0000
1800
1800
0000
0800
7E00
6300
4300
4180
C300
6300
2300
7C00
ENDCHAR
STARTCHAR uni0232
ENCODING 562
SWIDTH 666 0
DWIDTH 11 0
BBX 10 14 1 0
BITMAP
3E00
0000
C0C0
C180
6300
3300
1600
1C00
0C00
0C00
0C00
0C00
0C00
0C00
ENDCHAR
STARTCHAR uni0233
ENCODING 563
SWIDTH 500 0
DWIDTH 8 0
BBX 8 14 0 -3
BITMAP
3E
00
C1
62
23
62
24
1C
1C
18
08
08
70
70
ENDCHAR
STARTCHAR uni0234
ENCODING 564
SWIDTH 349 0
DWIDTH 6 0
BBX 6 15 0 -3
BITMAP
40
40
40
40
40
40
40
40
40
40
40
78
48
E4
B8
ENDCHAR
STARTCHAR uni0235
ENCODING 565
SWIDTH 684 0
DWIDTH 11 0
BBX 11 12 1 -3
BITMAP
4800
FE00
C600
4300
4300
4300
4300
4300
43C0
0360
0760
09C0
ENDCHAR
STARTCHAR uni0236
ENCODING 566
SWIDTH 367 0
DWIDTH 6 0
BBX 6 12 1 0
BITMAP
20
40
40
F0
40
40
40
40
78
48
BC
98
ENDCHAR
STARTCHAR uni0237
ENCODING 567
SWIDTH 222 0
DWIDTH 4 0
BBX 5 12 -1 -3
BITMAP
20
20
20
20
20
20
20
20
20
20
20
E0
ENDCHAR
STARTCHAR uni0238
ENCODING 568
SWIDTH 886 0
DWIDTH 14 0
BBX 14 12 1 0
BITMAP
0200
0200
0200
1240
3FF0
6718
420C
420C
C20C
6318
77B0
3AE0
ENDCHAR
STARTCHAR uni0239
ENCODING 569
SWIDTH 886 0
DWIDTH 14 0
BBX 14 12 1 -3
BITMAP
1240
3FF0
6708
420C
420C
C20C
6318
3330
1FF0
0200
0200
0200
ENDCHAR
STARTCHAR uni023A
ENCODING 570
SWIDTH 666 0
DWIDTH 11 0
BBX 11 12 0 0
BITMAP
0640
0E80
0E80
1B00
1300
1B80
1580
3F80
78C0
70C0
7060
E060
ENDCHAR
STARTCHAR uni023B
ENCODING 571
SWIDTH 722 0
DWIDTH 12 0
BBX 11 12 1 0
BITMAP
0480
1F80
71C0
6140
C600
C400
C400
C800
6860
70C0
3F80
3F80
ENDCHAR
STARTCHAR uni023C
ENCODING 572
SWIDTH 500 0
DWIDTH 8 0
BBX 7 15 1 -3
BITMAP
02
04
0C
0C
7C
8E
90
D0
A4
E6
6C
FC
40
80
80
ENDCHAR
STARTCHAR uni023D
ENCODING 573
SWIDTH 556 0
DWIDTH 9 0
BBX 9 12 0 0
BITMAP
6000
6000
6000
6000
6000
FC00
6000
6000
6000
6000
3F80
3F80
ENDCHAR
STARTCHAR uni023E
ENCODING 574
SWIDTH 610 0
DWIDTH 10 0
BBX 9 12 1 0
BITMAP
FF80
1A00
1A00
1C00
1800
1800
1800
1800
7800
5800
5800
9800
ENDCHAR
STARTCHAR uni023F
ENCODING 575
SWIDTH 500 0
DWIDTH 8 0
BBX 8 12 1 -3
BITMAP
10
7C
44
60
7C
06
43
E6
3E
30
12
1E
ENDCHAR
STARTCHAR uni0240
ENCODING 576
SWIDTH 500 0
DWIDTH 8 0
BBX 8 12 0 -3
BITMAP
7F
06
06
0C
18
30
60
C0
70
18
09
0F
ENDCHAR
STARTCHAR uni0241
ENCODING 577
SWIDTH 580 0
DWIDTH 9 0
BBX 8 12 1 0
BITMAP
70
FE
C3
01
01
02
06
1E
18
30
30
30
ENDCHAR
STARTCHAR uni0242
ENCODING 578
SWIDTH 453 0
DWIDTH 7 0
BBX 6 9 1 0
BITMAP
20
78
8C
04
0C
38
20
20
20
ENDCHAR
STARTCHAR uni0243
ENCODING 579
SWIDTH 666 0
DWIDTH 11 0
BBX 9 12 1 0
BITMAP
7800
CF00
C300
C100
C300
7E00
C300
C180
F980
C180
FF00
7800
ENDCHAR
STARTCHAR uni0244
ENCODING 580
SWIDTH 722 0
DWIDTH 12 0
BBX 11 12 0 0
BITMAP
6060
6060
6060
6060
6060
FFE0
6060
6060
60C0
60C0
3FC0
0F00
ENDCHAR
STARTCHAR uni0245
ENCODING 581
SWIDTH 667 0
DWIDTH 11 0
BBX 11 12 0 0
BITMAP
0600
0600
0A00
1900
1300
1900
1080
20C0
60C0
20C0
6060
C060
ENDCHAR
STARTCHAR uni0246
ENCODING 582
SWIDTH 666 0
DWIDTH 11 0
BBX 9 12 1 0
BITMAP
7F80
C100
C300
C200
C600
FF00
CC00
C800
F000
E000
7F80
7F80
ENDCHAR
STARTCHAR uni0247
ENCODING 583
SWIDTH 556 0
DWIDTH 9 0
BBX 8 15 1 -3
BITMAP
01
02
06
0C
76
67
CB
FF
50
73
37
7C
20
40
40
ENDCHAR
STARTCHAR uni0248
ENCODING 584
SWIDTH 500 0
DWIDTH 8 0
BBX 8 12 0 0
BITMAP
06
06
06
06
06
0F
06
06
46
C6
7E
38
ENDCHAR
STARTCHAR uni0249
ENCODING 585
SWIDTH 222 0
DWIDTH 4 0
BBX 6 15 -1 -3
BITMAP
20
20
00
20
20
20
20
70
20
20
20
20
20
20
E0
ENDCHAR
STARTCHAR uni024A
ENCODING 586
SWIDTH 737 0
DWIDTH 12 0
BBX 12 15 1 -3
BITMAP
03C0
3FC0
70C0
E0C0
C0C0
C0C0
C0C0
C0C0
60C0
60C0
3FE0
0FC0
00C0
00C0
0070
ENDCHAR
STARTCHAR uni024B
ENCODING 587
SWIDTH 556 0
DWIDTH 9 0
BBX 9 12 1 -3
BITMAP
1100
3E00
6300
4200
4100
C200
6300
3300
1F00
0200
0100
0380
ENDCHAR
STARTCHAR uni024C
ENCODING 588
SWIDTH 722 0
DWIDTH 12 0
BBX 11 12 1 0
BITMAP
7F00
63C0
6080
60C0
60C0
FF80
6E00
6300
6180
60C0
60C0
6060
ENDCHAR
STARTCHAR uni024D
ENCODING 589
SWIDTH 333 0
DWIDTH 5 0
BBX 6 9 0 0
BITMAP
28
3C
70
20
F0
20
20
20
20
ENDCHAR
STARTCHAR uni024E
ENCODING 590
SWIDTH 666 0
DWIDTH 11 0
BBX 10 12 1 0
BITMAP
C0C0
C180
FFC0
3300
1600
1C00
0C00
0C00
0C00
0C00
0C00
0C00
ENDCHAR
STARTCHAR uni024F
ENCODING 591
SWIDTH 500 0
DWIDTH 8 0
BBX 8 12 0 -3
BITMAP
C1
62
23
FF
24
1C
1C
18
08
08
70
70
ENDCHAR
STARTCHAR uni0250
ENCODING 592
SWIDTH 556 0
DWIDTH 9 0
BBX 7 9 2 0
BITMAP
88
F4
C6
C2
FE
C0
C2
C6
F8
ENDCHAR
STARTCHAR uni0251
ENCODING 593
SWIDTH 556 0
DWIDTH 9 0
BBX 8 9 1 0
BITMAP
11
3E
63
42
41
C2
63
33
1F
ENDCHAR
STARTCHAR uni0252
ENCODING 594
SWIDTH 556 0
DWIDTH 9 0
BBX 7 9 1 0
BITMAP
48
7E
C6
42
42
42
C6
C6
F8
ENDCHAR
STARTCHAR uni0253
ENCODING 595
SWIDTH 556 0
DWIDTH 9 0
BBX 8 12 1 0
BITMAP
30
70
40
48
7E
C3
42
42
42
C6
76
58
ENDCHAR
STARTCHAR uni0254
ENCODING 596
SWIDTH 500 0
DWIDTH 8 0
BBX 8 9 0 0
BITMAP
30
7C
C3
02
02
42
C3
66
78
ENDCHAR
STARTCHAR uni0255
ENCODING 597
SWIDTH 500 0
DWIDTH 8 0
BBX 7 9 1 0
BITMAP
08
3E
62
40
40
C4
7E
66
7E
ENDCHAR
STARTCHAR uni0256
ENCODING 598
SWIDTH 556 0
DWIDTH 9 0
BBX 9 15 1 -3
BITMAP
0200
0200
0200
1200
3F00
6300
4200
4100
C100
6300
7600
3A00
0200
0100
0380
ENDCHAR
STARTCHAR uni0257
ENCODING 599
SWIDTH 556 0
DWIDTH 9 0
BBX 10 12 1 0
BITMAP
0040
0180
0200
1200
3F00
6300
4200
4100
C100
6300
7700
3900
ENDCHAR
STARTCHAR uni0258
ENCODING 600
SWIDTH 556 0
DWIDTH 9 0
BBX 8 9 1 0
BITMAP
08
7E
63
43
FF
03
43
63
1C
ENDCHAR
STARTCHAR uni0259
ENCODING 601
SWIDTH 556 0
DWIDTH 9 0
BBX 8 9 1 0
BITMAP
38
7E
C3
03
FF
41
63
43
1C
ENDCHAR
STARTCHAR uni025A
ENCODING 602
SWIDTH 738 0
DWIDTH 12 0
BBX 12 9 1 0
BITMAP
3800
7E00
C380
1F80
F1F0
4170
6700
4E00
1C00
ENDCHAR
STARTCHAR uni025B
ENCODING 603
SWIDTH 458 0
DWIDTH 7 0
BBX 7 9 1 0
BITMAP
10
7C
64
60
78
C0
42
66
38
ENDCHAR
STARTCHAR uni025C
ENCODING 604
SWIDTH 458 0
DWIDTH 7 0
BBX 6 9 1 0
BITMAP
60
F8
88
0C
38
08
84
CC
78
ENDCHAR
STARTCHAR uni025D
ENCODING 605
SWIDTH 631 0
DWIDTH 10 0
BBX 9 9 1 0
BITMAP
6000
FA00
8E00
1E80
3B80
0C00
8400
8C00
3800
ENDCHAR
STARTCHAR uni025E
ENCODING 606
SWIDTH 507 0
DWIDTH 8 0
BBX 7 9 1 0
BITMAP
08
3E
66
C6
5C
CE
62
26
3E
ENDCHAR
STARTCHAR uni025F
ENCODING 607
SWIDTH 277 0
DWIDTH 4 0
BBX 5 12 -1 -3
BITMAP
30
30
30
30
30
30
30
78
78
30
B0
70
ENDCHAR
STARTCHAR uni0260
ENCODING 608
SWIDTH 556 0
DWIDTH 9 0
BBX 10 15 1 -3
BITMAP
00C0
0180
0100
0900
3F00
6300
4100
4100
C100
6300
7D00
0900
C200
6600
7C00
ENDCHAR
STARTCHAR uni0261
ENCODING 609
SWIDTH 556 0
DWIDTH 9 0
BBX 8 12 1 -3
BITMAP
09
3F
63
41
41
C1
63
7D
09
C2
66
7C
ENDCHAR
STARTCHAR uni0262
ENCODING 610
SWIDTH 558 0
DWIDTH 9 0
BBX 8 9 1 0
BITMAP
08
3E
62
40
4F
CF
62
32
1F
ENDCHAR
STARTCHAR uni0263
ENCODING 611
SWIDTH 500 0
DWIDTH 8 0
BBX 8 12 0 -3
BITMAP
C3
63
66
36
1C
1C
18
18
18
3C
14
18
ENDCHAR
STARTCHAR uni0264
ENCODING 612
SWIDTH 616 0
DWIDTH 10 0
BBX 9 9 1 0
BITMAP
4200
F780
3400
1800
1800
1800
1800
1400
1800
ENDCHAR
STARTCHAR uni0265
ENCODING 613
SWIDTH 556 0
DWIDTH 9 0
BBX 8 12 1 -3
BITMAP
43
43
43
43
43
43
C6
7F
3E
03
03
03
ENDCHAR
STARTCHAR uni0266
ENCODING 614
SWIDTH 556 0
DWIDTH 9 0
BBX 8 12 1 0
BITMAP
30
60
40
48
7E
C6
43
43
43
43
43
43
ENDCHAR
STARTCHAR uni0267
ENCODING 615
SWIDTH 556 0
DWIDTH 9 0
BBX 8 15 1 -3
BITMAP
30
60
40
48
7E
C6
43
43
43
43
43
43
03
06
0E
ENDCHAR
STARTCHAR uni0268
ENCODING 616
SWIDTH 222 0
DWIDTH 4 0
BBX 3 12 1 0
BITMAP
40
40
00
40
40
40
40
E0
40
40
40
40
ENDCHAR
STARTCHAR uni0269
ENCODING 617
SWIDTH 222 0
DWIDTH 4 0
BBX 3 9 2 0
BITMAP
80
80
80
80
80
80
80
E0
C0
ENDCHAR
STARTCHAR uni026A
ENCODING 618
SWIDTH 355 0
DWIDTH 6 0
BBX 5 9 1 0
BITMAP
F8
20
20
20
20
20
20
F8
F8
ENDCHAR
STARTCHAR uni026B
ENCODING 619
SWIDTH 327 0
DWIDTH 5 0
BBX 5 12 1 0
BITMAP
20
20
20
20
20
68
F0
20
20
20
20
20
ENDCHAR
STARTCHAR uni026C
ENCODING 620
SWIDTH 303 0
DWIDTH 5 0
BBX 5 12 0 0
BITMAP
10
10
10
30
D0
90
78
10
10
10
10
10
ENDCHAR
STARTCHAR uni026D
ENCODING 621
SWIDTH 222 0
DWIDTH 4 0
BBX 3 15 2 -3
BITMAP
80
80
80
80
80
80
80
80
80
80
80
80
80
80
E0
ENDCHAR
STARTCHAR uni026E
ENCODING 622
SWIDTH 571 0
DWIDTH 9 0
BBX 7 15 2 -3
BITMAP
80
80
80
FE
8C
98
98
B0
BC
86
86
86
86
C6
7C
ENDCHAR
STARTCHAR uni026F
ENCODING 623
SWIDTH 833 0
DWIDTH 13 0
BBX 12 9 1 0
BITMAP
4220
4220
4220
4220
4220
4220
C630
7FF0
7390
ENDCHAR
STARTCHAR uni0270
ENCODING 624
SWIDTH 833 0
DWIDTH 13 0
BBX 12 12 1 -3
BITMAP
4220
4220
4220
4220
4220
4220
C630
7FE0
71A0
0020
0020
0020
ENDCHAR
STARTCHAR uni0271
ENCODING 625
SWIDTH 833 0
DWIDTH 13 0
BBX 12 12 1 -3
BITMAP
4840
7FF0
C620
4220
4220
4220
4220
4220
4220
0020
0020
00E0
ENDCHAR
STARTCHAR uni0272
ENCODING 626
SWIDTH 556 0
DWIDTH 9 0
BBX 9 12 -1 -3
BITMAP
2200
3F80
3180
2080
2080
2080
2080
2080
2080
2000
2000
E000
ENDCHAR
STARTCHAR uni0273
ENCODING 627
SWIDTH 556 0
DWIDTH 9 0
BBX 9 12 1 -3
BITMAP
4800
FE00
C600
4300
4300
4300
4300
4300
4300
0300
0300
0380
ENDCHAR
STARTCHAR uni0274
ENCODING 628
SWIDTH 552 0
DWIDTH 9 0
BBX 7 9 1 0
BITMAP
C6
66
76
76
56
4E
4E
46
46
ENDCHAR
STARTCHAR uni0275
ENCODING 629
SWIDTH 556 0
DWIDTH 9 0
BBX 8 9 1 0
BITMAP
08
3F
63
43
FF
43
63
22
1C
ENDCHAR
STARTCHAR uni0276
ENCODING 630
SWIDTH 790 0
DWIDTH 13 0
BBX 12 9 1 0
BITMAP
05F0
7F00
6300
C300
41F0
C300
6300
43F0
1FF0
ENDCHAR
STARTCHAR uni0277
ENCODING 631
SWIDTH 780 0
DWIDTH 12 0
BBX 12 9 1 0
BITMAP
0200
3FC0
60E0
C030
4220
4220
C630
4E20
30C0
ENDCHAR
STARTCHAR uni0278
ENCODING 632
SWIDTH 549 0
DWIDTH 9 0
BBX 8 15 1 -3
BITMAP
18
18
18
38
7E
5B
DB
5B
DB
79
7E
1C
18
18
18
ENDCHAR
STARTCHAR uni0279
ENCODING 633
SWIDTH 333 0
DWIDTH 5 0
BBX 5 9 0 0
BITMAP
08
08
08
08
08
08
18
78
E8
ENDCHAR
STARTCHAR uni027A
ENCODING 634
SWIDTH 333 0
DWIDTH 5 0
BBX 5 12 0 0
BITMAP
08
08
08
08
08
08
08
08
08
18
78
E8
ENDCHAR
STARTCHAR uni027B
ENCODING 635
SWIDTH 333 0
DWIDTH 5 0
BBX 6 12 1 -3
BITMAP
10
10
10
10
10
10
30
F0
D0
10
30
1C
ENDCHAR
STARTCHAR uni027C
ENCODING 636
SWIDTH 333 0
DWIDTH 5 0
BBX 5 12 1 -3
BITMAP
50
78
E0
C0
40
40
40
40
40
40
40
40
ENDCHAR
STARTCHAR uni027D
ENCODING 637
SWIDTH 333 0
DWIDTH 5 0
BBX 5 12 1 -3
BITMAP
50
78
E0
C0
40
40
40
40
40
40
40
70
ENDCHAR
STARTCHAR uni027E
ENCODING 638
SWIDTH 333 0
DWIDTH 5 0
BBX 5 9 1 0
BITMAP
10
78
C0
40
40
40
40
40
40
ENDCHAR
STARTCHAR uni027F
ENCODING 639
SWIDTH 333 0
DWIDTH 5 0
BBX 5 12 0 -3
BITMAP
20
F0
08
08
08
08
08
08
08
08
08
08
ENDCHAR
STARTCHAR uni0280
ENCODING 640
SWIDTH 541 0
DWIDTH 9 0
BBX 8 9 1 0
BITMAP
F0
4E
43
43
7E
48
46
46
43
ENDCHAR
STARTCHAR uni0281
ENCODING 641
SWIDTH 541 0
DWIDTH 9 0
BBX 8 9 1 0
BITMAP
43
46
46
F8
7E
46
43
7E
F0
ENDCHAR
STARTCHAR uni0282
ENCODING 642
SWIDTH 500 0
DWIDTH 8 0
BBX 8 12 0 -3
BITMAP
10
3E
C4
60
38
06
43
E6
7C
40
40
70
ENDCHAR
STARTCHAR uni0283
ENCODING 643
SWIDTH 222 0
DWIDTH 4 0
BBX 6 15 -1 -3
BITMAP
04
18
30
20
20
20
20
20
20
20
20
20
20
20
E0
ENDCHAR
STARTCHAR uni0284
ENCODING 644
SWIDTH 259 0
DWIDTH 4 0
BBX 7 15 -1 -3
BITMAP
06
18
30
30
30
30
30
30
30
30
78
78
30
B0
70
ENDCHAR
STARTCHAR uni0285
ENCODING 645
SWIDTH 222 0
DWIDTH 4 0
BBX 5 12 0 -3
BITMAP
80
60
60
60
60
60
60
60
60
60
30
38
ENDCHAR
STARTCHAR uni0286
ENCODING 646
SWIDTH 349 0
DWIDTH 6 0
BBX 6 15 1 -3
BITMAP
0C
18
30
10
10
10
10
10
10
10
10
F0
90
BC
E8
ENDCHAR
STARTCHAR uni0287
ENCODING 647
SWIDTH 277 0
DWIDTH 4 0
BBX 5 12 0 0
BITMAP
40
E0
20
20
20
20
20
20
78
20
20
20
ENDCHAR
STARTCHAR uni0288
ENCODING 648
SWIDTH 277 0
DWIDTH 4 0
BBX 5 15 0 -3
BITMAP
20
20
20
F0
20
20
20
20
20
20
20
20
20
68
38
ENDCHAR
STARTCHAR uni0289
ENCODING 649
SWIDTH 556 0
DWIDTH 9 0
BBX 8 9 1 0
BITMAP
46
46
46
46
FF
46
46
7E
7E
ENDCHAR
STARTCHAR uni028A
ENCODING 650
SWIDTH 568 0
DWIDTH 9 0
BBX 9 9 1 0
BITMAP
8100
4200
2600
4200
4300
4180
6300
2200
7E00
ENDCHAR
STARTCHAR uni028B
ENCODING 651
SWIDTH 546 0
DWIDTH 9 0
BBX 7 9 1 0
BITMAP
48
46
46
46
46
42
C4
6E
78
ENDCHAR
STARTCHAR uni028C
ENCODING 652
SWIDTH 500 0
DWIDTH 8 0
BBX 7 9 1 0
BITMAP
30
30
38
38
48
C4
86
C4
86
ENDCHAR
STARTCHAR uni028D
ENCODING 653
SWIDTH 722 0
DWIDTH 12 0
BBX 11 9 1 0
BITMAP
3180
3180
7280
5380
D280
4A40
8C60
CC40
8420
ENDCHAR
STARTCHAR uni028E
ENCODING 654
SWIDTH 500 0
DWIDTH 8 0
BBX 7 12 1 0
BITMAP
18
10
18
30
30
68
38
68
C4
86
C4
86
ENDCHAR
STARTCHAR uni028F
ENCODING 655
SWIDTH 519 0
DWIDTH 8 0
BBX 8 9 0 0
BITMAP
C3
62
32
14
18
18
18
18
18
ENDCHAR
STARTCHAR uni0290
ENCODING 656
SWIDTH 500 0
DWIDTH 8 0
BBX 9 12 1 -3
BITMAP
FE00
0C00
0C00
1800
3000
6000
C000
FE00
FE00
0200
0280
0700
ENDCHAR
STARTCHAR uni0291
ENCODING 657
SWIDTH 541 0
DWIDTH 9 0
BBX 9 10 0 -1
BITMAP
7F00
0600
0600
0C00
1800
3100
6D80
FF00
7E00
1000
ENDCHAR
STARTCHAR uni0292
ENCODING 658
SWIDTH 544 0
DWIDTH 9 0
BBX 8 12 1 -3
BITMAP
7F
06
0C
0C
18
1E
03
03
43
C3
43
3E
ENDCHAR
STARTCHAR uni0293
ENCODING 659
SWIDTH 544 0
DWIDTH 9 0
BBX 8 12 1 -3
BITMAP
FE
06
0C
18
18
0E
06
02
62
7E
66
3F
ENDCHAR
STARTCHAR uni0294
ENCODING 660
SWIDTH 500 0
DWIDTH 8 0
BBX 7 12 1 0
BITMAP
18
FC
8C
04
04
06
0C
3C
20
20
20
20
ENDCHAR
STARTCHAR uni0295
ENCODING 661
SWIDTH 500 0
DWIDTH 8 0
BBX 7 12 1 0
BITMAP
30
7E
C2
40
40
C0
60
78
08
08
08
08
ENDCHAR
STARTCHAR uni0296
ENCODING 662
SWIDTH 500 0
DWIDTH 8 0
BBX 6 12 1 0
BITMAP
20
20
20
20
1C
04
04
04
04
8C
C4
78
ENDCHAR
STARTCHAR uni0297
ENCODING 663
SWIDTH 500 0
DWIDTH 8 0
BBX 6 12 2 -3
BITMAP
10
7C
C4
80
80
80
80
80
80
C4
CC
F8
ENDCHAR
STARTCHAR uni0298
ENCODING 664
SWIDTH 777 0
DWIDTH 12 0
BBX 12 12 1 0
BITMAP
1C00
3F80
60E0
6020
C060
C630
C630
C060
6060
6060
3F80
1F80
ENDCHAR
STARTCHAR uni0299
ENCODING 665
SWIDTH 531 0
DWIDTH 8 0
BBX 8 9 1 0
BITMAP
F8
5C
46
44
7C
42
43
7E
F0
ENDCHAR
STARTCHAR uni029A
ENCODING 666
SWIDTH 507 0
DWIDTH 8 0
BBX 7 9 2 0
BITMAP
20
F8
CC
C6
74
E6
8C
C8
F8
ENDCHAR
STARTCHAR uni029B
ENCODING 667
SWIDTH 558 0
DWIDTH 9 0
BBX 10 10 1 0
BITMAP
0040
0900
3E00
6200
4000
4F00
CF00
6200
3200
1F00
ENDCHAR
STARTCHAR uni029C
ENCODING 668
SWIDTH 552 0
DWIDTH 9 0
BBX 7 9 1 0
BITMAP
46
46
46
46
FE
46
46
46
46
ENDCHAR
STARTCHAR uni029D
ENCODING 669
SWIDTH 397 0
DWIDTH 6 0
BBX 7 15 0 -3
BITMAP
04
04
00
04
04
04
04
04
04
04
04
7E
C4
D8
78
ENDCHAR
STARTCHAR uni029E
ENCODING 670
SWIDTH 500 0
DWIDTH 8 0
BBX 7 12 1 -3
BITMAP
C6
C6
66
66
3C
1E
36
66
C6
06
06
06
ENDCHAR
STARTCHAR uni029F
ENCODING 671
SWIDTH 403 0
DWIDTH 6 0
BBX 5 9 1 0
BITMAP
40
40
40
40
40
40
40
F8
F8
ENDCHAR
STARTCHAR uni02A0
ENCODING 672
SWIDTH 556 0
DWIDTH 9 0
BBX 10 15 1 -3
BITMAP
0040
0180
0300
1200
3E00
6300
4200
4100
C200
6300
3300
1F00
0200
0200
0200
ENDCHAR
STARTCHAR uni02A1
ENCODING 673
SWIDTH 500 0
DWIDTH 8 0
BBX 8 12 0 0
BITMAP
0C
7E
46
02
02
03
06
1E
10
FE
10
10
ENDCHAR
STARTCHAR uni02A2
ENCODING 674
SWIDTH 500 0
DWIDTH 8 0
BBX 8 12 1 0
BITMAP
30
7E
C2
40
40
C0
60
78
08
7F
08
08
ENDCHAR
STARTCHAR uni02A3
ENCODING 675
SWIDTH 964 0
DWIDTH 15 0
BBX 15 12 1 0
BITMAP
0200
0200
0200
13FC
3F06
630C
4218
4130
C160
63C0
77FE
3BFE
ENDCHAR
STARTCHAR uni02A4
ENCODING 676
SWIDTH 906 0
DWIDTH 14 0
BBX 14 15 1 -3
BITMAP
0200
0200
0200
13F8
3F18
6330
4260
4160
C138
630C
7704
3904
000C
0308
00F8
ENDCHAR
STARTCHAR uni02A5
ENCODING 677
SWIDTH 1005 0
DWIDTH 16 0
BBX 16 13 1 -1
BITMAP
0200
0200
0200
13FC
3F06
630C
4218
4130
C166
63DB
77FE
39FC
0020
ENDCHAR
STARTCHAR uni02A6
ENCODING 678
SWIDTH 712 0
DWIDTH 11 0
BBX 11 12 0 0
BITMAP
2000
2000
2000
FE00
2FC0
2840
2C00
27C0
2060
2020
3FE0
0F00
ENDCHAR
STARTCHAR uni02A7
ENCODING 679
SWIDTH 429 0
DWIDTH 7 0
BBX 7 15 1 -3
BITMAP
46
4C
58
F8
48
48
48
48
48
48
78
78
08
08
38
ENDCHAR
STARTCHAR uni02A8
ENCODING 680
SWIDTH 718 0
DWIDTH 12 0
BBX 12 12 0 0
BITMAP
2000
2000
2000
F080
23E0
2C30
2400
2400
2460
2FB0
3E60
3FE0
ENDCHAR
STARTCHAR uni02A9
ENCODING 681
SWIDTH 763 0
DWIDTH 12 0
BBX 11 15 1 -3
BITMAP
1000
7000
C000
F980
CFC0
CCC0
D840
D840
D840
D840
D840
D840
0040
0060
01C0
ENDCHAR
STARTCHAR uni02AA
ENCODING 682
SWIDTH 661 0
DWIDTH 11 0
BBX 10 12 1 0
BITMAP
4000
4000
4000
4400
4F80
7100
5800
5F00
4180
40C0
7980
FF00
ENDCHAR
STARTCHAR uni02AB
ENCODING 683
SWIDTH 632 0
DWIDTH 10 0
BBX 9 12 1 0
BITMAP
4000
4000
4000
7F80
4180
4300
4600
4C00
5800
5800
FF80
FF80
ENDCHAR
STARTCHAR uni02AC
ENCODING 684
SWIDTH 485 0
DWIDTH 8 0
BBX 7 12 1 0
BITMAP
92
B4
B4
AC
CC
48
92
B4
B4
AC
CC
48
ENDCHAR
STARTCHAR uni02AD
ENCODING 685
SWIDTH 527 0
DWIDTH 8 0
BBX 8 12 1 0
BITMAP
FE
43
43
43
00
00
00
00
FE
43
43
43
ENDCHAR
STARTCHAR uni02AE
ENCODING 686
SWIDTH 687 0
DWIDTH 11 0
BBX 11 12 0 -3
BITMAP
2060
F060
0860
0860
0860
0860
18C0
0FE0
07C0
0060
0060
0060
ENDCHAR
STARTCHAR uni02AF
ENCODING 687
SWIDTH 687 0
DWIDTH 11 0
BBX 14 12 0 -3
BITMAP
2060
F060
0860
0860
0860
0860
18C0
0FE0
07C0
0040
0078
003C
ENDCHAR
STARTCHAR uni02B0
ENCODING 688
SWIDTH 383 0
DWIDTH 6 0
BBX 5 8 1 4
BITMAP
80
80
90
78
48
88
88
88
ENDCHAR
STARTCHAR uni02B1
ENCODING 689
SWIDTH 383 0
DWIDTH 6 0
BBX 5 8 1 4
BITMAP
20
40
90
78
48
88
88
88
ENDCHAR
STARTCHAR uni02B2
ENCODING 690
SWIDTH 159 0
DWIDTH 3 0
BBX 2 10 1 2
BITMAP
40
00
40
40
40
40
40
40
40
C0
ENDCHAR
STARTCHAR uni02B3
ENCODING 691
SWIDTH 239 0
DWIDTH 4 0
BBX 4 6 1 4
BITMAP
90
60
40
80
80
80
ENDCHAR
STARTCHAR uni02B4
ENCODING 692
SWIDTH 239 0
DWIDTH 4 0
BBX 3 6 1 4
BITMAP
20
20
20
20
40
E0
ENDCHAR
STARTCHAR uni02B5
ENCODING 693
SWIDTH 239 0
DWIDTH 4 0
BBX 4 8 1 2
BITMAP
20
20
20
20
40
E0
20
30
ENDCHAR
STARTCHAR uni02B6
ENCODING 694
SWIDTH 364 0
DWIDTH 6 0
BBX 5 6 1 4
BITMAP
88
88
F0
98
88
F0
ENDCHAR
STARTCHAR uni02B7
ENCODING 695
SWIDTH 480 0
DWIDTH 8 0
BBX 7 6 1 4
BITMAP
92
B2
B2
AC
6C
48
ENDCHAR
STARTCHAR uni02B8
ENCODING 696
SWIDTH 320 0
DWIDTH 5 0
BBX 5 8 1 2
BITMAP
88
90
90
60
60
20
20
C0
ENDCHAR
STARTCHAR uni02B9
ENCODING 697
SWIDTH 190 0
DWIDTH 3 0
BBX 2 4 1 8
BITMAP
C0
C0
C0
40
ENDCHAR
STARTCHAR uni02BA
ENCODING 698
SWIDTH 354 0
DWIDTH 6 0
BBX 5 4 1 8
BITMAP
D8
D8
D0
50
ENDCHAR
STARTCHAR uni02BB
ENCODING 699
SWIDTH 222 0
DWIDTH 4 0
BBX 1 4 2 8
BITMAP
80
80
80
80
ENDCHAR
STARTCHAR uni02BC
ENCODING 700
SWIDTH 222 0
DWIDTH 4 0
BBX 2 4 1 8
BITMAP
C0
C0
40
40
ENDCHAR
STARTCHAR uni02BD
ENCODING 701
SWIDTH 222 0
DWIDTH 4 0
BBX 2 4 1 8
BITMAP
40
40
80
40
ENDCHAR
STARTCHAR uni02BE
ENCODING 702
SWIDTH 333 0
DWIDTH 5 0
BBX 2 3 2 9
BITMAP
80
40
80
ENDCHAR
STARTCHAR uni02BF
ENCODING 703
SWIDTH 333 0
DWIDTH 5 0
BBX 2 3 2 9
BITMAP
40
80
40
ENDCHAR
STARTCHAR uni02C0
ENCODING 704
SWIDTH 348 0
DWIDTH 6 0
BBX 4 8 1 4
BITMAP
40
F0
10
10
10
70
40
40
ENDCHAR
STARTCHAR uni02C1
ENCODING 705
SWIDTH 348 0
DWIDTH 6 0
BBX 5 8 0 4
BITMAP
60
F8
40
80
40
70
10
10
ENDCHAR
STARTCHAR uni02C2
ENCODING 706
SWIDTH 583 0
DWIDTH 9 0
BBX 7 8 2 2
BITMAP
06
0E
70
C0
E0
38
0E
02
ENDCHAR
STARTCHAR uni02C3
ENCODING 707
SWIDTH 583 0
DWIDTH 9 0
BBX 9 8 1 2
BITMAP
4000
7000
1C00
0700
0F80
1C00
E000
8000
ENDCHAR
STARTCHAR uni02C4
ENCODING 708
SWIDTH 583 0
DWIDTH 9 0
BBX 7 8 2 2
BITMAP
30
30
78
48
64
46
C2
86
ENDCHAR
STARTCHAR uni02C5
ENCODING 709
SWIDTH 583 0
DWIDTH 9 0
BBX 8 8 1 2
BITMAP
C3
42
23
32
14
34
18
18
ENDCHAR
STARTCHAR circumflex
ENCODING 710
SWIDTH 333 0
DWIDTH 5 0
BBX 4 2 1 10
BITMAP
E0
D0
ENDCHAR
STARTCHAR caron
ENCODING 711
SWIDTH 333 0
DWIDTH 5 0
BBX 4 2 1 10
BITMAP
F0
E0
ENDCHAR
STARTCHAR uni02C8
ENCODING 712
SWIDTH 333 0
DWIDTH 5 0
BBX 1 3 2 9
BITMAP
80
80
80
ENDCHAR
STARTCHAR uni02C9
ENCODING 713
SWIDTH 333 0
DWIDTH 5 0
BBX 5 1 0 10
BITMAP
F8
ENDCHAR
STARTCHAR uni02CA
ENCODING 714
SWIDTH 333 0
DWIDTH 5 0
BBX 2 2 3 10
BITMAP
C0
C0
ENDCHAR
STARTCHAR uni02CB
ENCODING 715
SWIDTH 333 0
DWIDTH 5 0
BBX 2 2 2 10
BITMAP
C0
C0
ENDCHAR
STARTCHAR uni02CC
ENCODING 716
SWIDTH 333 0
DWIDTH 5 0
BBX 1 3 2 -3
BITMAP
80
80
80
ENDCHAR
STARTCHAR uni02CD
ENCODING 717
SWIDTH 333 0
DWIDTH 5 0
BBX 5 1 0 -2
BITMAP
F8
ENDCHAR
STARTCHAR uni02CE
ENCODING 718
SWIDTH 333 0
DWIDTH 5 0
BBX 3 3 1 -3
BITMAP
C0
60
20
ENDCHAR
STARTCHAR uni02CF
ENCODING 719
SWIDTH 333 0
DWIDTH 5 0
BBX 2 3 3 -3
BITMAP
C0
C0
80
ENDCHAR
STARTCHAR uni02D0
ENCODING 720
SWIDTH 277 0
DWIDTH 4 0
BBX 2 9 1 0
BITMAP
40
40
00
00
00
00
00
40
C0
ENDCHAR
STARTCHAR uni02D1
ENCODING 721
SWIDTH 277 0
DWIDTH 4 0
BBX 1 2 2 7
BITMAP
80
80
ENDCHAR
STARTCHAR uni02D2
ENCODING 722
SWIDTH 333 0
DWIDTH 5 0
BBX 2 3 2 1
BITMAP
80
40
80
ENDCHAR
STARTCHAR uni02D3
ENCODING 723
SWIDTH 333 0
DWIDTH 5 0
BBX 2 3 2 1
BITMAP
40
80
40
ENDCHAR
STARTCHAR uni02D4
ENCODING 724
SWIDTH 333 0
DWIDTH 5 0
BBX 3 2 1 2
BITMAP
40
E0
ENDCHAR
STARTCHAR uni02D5
ENCODING 725
SWIDTH 333 0
DWIDTH 5 0
BBX 1 2 2 2
BITMAP
80
80
ENDCHAR
STARTCHAR uni02D6
ENCODING 726
SWIDTH 333 0
DWIDTH 5 0
BBX 3 2 1 2
BITMAP
E0
40
ENDCHAR
STARTCHAR uni02D7
ENCODING 727
SWIDTH 333 0
DWIDTH 5 0
BBX 5 1 0 3
BITMAP
F8
ENDCHAR
STARTCHAR breve
ENCODING 728
SWIDTH 333 0
DWIDTH 5 0
BBX 5 2 0 10
BITMAP
88
70
ENDCHAR
STARTCHAR dotaccent
ENCODING 729
SWIDTH 333 0
DWIDTH 5 0
BBX 2 2 2 10
BITMAP
C0
C0
ENDCHAR
STARTCHAR ring
ENCODING 730
SWIDTH 333 0
DWIDTH 5 0
BBX 4 3 1 9
BITMAP
60
90
60
ENDCHAR
STARTCHAR ogonek
ENCODING 731
SWIDTH 333 0
DWIDTH 5 0
BBX 3 4 2 -3
BITMAP
40
80
80
E0
ENDCHAR
STARTCHAR tilde
ENCODING 732
SWIDTH 333 0
DWIDTH 5 0
BBX 5 2 1 10
BITMAP
48
F0
ENDCHAR
STARTCHAR hungarumlaut
ENCODING 733
SWIDTH 333 0
DWIDTH 5 0
BBX 6 2 0 10
BITMAP
6C
C8
ENDCHAR
STARTCHAR uni02DE
ENCODING 734
SWIDTH 333 0
DWIDTH 5 0
BBX 4 4 1 3
BITMAP
80
C0
70
70
ENDCHAR
STARTCHAR uni02DF
ENCODING 735
SWIDTH 333 0
DWIDTH 5 0
BBX 6 5 0 7
BITMAP
4C
58
30
38
C8
ENDCHAR
STARTCHAR uni02E0
ENCODING 736
SWIDTH 322 0
DWIDTH 5 0
BBX 4 8 1 2
BITMAP
90
90
90
60
20
20
60
70
ENDCHAR
STARTCHAR uni02E1
ENCODING 737
SWIDTH 157 0
DWIDTH 3 0
BBX 1 8 1 4
BITMAP
80
80
80
80
80
80
80
80
ENDCHAR
STARTCHAR uni02E2
ENCODING 738
SWIDTH 339 0
DWIDTH 5 0
BBX 5 6 0 4
BITMAP
20
38
60
18
88
70
ENDCHAR
STARTCHAR uni02E3
ENCODING 739
SWIDTH 328 0
DWIDTH 5 0
BBX 5 6 0 4
BITMAP
C8
28
30
30
48
48
ENDCHAR
STARTCHAR uni02E4
ENCODING 740
SWIDTH 348 0
DWIDTH 6 0
BBX 5 8 0 4
BITMAP
60
F8
40
80
40
70
10
10
ENDCHAR
STARTCHAR uni02E5
ENCODING 741
SWIDTH 382 0
DWIDTH 6 0
BBX 4 12 1 0
BITMAP
F0
10
10
10
10
10
10
10
10
10
10
10
ENDCHAR
STARTCHAR uni02E6
ENCODING 742
SWIDTH 382 0
DWIDTH 6 0
BBX 4 12 1 0
BITMAP
10
10
10
F0
10
10
10
10
10
10
10
10
ENDCHAR
STARTCHAR uni02E7
ENCODING 743
SWIDTH 382 0
DWIDTH 6 0
BBX 4 12 1 0
BITMAP
10
10
10
10
10
F0
10
10
10
10
10
10
ENDCHAR
STARTCHAR uni02E8
ENCODING 744
SWIDTH 382 0
DWIDTH 6 0
BBX 4 12 1 0
BITMAP
10
10
10
10
10
10
10
10
F0
10
10
10
ENDCHAR
STARTCHAR uni02E9
ENCODING 745
SWIDTH 382 0
DWIDTH 6 0
BBX 4 12 1 0
BITMAP
10
10
10
10
10
10
10
10
10
10
F0
F0
ENDCHAR
STARTCHAR uni02EA
ENCODING 746
SWIDTH 333 0
DWIDTH 5 0
BBX 4 7 1 0
BITMAP
80
80
80
80
80
80
F0
ENDCHAR
STARTCHAR uni02EB
ENCODING 747
SWIDTH 333 0
DWIDTH 5 0
BBX 1 7 1 0
BITMAP
80
80
80
80
80
80
80
ENDCHAR
STARTCHAR uni02EC
ENCODING 748
SWIDTH 333 0
DWIDTH 5 0
BBX 6 3 0 -3
BITMAP
CC
30
30
ENDCHAR
STARTCHAR uni02ED
ENCODING 749
SWIDTH 333 0
DWIDTH 5 0
BBX 5 3 0 10
BITMAP
F8
F8
F8
ENDCHAR
STARTCHAR uni02EE
ENCODING 750
SWIDTH 333 0
DWIDTH 5 0
BBX 5 4 1 8
BITMAP
D0
D0
48
50
ENDCHAR
STARTCHAR uni02EF
ENCODING 751
SWIDTH 333 0
DWIDTH 5 0
BBX 3 2 2 -2
BITMAP
A0
40
ENDCHAR
STARTCHAR uni02F0
ENCODING 752
SWIDTH 333 0
DWIDTH 5 0
BBX 2 2 2 -2
BITMAP
40
C0
ENDCHAR
STARTCHAR uni02F1
ENCODING 753
SWIDTH 333 0
DWIDTH 5 0
BBX 2 3 3 -3
BITMAP
80
80
40
ENDCHAR
STARTCHAR uni02F2
ENCODING 754
SWIDTH 333 0
DWIDTH 5 0
BBX 2 3 2 -3
BITMAP
40
40
80
ENDCHAR
STARTCHAR uni02F3
ENCODING 755
SWIDTH 333 0
DWIDTH 5 0
BBX 4 3 1 -3
BITMAP
60
90
60
ENDCHAR
STARTCHAR uni02F4
ENCODING 756
SWIDTH 333 0
DWIDTH 5 0
BBX 2 2 2 2
BITMAP
C0
C0
ENDCHAR
STARTCHAR uni02F5
ENCODING 757
SWIDTH 333 0
DWIDTH 5 0
BBX 5 2 0 2
BITMAP
F0
48
ENDCHAR
STARTCHAR uni02F6
ENCODING 758
SWIDTH 333 0
DWIDTH 5 0
BBX 6 2 0 2
BITMAP
6C
C8
ENDCHAR
STARTCHAR uni02F7
ENCODING 759
SWIDTH 333 0
DWIDTH 5 0
BBX 6 2 0 -3
BITMAP
74
D8
ENDCHAR
STARTCHAR uni02F8
ENCODING 760
SWIDTH 277 0
DWIDTH 4 0
BBX 2 8 1 4
BITMAP
C0
C0
00
00
00
00
00
C0
ENDCHAR
STARTCHAR uni02F9
ENCODING 761
SWIDTH 333 0
DWIDTH 5 0
BBX 3 3 1 9
BITMAP
E0
80
80
ENDCHAR
STARTCHAR uni02FA
ENCODING 762
SWIDTH 333 0
DWIDTH 5 0
BBX 3 3 1 9
BITMAP
E0
20
20
ENDCHAR
STARTCHAR uni02FB
ENCODING 763
SWIDTH 333 0
DWIDTH 5 0
BBX 3 3 1 -3
BITMAP
80
80
E0
ENDCHAR
STARTCHAR uni02FC
ENCODING 764
SWIDTH 333 0
DWIDTH 5 0
BBX 3 3 1 -3
BITMAP
20
20
E0
ENDCHAR
STARTCHAR uni02FD
ENCODING 765
SWIDTH 397 0
DWIDTH 6 0
BBX 6 3 0 -3
BITMAP
44
44
FC
ENDCHAR
STARTCHAR uni02FE
ENCODING 766
SWIDTH 397 0
DWIDTH 6 0
BBX 6 3 0 -3
BITMAP
40
40
FC
ENDCHAR
STARTCHAR uni02FF
ENCODING 767
SWIDTH 333 0
DWIDTH 5 0
BBX 4 5 1 -3
BITMAP
40
80
F0
80
40
ENDCHAR
STARTCHAR gravecomb
ENCODING 768
SWIDTH 0 0
DWIDTH 0 0
BBX 2 2 -3 13
BITMAP
C0
40
ENDCHAR
STARTCHAR acutecomb
ENCODING 769
SWIDTH 0 0
DWIDTH 0 0
BBX 2 2 -2 13
BITMAP
C0
C0
ENDCHAR
STARTCHAR uni0302
ENCODING 770
SWIDTH 0 0
DWIDTH 0 0
BBX 4 2 -1 10
BITMAP
E0
D0
ENDCHAR
STARTCHAR tildecomb
ENCODING 771
SWIDTH 0 0
DWIDTH 0 0
BBX 5 1 -6 13
BITMAP
F8
ENDCHAR
STARTCHAR uni0304
ENCODING 772
SWIDTH 0 0
DWIDTH 0 0
BBX 5 1 -2 10
BITMAP
F8
ENDCHAR
STARTCHAR uni0305
ENCODING 773
SWIDTH 0 0
DWIDTH 0 0
BBX 9 1 -4 13
BITMAP
FF80
ENDCHAR
STARTCHAR uni0306
ENCODING 774
SWIDTH 0 0
DWIDTH 0 0
BBX 5 2 -2 10
BITMAP
88
70
ENDCHAR
STARTCHAR uni0307
ENCODING 775
SWIDTH 0 0
DWIDTH 0 0
BBX 2 2 -1 10
BITMAP
C0
C0
ENDCHAR
STARTCHAR uni0308
ENCODING 776
SWIDTH 0 0
DWIDTH 0 0
BBX 4 2 -1 10
BITMAP
90
90
ENDCHAR
STARTCHAR hookabovecomb
ENCODING 777
SWIDTH 0 0
DWIDTH 0 0
BBX 3 3 -3 12
BITMAP
80
20
40
ENDCHAR
STARTCHAR uni030A
ENCODING 778
SWIDTH 0 0
DWIDTH 0 0
BBX 4 3 -1 9
BITMAP
60
90
60
ENDCHAR
STARTCHAR uni030B
ENCODING 779
SWIDTH 0 0
DWIDTH 0 0
BBX 6 2 -3 10
BITMAP
6C
C8
ENDCHAR
STARTCHAR uni030C
ENCODING 780
SWIDTH 0 0
DWIDTH 0 0
BBX 4 2 -1 10
BITMAP
F0
E0
ENDCHAR
STARTCHAR uni030D
ENCODING 781
SWIDTH 0 0
DWIDTH 0 0
BBX 1 3 0 9
BITMAP
80
80
80
ENDCHAR
STARTCHAR uni030E
ENCODING 782
SWIDTH 0 0
DWIDTH 0 0
BBX 3 3 -1 9
BITMAP
A0
A0
A0
ENDCHAR
STARTCHAR uni030F
ENCODING 783
SWIDTH 0 0
DWIDTH 0 0
BBX 4 2 -2 10
BITMAP
F0
50
ENDCHAR
STARTCHAR uni0310
ENCODING 784
SWIDTH 0 0
DWIDTH 0 0
BBX 5 3 -2 10
BITMAP
20
88
70
ENDCHAR
STARTCHAR uni0311
ENCODING 785
SWIDTH 0 0
DWIDTH 0 0
BBX 4 2 -1 10
BITMAP
40
F0
ENDCHAR
STARTCHAR uni0312
ENCODING 786
SWIDTH 0 0
DWIDTH 0 0
BBX 1 4 0 8
BITMAP
80
80
80
80
ENDCHAR
STARTCHAR uni0313
ENCODING 787
SWIDTH 0 0
DWIDTH 0 0
BBX 2 4 -1 8
BITMAP
C0
C0
40
40
ENDCHAR
STARTCHAR uni0314
ENCODING 788
SWIDTH 0 0
DWIDTH 0 0
BBX 2 4 -1 8
BITMAP
40
40
80
40
ENDCHAR
STARTCHAR uni0315
ENCODING 789
SWIDTH 0 0
DWIDTH 0 0
BBX 2 4 0 8
BITMAP
C0
C0
40
40
ENDCHAR
STARTCHAR uni0316
ENCODING 790
SWIDTH 0 0
DWIDTH 0 0
BBX 3 3 -1 -3
BITMAP
C0
60
20
ENDCHAR
STARTCHAR uni0317
ENCODING 791
SWIDTH 0 0
DWIDTH 0 0
BBX 2 3 0 -3
BITMAP
C0
C0
80
ENDCHAR
STARTCHAR uni0318
ENCODING 792
SWIDTH 0 0
DWIDTH 0 0
BBX 3 3 -1 -3
BITMAP
20
E0
20
ENDCHAR
STARTCHAR uni0319
ENCODING 793
SWIDTH 0 0
DWIDTH 0 0
BBX 3 3 -1 -3
BITMAP
80
E0
80
ENDCHAR
STARTCHAR uni031A
ENCODING 794
SWIDTH 0 0
DWIDTH 0 0
BBX 6 3 -3 10
BITMAP
FC
04
04
ENDCHAR
STARTCHAR uni031B
ENCODING 795
SWIDTH 0 0
DWIDTH 0 0
BBX 2 4 1 8
BITMAP
80
80
40
80
ENDCHAR
STARTCHAR uni031C
ENCODING 796
SWIDTH 0 0
DWIDTH 0 0
BBX 2 3 -1 -3
BITMAP
40
80
40
ENDCHAR
STARTCHAR uni031D
ENCODING 797
SWIDTH 0 0
DWIDTH 0 0
BBX 3 3 -1 -3
BITMAP
40
40
E0
ENDCHAR
STARTCHAR uni031E
ENCODING 798
SWIDTH 0 0
DWIDTH 0 0
BBX 3 3 -1 -3
BITMAP
E0
40
40
ENDCHAR
STARTCHAR uni031F
ENCODING 799
SWIDTH 0 0
DWIDTH 0 0
BBX 3 3 -1 -3
BITMAP
40
E0
40
ENDCHAR
STARTCHAR uni0320
ENCODING 800
SWIDTH 0 0
DWIDTH 0 0
BBX 5 1 -2 -2
BITMAP
F8
ENDCHAR
STARTCHAR uni0321
ENCODING 801
SWIDTH 0 0
DWIDTH 0 0
BBX 3 5 -2 -3
BITMAP
20
20
20
20
E0
ENDCHAR
STARTCHAR uni0322
ENCODING 802
SWIDTH 0 0
DWIDTH 0 0
BBX 3 5 1 -3
BITMAP
80
80
80
80
E0
ENDCHAR
STARTCHAR dotbelowcomb
ENCODING 803
SWIDTH 0 0
DWIDTH 0 0
BBX 2 2 -6 -2
BITMAP
C0
C0
ENDCHAR
STARTCHAR uni0324
ENCODING 804
SWIDTH 0 0
DWIDTH 0 0
BBX 4 2 -1 -3
BITMAP
90
90
ENDCHAR
STARTCHAR uni0325
ENCODING 805
SWIDTH 0 0
DWIDTH 0 0
BBX 4 3 -1 -3
BITMAP
60
90
60
ENDCHAR
STARTCHAR uni0326
ENCODING 806
SWIDTH 0 0
DWIDTH 0 0
BBX 2 3 -1 -3
BITMAP
C0
40
40
ENDCHAR
STARTCHAR uni0327
ENCODING 807
SWIDTH 0 0
DWIDTH 0 0
BBX 4 4 -2 -3
BITMAP
20
40
10
E0
ENDCHAR
STARTCHAR uni0328
ENCODING 808
SWIDTH 0 0
DWIDTH 0 0
BBX 3 4 0 -3
BITMAP
40
80
80
E0
ENDCHAR
STARTCHAR uni0329
ENCODING 809
SWIDTH 0 0
DWIDTH 0 0
BBX 1 3 0 -3
BITMAP
80
80
80
ENDCHAR
STARTCHAR uni032A
ENCODING 810
SWIDTH 0 0
DWIDTH 0 0
BBX 6 3 -3 -3
BITMAP
FC
44
44
ENDCHAR
STARTCHAR uni032B
ENCODING 811
SWIDTH 0 0
DWIDTH 0 0
BBX 6 2 -3 -2
BITMAP
94
7C
ENDCHAR
STARTCHAR uni032C
ENCODING 812
SWIDTH 0 0
DWIDTH 0 0
BBX 6 3 -2 -3
BITMAP
CC
30
30
ENDCHAR
STARTCHAR uni032D
ENCODING 813
SWIDTH 0 0
DWIDTH 0 0
BBX 6 3 -2 -3
BITMAP
30
30
CC
ENDCHAR
STARTCHAR uni032E
ENCODING 814
SWIDTH 0 0
DWIDTH 0 0
BBX 5 2 -2 -3
BITMAP
88
30
ENDCHAR
STARTCHAR uni032F
ENCODING 815
SWIDTH 0 0
DWIDTH 0 0
BBX 5 2 -2 -3
BITMAP
20
F8
ENDCHAR
STARTCHAR uni0330
ENCODING 816
SWIDTH 0 0
DWIDTH 0 0
BBX 6 2 -3 -3
BITMAP
74
D8
ENDCHAR
STARTCHAR uni0331
ENCODING 817
SWIDTH 0 0
DWIDTH 0 0
BBX 5 1 -2 -2
BITMAP
F8
ENDCHAR
STARTCHAR uni0332
ENCODING 818
SWIDTH 0 0
DWIDTH 0 0
BBX 9 1 -4 -3
BITMAP
FF80
ENDCHAR
STARTCHAR uni0333
ENCODING 819
SWIDTH 0 0
DWIDTH 0 0
BBX 5 3 -2 -3
BITMAP
F8
00
F8
ENDCHAR
STARTCHAR uni0334
ENCODING 820
SWIDTH 0 0
DWIDTH 0 0
BBX 5 2 -2 2
BITMAP
48
F0
ENDCHAR
STARTCHAR uni0335
ENCODING 821
SWIDTH 0 0
DWIDTH 0 0
BBX 5 1 -2 3
BITMAP
F8
ENDCHAR
STARTCHAR uni0336
ENCODING 822
SWIDTH 0 0
DWIDTH 0 0
BBX 9 1 -4 3
BITMAP
FF80
ENDCHAR
STARTCHAR uni0337
ENCODING 823
SWIDTH 0 0
DWIDTH 0 0
BBX 7 8 -3 0
BITMAP
02
04
08
10
20
40
80
80
ENDCHAR
STARTCHAR uni0338
ENCODING 824
SWIDTH 0 0
DWIDTH 0 0
BBX 4 12 -1 0
BITMAP
10
20
20
20
20
40
60
40
80
80
80
80
ENDCHAR
STARTCHAR uni0339
ENCODING 825
SWIDTH 0 0
DWIDTH 0 0
BBX 2 3 -1 -3
BITMAP
80
40
80
ENDCHAR
STARTCHAR uni033A
ENCODING 826
SWIDTH 0 0
DWIDTH 0 0
BBX 6 3 -3 -3
BITMAP
44
44
FC
ENDCHAR
STARTCHAR uni033B
ENCODING 827
SWIDTH 0 0
DWIDTH 0 0
BBX 4 3 -1 -3
BITMAP
E0
90
E0
ENDCHAR
STARTCHAR uni033C
ENCODING 828
SWIDTH 0 0
DWIDTH 0 0
BBX 4 2 -2 -2
BITMAP
90
F0
ENDCHAR
STARTCHAR uni033D
ENCODING 829
SWIDTH 0 0
DWIDTH 0 0
BBX 3 4 -1 9
BITMAP
A0
C0
E0
A0
ENDCHAR
STARTCHAR uni033E
ENCODING 830
SWIDTH 0 0
DWIDTH 0 0
BBX 3 4 -1 9
BITMAP
20
80
C0
80
ENDCHAR
STARTCHAR uni033F
ENCODING 831
SWIDTH 0 0
DWIDTH 0 0
BBX 9 3 -4 12
BITMAP
FF80
0000
FF80
ENDCHAR
STARTCHAR uni0340
ENCODING 832
SWIDTH 0 0
DWIDTH 0 0
BBX 2 2 -2 10
BITMAP
C0
C0
ENDCHAR
STARTCHAR uni0341
ENCODING 833
SWIDTH 0 0
DWIDTH 0 0
BBX 2 2 1 10
BITMAP
C0
C0
ENDCHAR
STARTCHAR uni0342
ENCODING 834
SWIDTH 0 0
DWIDTH 0 0
BBX 5 2 -2 10
BITMAP
48
F8
ENDCHAR
STARTCHAR uni0343
ENCODING 835
SWIDTH 0 0
DWIDTH 0 0
BBX 2 4 -1 8
BITMAP
C0
C0
40
40
ENDCHAR
STARTCHAR uni0344
ENCODING 836
SWIDTH 0 0
DWIDTH 0 0
BBX 5 2 -2 10
BITMAP
B8
B8
ENDCHAR
STARTCHAR uni0345
ENCODING 837
SWIDTH 0 0
DWIDTH 0 0
BBX 1 3 0 -3
BITMAP
80
80
80
ENDCHAR
STARTCHAR uni0346
ENCODING 838
SWIDTH 0 0
DWIDTH 0 0
BBX 6 3 -3 10
BITMAP
FC
FC
44
ENDCHAR
STARTCHAR uni0347
ENCODING 839
SWIDTH 0 0
DWIDTH 0 0
BBX 8 3 -4 -3
BITMAP
FF
00
FF
ENDCHAR
STARTCHAR uni0348
ENCODING 840
SWIDTH 0 0
DWIDTH 0 0
BBX 3 3 -1 -3
BITMAP
A0
A0
A0
ENDCHAR
STARTCHAR uni0349
ENCODING 841
SWIDTH 0 0
DWIDTH 0 0
BBX 3 3 -1 -3
BITMAP
E0
20
20
ENDCHAR
STARTCHAR uni034A
ENCODING 842
SWIDTH 0 0
DWIDTH 0 0
BBX 5 3 -2 9
BITMAP
68
F0
40
ENDCHAR
STARTCHAR uni034B
ENCODING 843
SWIDTH 0 0
DWIDTH 0 0
BBX 5 5 -2 9
BITMAP
20
48
F8
20
20
ENDCHAR
STARTCHAR uni034C
ENCODING 844
SWIDTH 0 0
DWIDTH 0 0
BBX 5 4 -2 10
BITMAP
48
F8
48
F8
ENDCHAR
STARTCHAR uni034D
ENCODING 845
SWIDTH 0 0
DWIDTH 0 0
BBX 4 3 -2 -3
BITMAP
50
F0
50
ENDCHAR
STARTCHAR uni034E
ENCODING 846
SWIDTH 0 0
DWIDTH 0 0
BBX 2 3 0 -3
BITMAP
C0
80
80
ENDCHAR
STARTCHAR uni034F
ENCODING 847
SWIDTH 0 0
DWIDTH 0 0
BBX 12 12 -6 0
BITMAP
E770
8010
8B10
1080
2040
A050
8010
2040
1080
8B10
8010
E770
ENDCHAR
STARTCHAR uni0350
ENCODING 848
SWIDTH 0 0
DWIDTH 0 0
BBX 3 4 -1 9
BITMAP
80
60
C0
80
ENDCHAR
STARTCHAR uni0351
ENCODING 849
SWIDTH 0 0
DWIDTH 0 0
BBX 2 3 -1 9
BITMAP
40
80
40
ENDCHAR
STARTCHAR uni0352
ENCODING 850
SWIDTH 0 0
DWIDTH 0 0
BBX 5 3 -2 10
BITMAP
20
F8
20
ENDCHAR
STARTCHAR uni0353
ENCODING 851
SWIDTH 0 0
DWIDTH 0 0
BBX 4 4 -2 -3
BITMAP
50
E0
60
50
ENDCHAR
STARTCHAR uni0354
ENCODING 852
SWIDTH 0 0
DWIDTH 0 0
BBX 2 3 0 -3
BITMAP
80
80
40
ENDCHAR
STARTCHAR uni0355
ENCODING 853
SWIDTH 0 0
DWIDTH 0 0
BBX 4 3 -1 -3
BITMAP
40
40
80
ENDCHAR
STARTCHAR uni0356
ENCODING 854
SWIDTH 0 0
DWIDTH 0 0
BBX 6 3 -2 -3
BITMAP
48
54
80
ENDCHAR
STARTCHAR uni0357
ENCODING 855
SWIDTH 0 0
DWIDTH 0 0
BBX 2 3 -1 9
BITMAP
80
40
80
ENDCHAR
STARTCHAR uni0358
ENCODING 856
SWIDTH 0 0
DWIDTH 0 0
BBX 1 1 2 10
BITMAP
80
ENDCHAR
STARTCHAR uni0359
ENCODING 857
SWIDTH 0 0
DWIDTH 0 0
BBX 3 3 -1 -3
BITMAP
40
E0
60
ENDCHAR
STARTCHAR uni035A
ENCODING 858
SWIDTH 0 0
DWIDTH 0 0
BBX 6 3 -2 -3
BITMAP
58
94
7C
ENDCHAR
STARTCHAR uni035B
ENCODING 859
SWIDTH 0 0
DWIDTH 0 0
BBX 3 4 -1 9
BITMAP
80
E0
40
40
ENDCHAR
STARTCHAR uni035C
ENCODING 860
SWIDTH 0 0
DWIDTH 0 0
BBX 13 3 -1 -3
BITMAP
8018
3060
0F80
ENDCHAR
STARTCHAR uni035D
ENCODING 861
SWIDTH 0 0
DWIDTH 0 0
BBX 13 3 -1 10
BITMAP
8018
6020
1FC0
ENDCHAR
STARTCHAR uni035E
ENCODING 862
SWIDTH 0 0
DWIDTH 0 0
BBX 9 1 0 11
BITMAP
FF80
ENDCHAR
STARTCHAR uni035F
ENCODING 863
SWIDTH 0 0
DWIDTH 0 0
BBX 9 1 0 -2
BITMAP
FF80
ENDCHAR
STARTCHAR uni0360
ENCODING 864
SWIDTH 0 0
DWIDTH 0 0
BBX 13 2 -1 10
BITMAP
7E08
C1F0
ENDCHAR
STARTCHAR uni0361
ENCODING 865
SWIDTH 0 0
DWIDTH 0 0
BBX 11 3 0 10
BITMAP
0400
7FC0
C020
ENDCHAR
STARTCHAR uni0362
ENCODING 866
SWIDTH 0 0
DWIDTH 0 0
BBX 9 3 -1 -3
BITMAP
0080
FF80
0080
ENDCHAR
STARTCHAR uni0363
ENCODING 867
SWIDTH 0 0
DWIDTH 0 0
BBX 5 6 -3 4
BITMAP
70
C8
08
68
48
78
ENDCHAR
STARTCHAR uni0364
ENCODING 868
SWIDTH 0 0
DWIDTH 0 0
BBX 6 6 -3 4
BITMAP
10
48
7C
80
44
78
ENDCHAR
STARTCHAR uni0365
ENCODING 869
SWIDTH 0 0
DWIDTH 0 0
BBX 1 8 0 4
BITMAP
80
00
80
80
80
80
80
80
ENDCHAR
STARTCHAR uni0366
ENCODING 870
SWIDTH 0 0
DWIDTH 0 0
BBX 6 6 -3 4
BITMAP
10
78
44
84
48
70
ENDCHAR
STARTCHAR uni0367
ENCODING 871
SWIDTH 0 0
DWIDTH 0 0
BBX 5 6 -2 4
BITMAP
88
88
88
88
58
F8
ENDCHAR
STARTCHAR uni0368
ENCODING 872
SWIDTH 0 0
DWIDTH 0 0
BBX 5 6 -2 4
BITMAP
60
F8
40
80
48
70
ENDCHAR
STARTCHAR uni0369
ENCODING 873
SWIDTH 0 0
DWIDTH 0 0
BBX 6 8 -2 4
BITMAP
08
08
28
7C
48
88
48
7C
ENDCHAR
STARTCHAR uni036A
ENCODING 874
SWIDTH 0 0
DWIDTH 0 0
BBX 5 8 -2 4
BITMAP
80
80
90
78
48
88
88
88
ENDCHAR
STARTCHAR uni036B
ENCODING 875
SWIDTH 0 0
DWIDTH 0 0
BBX 8 6 -4 4
BITMAP
92
FF
49
89
89
89
ENDCHAR
STARTCHAR uni036C
ENCODING 876
SWIDTH 0 0
DWIDTH 0 0
BBX 4 6 -1 4
BITMAP
90
60
40
80
80
80
ENDCHAR
STARTCHAR uni036D
ENCODING 877
SWIDTH 0 0
DWIDTH 0 0
BBX 3 8 -1 4
BITMAP
40
40
E0
40
40
40
40
60
ENDCHAR
STARTCHAR uni036E
ENCODING 878
SWIDTH 0 0
DWIDTH 0 0
BBX 5 6 -2 4
BITMAP
88
90
90
60
60
20
ENDCHAR
STARTCHAR uni036F
ENCODING 879
SWIDTH 0 0
DWIDTH 0 0
BBX 5 6 -3 4
BITMAP
C8
28
30
30
48
48
ENDCHAR
STARTCHAR uni0370
ENCODING 880
SWIDTH 577 0
DWIDTH 9 0
BBX 8 12 1 0
BITMAP
C0
C0
C0
C0
C0
7F
C0
C0
C0
C0
C0
C0
ENDCHAR
STARTCHAR uni0371
ENCODING 881
SWIDTH 475 0
DWIDTH 8 0
BBX 6 9 1 0
BITMAP
80
C0
40
40
7C
40
40
40
40
ENDCHAR
STARTCHAR uni0372
ENCODING 882
SWIDTH 610 0
DWIDTH 10 0
BBX 10 12 0 0
BITMAP
7FC0
CCC0
CCC0
CCC0
CCC0
0C00
0C00
0C00
0C00
0C00
0C00
0C00
ENDCHAR
STARTCHAR uni0373
ENCODING 883
SWIDTH 458 0
DWIDTH 7 0
BBX 8 12 0 0
BITMAP
7E
D3
53
10
10
10
10
10
10
10
10
10
ENDCHAR
STARTCHAR uni0374
ENCODING 884
SWIDTH 333 0
DWIDTH 5 0
BBX 2 2 3 10
BITMAP
C0
C0
ENDCHAR
STARTCHAR uni0375
ENCODING 885
SWIDTH 333 0
DWIDTH 5 0
BBX 2 3 2 -3
BITMAP
40
40
C0
ENDCHAR
STARTCHAR uni0376
ENCODING 886
SWIDTH 718 0
DWIDTH 12 0
BBX 10 12 1 0
BITMAP
40C0
41C0
4380
4380
4680
4C80
4C80
5880
7080
E080
6080
C080
ENDCHAR
STARTCHAR uni0377
ENCODING 887
SWIDTH 583 0
DWIDTH 9 0
BBX 9 9 1 0
BITMAP
4600
4600
4700
5B00
5300
5300
7300
6380
C180
ENDCHAR
STARTCHAR uni037A
ENCODING 890
SWIDTH 333 0
DWIDTH 5 0
BBX 1 3 3 -3
BITMAP
80
80
80
ENDCHAR
STARTCHAR uni037B
ENCODING 891
SWIDTH 500 0
DWIDTH 8 0
BBX 8 9 0 0
BITMAP
30
7C
C3
02
02
42
C3
66
78
ENDCHAR
STARTCHAR uni037C
ENCODING 892
SWIDTH 500 0
DWIDTH 8 0
BBX 8 9 1 0
BITMAP
08
3C
63
58
58
C2
63
22
3E
ENDCHAR
STARTCHAR uni037D
ENCODING 893
SWIDTH 500 0
DWIDTH 8 0
BBX 8 9 0 0
BITMAP
30
7C
C3
1A
1A
42
C3
66
78
ENDCHAR
STARTCHAR semicolon.dup3
ENCODING 894
SWIDTH 277 0
DWIDTH 4 0
BBX 2 11 1 -2
BITMAP
C0
C0
00
00
00
00
00
C0
C0
40
40
ENDCHAR
STARTCHAR uni037F
ENCODING 895
SWIDTH 500 0
DWIDTH 8 0
BBX 7 12 0 0
BITMAP
06
06
06
06
06
06
06
06
46
C6
7C
78
ENDCHAR
STARTCHAR tonos
ENCODING 900
SWIDTH 333 0
DWIDTH 5 0
BBX 2 2 3 10
BITMAP
C0
C0
ENDCHAR
STARTCHAR dieresistonos
ENCODING 901
SWIDTH 333 0
DWIDTH 5 0
BBX 5 2 1 10
BITMAP
B8
B8
ENDCHAR
STARTCHAR Alphatonos
ENCODING 902
SWIDTH 667 0
DWIDTH 11 0
BBX 11 12 0 0
BITMAP
3600
2E00
0E00
1900
1180
1980
1180
3F80
60C0
60C0
6060
C060
ENDCHAR
STARTCHAR anoteleia
ENCODING 903
SWIDTH 277 0
DWIDTH 4 0
BBX 2 2 1 7
BITMAP
C0
C0
ENDCHAR
STARTCHAR Epsilontonos
ENCODING 904
SWIDTH 784 0
DWIDTH 13 0
BBX 12 12 0 0
BITMAP
DFE0
D800
1800
1800
1800
1FE0
1800
1800
1800
1800
0FF0
0FF0
ENDCHAR
STARTCHAR Etatonos
ENCODING 905
SWIDTH 837 0
DWIDTH 13 0
BBX 12 12 0 0
BITMAP
D830
D830
1830
1830
1830
1FF0
1830
1830
1830
1830
1830
1830
ENDCHAR
STARTCHAR Iotatonos
ENCODING 906
SWIDTH 383 0
DWIDTH 6 0
BBX 5 12 0 0
BITMAP
D8
D8
18
18
18
18
18
18
18
18
18
18
ENDCHAR
STARTCHAR Omicrontonos
ENCODING 908
SWIDTH 774 0
DWIDTH 12 0
BBX 12 12 0 0
BITMAP
C200
FFC0
2040
6030
6030
6030
6030
6030
6060
6060
1FE0
1F00
ENDCHAR
STARTCHAR Upsilontonos
ENCODING 910
SWIDTH 855 0
DWIDTH 14 0
BBX 13 12 0 0
BITMAP
D818
CC18
0630
0660
0260
01C0
0180
0180
0180
0180
0180
0180
ENDCHAR
STARTCHAR Omegatonos
ENCODING 911
SWIDTH 752 0
DWIDTH 12 0
BBX 12 12 0 0
BITMAP
C200
DF80
3060
6060
6060
6030
6060
2020
2040
1880
79F0
79F0
ENDCHAR
STARTCHAR iotadieresistonos
ENCODING 912
SWIDTH 222 0
DWIDTH 4 0
BBX 5 12 0 0
BITMAP
B8
B8
00
60
60
60
60
60
60
60
60
60
ENDCHAR
STARTCHAR Alpha
ENCODING 913
SWIDTH 666 0
DWIDTH 11 0
BBX 11 12 0 0
BITMAP
0600
0E00
0E00
1900
1180
1980
1180
3F80
60C0
60C0
6060
C060
ENDCHAR
STARTCHAR Beta
ENCODING 914
SWIDTH 666 0
DWIDTH 11 0
BBX 9 12 1 0
BITMAP
7E00
CF00
C300
C100
C300
7E00
C300
C180
C180
C180
7F80
7800
ENDCHAR
STARTCHAR Gamma
ENCODING 915
SWIDTH 550 0
DWIDTH 9 0
BBX 8 12 1 0
BITMAP
7F
C0
C0
C0
C0
C0
C0
C0
C0
C0
C0
C0
ENDCHAR
STARTCHAR uni0394
ENCODING 916
SWIDTH 667 0
DWIDTH 11 0
BBX 11 12 0 0
BITMAP
0600
0E00
0E00
1900
1180
1980
3180
30C0
60C0
60C0
7FE0
FFE0
ENDCHAR
STARTCHAR Epsilon
ENCODING 917
SWIDTH 666 0
DWIDTH 11 0
BBX 9 12 1 0
BITMAP
7F80
C000
C000
C000
C000
FF00
C000
C000
C000
C000
7F80
7F80
ENDCHAR
STARTCHAR Zeta
ENCODING 918
SWIDTH 610 0
DWIDTH 10 0
BBX 9 12 0 0
BITMAP
7F80
0180
0180
0300
0600
0C00
1800
1800
3000
6000
FF80
FF80
ENDCHAR
STARTCHAR Eta
ENCODING 919
SWIDTH 722 0
DWIDTH 12 0
BBX 10 12 1 0
BITMAP
C0C0
C0C0
C0C0
C0C0
C0C0
FF80
C0C0
C0C0
C0C0
C0C0
C0C0
C0C0
ENDCHAR
STARTCHAR Theta
ENCODING 920
SWIDTH 777 0
DWIDTH 12 0
BBX 12 12 1 0
BITMAP
0400
3FC0
2040
6060
C060
DF30
C030
C060
6060
6060
1FC0
1F00
ENDCHAR
STARTCHAR Iota
ENCODING 921
SWIDTH 277 0
DWIDTH 4 0
BBX 2 12 1 0
BITMAP
C0
C0
C0
C0
C0
C0
C0
C0
C0
C0
C0
C0
ENDCHAR
STARTCHAR Kappa
ENCODING 922
SWIDTH 666 0
DWIDTH 11 0
BBX 10 12 1 0
BITMAP
C180
C300
C600
CC00
D800
F800
EC00
C600
C300
C300
C180
C0C0
ENDCHAR
STARTCHAR Lambda
ENCODING 923
SWIDTH 667 0
DWIDTH 11 0
BBX 11 12 0 0
BITMAP
0600
0600
0A00
1900
1300
1900
1080
20C0
60C0
20C0
6060
C060
ENDCHAR
STARTCHAR Mu
ENCODING 924
SWIDTH 833 0
DWIDTH 13 0
BBX 12 12 1 0
BITMAP
6060
E070
6070
50B0
59B0
50B0
4930
4D30
4930
4630
4630
4430
ENDCHAR
STARTCHAR Nu
ENCODING 925
SWIDTH 722 0
DWIDTH 12 0
BBX 10 12 1 0
BITMAP
C080
6080
7080
7080
5880
4C80
4C80
4680
4380
41C0
4180
40C0
ENDCHAR
STARTCHAR Xi
ENCODING 926
SWIDTH 649 0
DWIDTH 10 0
BBX 9 12 1 0
BITMAP
7F80
0000
0000
0000
0000
7F00
0000
0000
0000
0000
FF80
FF80
ENDCHAR
STARTCHAR Omicron
ENCODING 927
SWIDTH 777 0
DWIDTH 12 0
BBX 12 12 1 0
BITMAP
1C00
3F80
20E0
6020
C060
C030
C030
C060
6060
6060
3F80
1F80
ENDCHAR
STARTCHAR Pi
ENCODING 928
SWIDTH 722 0
DWIDTH 12 0
BBX 10 12 1 0
BITMAP
FF80
C0C0
C0C0
C0C0
C0C0
C0C0
C0C0
C0C0
C0C0
C0C0
C0C0
C0C0
ENDCHAR
STARTCHAR Rho
ENCODING 929
SWIDTH 666 0
DWIDTH 11 0
BBX 9 12 1 0
BITMAP
7E00
C700
C180
C180
C180
C180
FF00
C000
C000
C000
C000
C000
ENDCHAR
STARTCHAR Sigma
ENCODING 931
SWIDTH 618 0
DWIDTH 10 0
BBX 9 12 1 0
BITMAP
FF00
C000
6000
3000
1800
0C00
1800
3000
3000
6000
7F80
7F80
ENDCHAR
STARTCHAR Tau
ENCODING 932
SWIDTH 610 0
DWIDTH 10 0
BBX 9 12 1 0
BITMAP
FF80
1800
1800
1800
1800
1800
1800
1800
1800
1800
1800
1800
ENDCHAR
STARTCHAR Upsilon
ENCODING 933
SWIDTH 666 0
DWIDTH 11 0
BBX 10 12 1 0
BITMAP
C0C0
C180
6300
3300
1600
1C00
0C00
0C00
0C00
0C00
0C00
0C00
ENDCHAR
STARTCHAR Phi
ENCODING 934
SWIDTH 797 0
DWIDTH 13 0
BBX 12 12 1 0
BITMAP
0600
0600
1FE0
6620
C630
C630
C630
6630
6660
3FE0
0600
0600
ENDCHAR
STARTCHAR Chi
ENCODING 935
SWIDTH 666 0
DWIDTH 11 0
BBX 11 12 0 0
BITMAP
6060
30C0
1980
0B00
0E00
0600
0E00
0F00
1980
30C0
60C0
C060
ENDCHAR
STARTCHAR Psi
ENCODING 936
SWIDTH 835 0
DWIDTH 13 0
BBX 12 12 1 0
BITMAP
C630
C630
C630
C630
C630
6630
2620
3FC0
0600
0600
0600
0600
ENDCHAR
STARTCHAR uni03A9
ENCODING 937
SWIDTH 747 0
DWIDTH 12 0
BBX 11 12 1 0
BITMAP
0400
3F80
60C0
4060
C060
C060
C040
4060
2040
3180
79E0
79E0
ENDCHAR
STARTCHAR Iotadieresis
ENCODING 938
SWIDTH 277 0
DWIDTH 4 0
BBX 4 14 1 0
BITMAP
90
00
60
60
60
60
60
60
60
60
60
60
60
60
ENDCHAR
STARTCHAR Upsilondieresis
ENCODING 939
SWIDTH 666 0
DWIDTH 11 0
BBX 10 14 1 0
BITMAP
1200
0000
C0C0
C180
6300
3300
1600
1C00
0C00
0C00
0C00
0C00
0C00
0C00
ENDCHAR
STARTCHAR alphatonos
ENCODING 940
SWIDTH 578 0
DWIDTH 9 0
BBX 8 12 1 0
BITMAP
0C
0C
00
0D
3F
63
C1
C2
C1
63
27
79
ENDCHAR
STARTCHAR epsilontonos
ENCODING 941
SWIDTH 445 0
DWIDTH 7 0
BBX 6 12 1 0
BITMAP
18
18
00
10
3C
C0
60
78
C0
40
6C
70
ENDCHAR
STARTCHAR etatonos
ENCODING 942
SWIDTH 556 0
DWIDTH 9 0
BBX 8 15 1 -3
BITMAP
0C
08
00
48
FC
66
43
43
43
43
43
43
03
03
03
ENDCHAR
STARTCHAR iotatonos
ENCODING 943
SWIDTH 222 0
DWIDTH 4 0
BBX 3 12 1 0
BITMAP
60
60
00
C0
C0
C0
C0
C0
C0
C0
C0
C0
ENDCHAR
STARTCHAR upsilondieresistonos
ENCODING 944
SWIDTH 546 0
DWIDTH 9 0
BBX 7 12 1 0
BITMAP
6C
74
00
46
46
46
46
46
46
C2
66
3E
ENDCHAR
STARTCHAR alpha
ENCODING 945
SWIDTH 578 0
DWIDTH 9 0
BBX 8 9 1 0
BITMAP
0D
3F
63
C1
C2
C1
63
27
79
ENDCHAR
STARTCHAR beta
ENCODING 946
SWIDTH 575 0
DWIDTH 9 0
BBX 8 15 1 -3
BITMAP
30
6E
C6
43
44
58
47
43
41
C2
66
5E
40
40
40
ENDCHAR
STARTCHAR gamma
ENCODING 947
SWIDTH 500 0
DWIDTH 8 0
BBX 8 12 0 -3
BITMAP
C1
62
23
62
24
1C
1C
18
08
08
08
08
ENDCHAR
STARTCHAR delta
ENCODING 948
SWIDTH 556 0
DWIDTH 9 0
BBX 9 12 1 0
BITMAP
7E00
6000
1800
0C00
7E00
6300
C300
4180
4300
6300
2200
1F00
ENDCHAR
STARTCHAR epsilon
ENCODING 949
SWIDTH 445 0
DWIDTH 7 0
BBX 6 9 1 0
BITMAP
10
3C
C0
60
78
C0
40
6C
70
ENDCHAR
STARTCHAR zeta
ENCODING 950
SWIDTH 440 0
DWIDTH 7 0
BBX 7 15 1 -3
BITMAP
3E
06
18
30
30
40
60
40
40
C0
7C
1C
04
0C
1C
ENDCHAR
STARTCHAR eta
ENCODING 951
SWIDTH 556 0
DWIDTH 9 0
BBX 8 12 1 -3
BITMAP
48
FC
66
43
43
43
43
43
43
03
03
03
ENDCHAR
STARTCHAR theta
ENCODING 952
SWIDTH 556 0
DWIDTH 9 0
BBX 8 12 1 0
BITMAP
08
7E
63
C1
41
7F
41
C1
C2
43
36
18
ENDCHAR
STARTCHAR iota
ENCODING 953
SWIDTH 222 0
DWIDTH 4 0
BBX 1 9 2 0
BITMAP
80
80
80
80
80
80
80
80
80
ENDCHAR
STARTCHAR kappa
ENCODING 954
SWIDTH 500 0
DWIDTH 8 0
BBX 8 9 1 0
BITMAP
46
4C
58
70
F0
58
4C
46
43
ENDCHAR
STARTCHAR lambda
ENCODING 955
SWIDTH 500 0
DWIDTH 8 0
BBX 7 12 1 0
BITMAP
20
30
20
30
30
68
38
48
C4
86
C4
86
ENDCHAR
STARTCHAR uni03BC
ENCODING 956
SWIDTH 576 0
DWIDTH 9 0
BBX 8 12 1 -3
BITMAP
46
46
46
46
46
46
C6
FE
7B
40
40
40
ENDCHAR
STARTCHAR nu
ENCODING 957
SWIDTH 500 0
DWIDTH 8 0
BBX 8 9 0 0
BITMAP
C1
62
23
62
24
1C
1C
18
08
ENDCHAR
STARTCHAR xi
ENCODING 958
SWIDTH 447 0
DWIDTH 7 0
BBX 7 15 1 -3
BITMAP
04
20
60
40
3C
10
40
C0
40
60
70
0E
04
06
0C
ENDCHAR
STARTCHAR omicron
ENCODING 959
SWIDTH 556 0
DWIDTH 9 0
BBX 9 9 1 0
BITMAP
0800
7E00
6300
4300
4180
C300
6300
2300
7C00
ENDCHAR
STARTCHAR pi
ENCODING 960
SWIDTH 689 0
DWIDTH 11 0
BBX 10 9 1 0
BITMAP
FFC0
6100
6100
6100
6100
6100
6100
6100
6100
ENDCHAR
STARTCHAR rho
ENCODING 961
SWIDTH 568 0
DWIDTH 9 0
BBX 8 12 1 -3
BITMAP
08
3E
63
41
41
41
C3
62
7C
40
40
40
ENDCHAR
STARTCHAR sigma1
ENCODING 962
SWIDTH 481 0
DWIDTH 8 0
BBX 7 12 1 -3
BITMAP
06
3C
60
40
40
C0
60
70
0E
02
16
3C
ENDCHAR
STARTCHAR sigma
ENCODING 963
SWIDTH 617 0
DWIDTH 10 0
BBX 9 9 1 0
BITMAP
0F80
7E00
6300
4300
4180
C300
6300
2200
7E00
ENDCHAR
STARTCHAR tau
ENCODING 964
SWIDTH 395 0
DWIDTH 6 0
BBX 6 9 0 0
BITMAP
FC
30
30
30
30
30
30
30
30
ENDCHAR
STARTCHAR upsilon
ENCODING 965
SWIDTH 546 0
DWIDTH 9 0
BBX 7 9 1 0
BITMAP
46
46
46
46
46
46
C2
66
3E
ENDCHAR
STARTCHAR phi
ENCODING 966
SWIDTH 648 0
DWIDTH 10 0
BBX 10 12 1 -3
BITMAP
1400
3700
CD80
4480
4480
C4C0
6580
7F00
1F00
0400
0400
0400
ENDCHAR
STARTCHAR chi
ENCODING 967
SWIDTH 524 0
DWIDTH 8 0
BBX 9 12 0 -3
BITMAP
6180
2300
3600
1400
1C00
0C00
0C00
1E00
2200
6300
6300
C180
ENDCHAR
STARTCHAR psi
ENCODING 968
SWIDTH 712 0
DWIDTH 11 0
BBX 10 12 1 -3
BITMAP
4440
4440
4440
4440
4440
4440
C440
64C0
1F80
0400
0400
0400
ENDCHAR
STARTCHAR omega
ENCODING 969
SWIDTH 780 0
DWIDTH 12 0
BBX 12 9 1 0
BITMAP
6060
4020
6230
C220
4220
4220
6630
4E20
70E0
ENDCHAR
STARTCHAR iotadieresis
ENCODING 970
SWIDTH 222 0
DWIDTH 4 0
BBX 4 12 1 0
BITMAP
90
90
00
60
60
60
60
60
60
60
60
60
ENDCHAR
STARTCHAR upsilondieresis
ENCODING 971
SWIDTH 546 0
DWIDTH 9 0
BBX 7 12 1 0
BITMAP
3C
3C
00
46
46
46
46
46
46
C2
66
3E
ENDCHAR
STARTCHAR omicrontonos
ENCODING 972
SWIDTH 556 0
DWIDTH 9 0
BBX 9 12 1 0
BITMAP
0C00
0C00
0000
0800
7E00
6300
4300
4180
C300
6300
2300
7C00
ENDCHAR
STARTCHAR upsilontonos
ENCODING 973
SWIDTH 546 0
DWIDTH 9 0
BBX 7 12 1 0
BITMAP
0C
10
00
46
46
46
46
46
46
C2
66
3E
ENDCHAR
STARTCHAR omegatonos
ENCODING 974
SWIDTH 780 0
DWIDTH 12 0
BBX 12 12 1 0
BITMAP
0300
0600
0000
6060
4020
6230
C220
4220
4220
6630
4E20
70E0
ENDCHAR
STARTCHAR uni03CF
ENCODING 975
SWIDTH 666 0
DWIDTH 11 0
BBX 9 15 1 -3
BITMAP
C180
C300
C600
CC00
D800
F800
EC00
C600
C300
C300
C180
C180
0300
0C00
0400
ENDCHAR
STARTCHAR uni03D0
ENCODING 976
SWIDTH 575 0
DWIDTH 9 0
BBX 8 12 1 0
BITMAP
38
74
62
FC
40
48
FE
63
61
62
22
1E
ENDCHAR
STARTCHAR theta1
ENCODING 977
SWIDTH 546 0
DWIDTH 9 0
BBX 9 12 0 0
BITMAP
0400
1300
1300
1100
1F80
1F80
E100
1180
2300
3200
3E00
1C00
ENDCHAR
STARTCHAR Upsilon1
ENCODING 978
SWIDTH 772 0
DWIDTH 12 0
BBX 11 12 1 0
BITMAP
C080
C1E0
6300
3300
3200
1C00
0C00
0C00
0C00
0C00
0C00
0C00
ENDCHAR
STARTCHAR uni03D3
ENCODING 979
SWIDTH 958 0
DWIDTH 15 0
BBX 14 12 1 0
BITMAP
D810
D83C
0C30
0660
0640
0380
0180
0180
0180
0180
0180
0180
ENDCHAR
STARTCHAR uni03D4
ENCODING 980
SWIDTH 772 0
DWIDTH 12 0
BBX 11 15 1 0
BITMAP
3200
3200
0000
C080
C1E0
6300
3300
3200
1C00
0C00
0C00
0C00
0C00
0C00
0C00
ENDCHAR
STARTCHAR phi1
ENCODING 981
SWIDTH 560 0
DWIDTH 9 0
BBX 9 15 1 -3
BITMAP
1800
1800
1800
3800
7E00
5B00
DB00
5980
DB00
7900
7E00
1C00
1800
1800
1800
ENDCHAR
STARTCHAR omega1
ENCODING 982
SWIDTH 780 0
DWIDTH 12 0
BBX 12 9 1 0
BITMAP
7FF0
4020
6230
C220
4220
4220
6630
6E60
18C0
ENDCHAR
STARTCHAR uni03D7
ENCODING 983
SWIDTH 601 0
DWIDTH 10 0
BBX 9 12 1 -3
BITMAP
4180
6300
2600
2E00
2F00
1B00
3300
6380
C380
0180
0080
0380
ENDCHAR
STARTCHAR uni03D8
ENCODING 984
SWIDTH 777 0
DWIDTH 12 0
BBX 12 15 1 -3
BITMAP
1C00
3F80
60E0
6020
C060
C030
C030
C060
6060
6060
3F80
1F80
0600
0600
0600
ENDCHAR
STARTCHAR uni03D9
ENCODING 985
SWIDTH 556 0
DWIDTH 9 0
BBX 9 12 1 -3
BITMAP
0800
3F00
6300
C300
4180
C300
6300
4200
1C00
1800
1800
1800
ENDCHAR
STARTCHAR uni03DA
ENCODING 986
SWIDTH 722 0
DWIDTH 12 0
BBX 10 12 1 0
BITMAP
0400
3F80
E1C0
C000
4000
4000
6000
6000
3E00
0600
0600
0600
ENDCHAR
STARTCHAR uni03DB
ENCODING 987
SWIDTH 500 0
DWIDTH 8 0
BBX 7 12 1 -3
BITMAP
08
3E
62
40
40
C0
60
38
0C
06
42
3C
ENDCHAR
STARTCHAR uni03DC
ENCODING 988
SWIDTH 610 0
DWIDTH 10 0
BBX 8 12 1 0
BITMAP
FF
C0
C0
C0
C0
FE
C3
C3
C0
C0
C0
C0
ENDCHAR
STARTCHAR uni03DD
ENCODING 989
SWIDTH 403 0
DWIDTH 6 0
BBX 5 12 1 -3
BITMAP
F8
40
40
40
78
48
40
40
40
40
40
40
ENDCHAR
STARTCHAR uni03DE
ENCODING 990
SWIDTH 624 0
DWIDTH 10 0
BBX 9 12 1 0
BITMAP
8000
6000
2000
2300
4700
5D00
7900
7100
4200
0200
0380
0180
ENDCHAR
STARTCHAR uni03DF
ENCODING 991
SWIDTH 529 0
DWIDTH 8 0
BBX 8 12 0 0
BITMAP
30
30
30
20
40
FF
01
03
06
06
06
0C
ENDCHAR
STARTCHAR uni03E0
ENCODING 992
SWIDTH 756 0
DWIDTH 12 0
BBX 12 15 0 -3
BITMAP
0400
2F80
C8C0
48C0
08E0
09E0
0330
0130
0130
0110
0110
0120
0060
07C0
07C0
ENDCHAR
STARTCHAR uni03E1
ENCODING 993
SWIDTH 576 0
DWIDTH 9 0
BBX 9 15 1 -3
BITMAP
C000
7800
0C00
0600
0F00
1B00
0300
0700
1D80
0100
0080
0080
0100
0100
0100
ENDCHAR
STARTCHAR uni03E2
ENCODING 994
SWIDTH 890 0
DWIDTH 14 0
BBX 12 15 1 -3
BITMAP
4630
4630
4630
4630
4630
4630
4630
4630
4630
C630
7FF0
71B0
0030
FFE0
FFE0
ENDCHAR
STARTCHAR uni03E3
ENCODING 995
SWIDTH 833 0
DWIDTH 13 0
BBX 12 12 1 -3
BITMAP
4220
4220
4220
4220
4220
4220
C630
7FF0
73A0
0020
7FE0
FF80
ENDCHAR
STARTCHAR uni03E4
ENCODING 996
SWIDTH 674 0
DWIDTH 11 0
BBX 10 12 1 0
BITMAP
0D80
7180
C180
C180
C180
6180
7F80
1FC0
0180
0180
0180
0180
ENDCHAR
STARTCHAR uni03E5
ENCODING 997
SWIDTH 556 0
DWIDTH 9 0
BBX 8 12 1 0
BITMAP
13
63
43
43
43
43
C6
FE
3B
03
03
03
ENDCHAR
STARTCHAR uni03E6
ENCODING 998
SWIDTH 673 0
DWIDTH 11 0
BBX 9 15 1 -3
BITMAP
C000
C000
C000
C000
C400
FF00
C180
C180
C180
C180
C180
C180
0180
7F00
7C00
ENDCHAR
STARTCHAR uni03E7
ENCODING 999
SWIDTH 500 0
DWIDTH 8 0
BBX 7 10 1 0
BITMAP
02
16
7C
86
FE
06
02
06
E4
B8
ENDCHAR
STARTCHAR uni03E8
ENCODING 1000
SWIDTH 666 0
DWIDTH 11 0
BBX 10 12 1 0
BITMAP
0400
3F80
6380
6180
0100
0700
7880
E0C0
4080
6180
7F00
7F00
ENDCHAR
STARTCHAR uni03E9
ENCODING 1001
SWIDTH 666 0
DWIDTH 11 0
BBX 9 12 1 0
BITMAP
0400
3980
7180
6180
0100
0700
7800
E000
4000
6000
7F80
1F80
ENDCHAR
STARTCHAR uni03EA
ENCODING 1002
SWIDTH 609 0
DWIDTH 10 0
BBX 9 12 1 0
BITMAP
4200
FF80
3400
1800
1800
1800
3400
1600
3200
2600
7E00
7E00
ENDCHAR
STARTCHAR uni03EB
ENCODING 1003
SWIDTH 596 0
DWIDTH 10 0
BBX 8 9 1 0
BITMAP
42
FF
38
18
18
1C
18
3C
3C
ENDCHAR
STARTCHAR uni03EC
ENCODING 1004
SWIDTH 736 0
DWIDTH 12 0
BBX 11 12 1 0
BITMAP
0FC0
3C00
3400
7FC0
FF80
E0C0
C060
C060
6060
60C0
3F80
0F00
ENDCHAR
STARTCHAR uni03ED
ENCODING 1005
SWIDTH 553 0
DWIDTH 9 0
BBX 9 9 1 0
BITMAP
0F00
3C00
6000
DF00
4300
C180
6180
3700
3C00
ENDCHAR
STARTCHAR uni03EE
ENCODING 1006
SWIDTH 463 0
DWIDTH 7 0
BBX 8 12 0 0
BITMAP
18
18
18
1C
DB
59
18
18
18
18
18
18
ENDCHAR
STARTCHAR uni03EF
ENCODING 1007
SWIDTH 409 0
DWIDTH 7 0
BBX 6 12 0 0
BITMAP
10
30
30
FC
B0
30
30
30
30
30
38
08
ENDCHAR
STARTCHAR uni03F0
ENCODING 1008
SWIDTH 601 0
DWIDTH 10 0
BBX 9 9 1 0
BITMAP
4180
6300
2600
2E00
2F00
1B00
3300
6380
C380
ENDCHAR
STARTCHAR uni03F1
ENCODING 1009
SWIDTH 572 0
DWIDTH 9 0
BBX 9 12 1 -3
BITMAP
0800
3C00
6100
C300
C180
C300
6300
7E00
4800
4000
3E00
0F00
ENDCHAR
STARTCHAR uni03F2
ENCODING 1010
SWIDTH 500 0
DWIDTH 8 0
BBX 8 9 1 0
BITMAP
08
3C
63
40
40
C2
63
22
3E
ENDCHAR
STARTCHAR uni03F3
ENCODING 1011
SWIDTH 222 0
DWIDTH 4 0
BBX 5 15 -1 -3
BITMAP
20
20
00
20
20
20
20
20
20
20
20
20
20
20
E0
ENDCHAR
STARTCHAR uni03F4
ENCODING 1012
SWIDTH 777 0
DWIDTH 12 0
BBX 12 12 1 0
BITMAP
0400
3FC0
3040
6060
C060
FFE0
C030
C060
6060
6060
1FC0
1E00
ENDCHAR
STARTCHAR uni03F5
ENCODING 1013
SWIDTH 441 0
DWIDTH 7 0
BBX 5 9 2 0
BITMAP
18
E0
C0
80
F0
80
C0
F8
18
ENDCHAR
STARTCHAR uni03F6
ENCODING 1014
SWIDTH 441 0
DWIDTH 7 0
BBX 7 9 1 0
BITMAP
60
38
0C
06
3E
06
0C
F8
60
ENDCHAR
STARTCHAR uni03F7
ENCODING 1015
SWIDTH 666 0
DWIDTH 11 0
BBX 9 12 1 0
BITMAP
C000
C000
7800
7F00
C380
C180
C180
C180
FF00
C000
C000
C000
ENDCHAR
STARTCHAR uni03F8
ENCODING 1016
SWIDTH 556 0
DWIDTH 9 0
BBX 7 15 1 -3
BITMAP
40
40
40
58
FC
C6
42
42
42
C6
C6
5C
40
40
40
ENDCHAR
STARTCHAR uni03F9
ENCODING 1017
SWIDTH 722 0
DWIDTH 12 0
BBX 11 12 1 0
BITMAP
0400
1F80
61C0
4040
C000
C000
C000
C000
6060
60C0
3F80
1F80
ENDCHAR
STARTCHAR uni03FA
ENCODING 1018
SWIDTH 833 0
DWIDTH 13 0
BBX 12 12 1 0
BITMAP
6060
E0E0
71B0
59B0
4F30
4E30
4030
4030
4030
4030
4030
4030
ENDCHAR
STARTCHAR uni03FB
ENCODING 1019
SWIDTH 687 0
DWIDTH 11 0
BBX 10 12 1 -3
BITMAP
6180
E1C0
61C0
52C0
72C0
54C0
4EC0
4CC0
48C0
4000
4000
4000
ENDCHAR
STARTCHAR uni03FC
ENCODING 1020
SWIDTH 568 0
DWIDTH 9 0
BBX 9 12 0 -3
BITMAP
1C00
3F00
6180
2080
2080
2080
6180
6300
7C00
F800
2000
2000
ENDCHAR
STARTCHAR uni03FD
ENCODING 1021
SWIDTH 722 0
DWIDTH 12 0
BBX 11 12 1 0
BITMAP
0400
3F80
61C0
C040
0060
0060
0060
0060
C0C0
60C0
3F80
3F00
ENDCHAR
STARTCHAR uni03FE
ENCODING 1022
SWIDTH 722 0
DWIDTH 12 0
BBX 11 12 1 0
BITMAP
0400
1F80
70C0
6040
C000
C600
C600
C000
6060
60C0
3F80
0F80
ENDCHAR
STARTCHAR uni03FF
ENCODING 1023
SWIDTH 722 0
DWIDTH 12 0
BBX 11 12 1 0
BITMAP
0400
3F80
61C0
C040
0060
0C60
0C60
0060
C0C0
60C0
3F80
3F00
ENDCHAR
STARTCHAR uni0400
ENCODING 1024
SWIDTH 666 0
DWIDTH 11 0
BBX 9 15 1 0
BITMAP
1800
0C00
0000
7F80
C000
C000
C000
C000
FF00
C000
C000
C000
C000
7F80
7F80
ENDCHAR
STARTCHAR uni0401
ENCODING 1025
SWIDTH 667 0
DWIDTH 11 0
BBX 9 14 1 0
BITMAP
1200
0000
7F80
C000
C000
C000
C000
FF00
C000
C000
C000
C000
7F80
7F80
ENDCHAR
STARTCHAR uni0402
ENCODING 1026
SWIDTH 864 0
DWIDTH 14 0
BBX 12 12 1 0
BITMAP
FF80
1800
1800
1800
1880
1FE0
1830
1830
1830
1830
19E0
19F0
ENDCHAR
STARTCHAR uni0403
ENCODING 1027
SWIDTH 541 0
DWIDTH 9 0
BBX 8 15 1 0
BITMAP
0C
08
00
7F
C0
C0
C0
C0
C0
C0
C0
C0
C0
C0
C0
ENDCHAR
STARTCHAR uni0404
ENCODING 1028
SWIDTH 718 0
DWIDTH 12 0
BBX 10 12 1 0
BITMAP
0400
1F80
60C0
4040
C000
FC00
C000
C000
6040
60C0
7F80
0E00
ENDCHAR
STARTCHAR uni0405
ENCODING 1029
SWIDTH 666 0
DWIDTH 11 0
BBX 9 12 2 0
BITMAP
3E00
7F00
E300
C000
4000
7000
0E00
0300
8100
C180
FF00
3E00
ENDCHAR
STARTCHAR uni0406
ENCODING 1030
SWIDTH 277 0
DWIDTH 4 0
BBX 2 12 1 0
BITMAP
C0
C0
C0
C0
C0
C0
C0
C0
C0
C0
C0
C0
ENDCHAR
STARTCHAR uni0407
ENCODING 1031
SWIDTH 277 0
DWIDTH 4 0
BBX 4 14 1 0
BITMAP
90
00
60
60
60
60
60
60
60
60
60
60
60
60
ENDCHAR
STARTCHAR uni0408
ENCODING 1032
SWIDTH 500 0
DWIDTH 8 0
BBX 7 12 0 0
BITMAP
06
06
06
06
06
06
06
06
46
C6
7C
78
ENDCHAR
STARTCHAR uni0409
ENCODING 1033
SWIDTH 1057 0
DWIDTH 17 0
BBX 17 12 0 0
BITMAP
3F8000
30C000
30C000
30C000
30C000
30FE00
30C700
30C300
10C180
30C180
70FF00
E0F000
ENDCHAR
STARTCHAR uni040A
ENCODING 1034
SWIDTH 1010 0
DWIDTH 16 0
BBX 15 12 1 0
BITMAP
C300
C300
C300
C300
C300
7FF8
C31C
C306
C306
C306
C3FC
C3C0
ENDCHAR
STARTCHAR uni040B
ENCODING 1035
SWIDTH 854 0
DWIDTH 14 0
BBX 12 12 1 0
BITMAP
FF80
1800
1800
1800
1880
1FC0
1830
1830
1830
1830
1830
1830
ENDCHAR
STARTCHAR uni040C
ENCODING 1036
SWIDTH 582 0
DWIDTH 9 0
BBX 9 15 1 0
BITMAP
0C00
1800
0000
C300
C300
C600
C400
D800
7800
F000
DC00
C600
C600
C300
C180
ENDCHAR
STARTCHAR uni040D
ENCODING 1037
SWIDTH 718 0
DWIDTH 12 0
BBX 10 15 1 0
BITMAP
1800
1800
0000
40C0
41C0
4380
4380
4680
4C80
4C80
5880
7080
E080
6080
C080
ENDCHAR
STARTCHAR uni040E
ENCODING 1038
SWIDTH 635 0
DWIDTH 10 0
BBX 11 15 0 0
BITMAP
0900
0F00
0000
C060
2040
30C0
1080
1980
0900
0A00
0600
0400
0C00
3C00
3800
ENDCHAR
STARTCHAR uni040F
ENCODING 1039
SWIDTH 718 0
DWIDTH 12 0
BBX 10 15 1 -3
BITMAP
C0C0
C0C0
C0C0
C0C0
C0C0
C0C0
C0C0
C0C0
C0C0
C0C0
FF80
FF80
0800
0800
0800
ENDCHAR
STARTCHAR uni0410
ENCODING 1040
SWIDTH 666 0
DWIDTH 11 0
BBX 11 12 0 0
BITMAP
0600
0E00
0E00
1900
1180
1980
1180
3F80
60C0
60C0
6060
C060
ENDCHAR
STARTCHAR uni0411
ENCODING 1041
SWIDTH 656 0
DWIDTH 10 0
BBX 9 12 1 0
BITMAP
7F00
C000
C000
C000
C000
FE00
C300
C180
C180
C180
7F80
7800
ENDCHAR
STARTCHAR uni0412
ENCODING 1042
SWIDTH 666 0
DWIDTH 11 0
BBX 9 12 1 0
BITMAP
7E00
CF00
C300
C100
C300
7E00
C300
C180
C180
C180
7F80
7800
ENDCHAR
STARTCHAR uni0413
ENCODING 1043
SWIDTH 541 0
DWIDTH 9 0
BBX 8 12 1 0
BITMAP
7F
C0
C0
C0
C0
C0
C0
C0
C0
C0
C0
C0
ENDCHAR
STARTCHAR uni0414
ENCODING 1044
SWIDTH 677 0
DWIDTH 11 0
BBX 10 14 1 -2
BITMAP
3F80
6180
6180
6180
6180
6180
2180
2180
4180
C180
FFC0
8040
8040
8040
ENDCHAR
STARTCHAR uni0415
ENCODING 1045
SWIDTH 666 0
DWIDTH 11 0
BBX 9 12 1 0
BITMAP
7F80
C000
C000
C000
C000
FF00
C000
C000
C000
C000
7F80
7F80
ENDCHAR
STARTCHAR uni0416
ENCODING 1046
SWIDTH 923 0
DWIDTH 15 0
BBX 15 12 0 0
BITMAP
6186
618E
3198
1190
19B0
0FF0
07E0
1DB8
3198
318C
6186
C186
ENDCHAR
STARTCHAR uni0417
ENCODING 1047
SWIDTH 604 0
DWIDTH 10 0
BBX 8 12 2 0
BITMAP
70
FC
E6
C3
06
1C
1E
03
83
C3
7E
1E
ENDCHAR
STARTCHAR uni0418
ENCODING 1048
SWIDTH 718 0
DWIDTH 12 0
BBX 10 12 1 0
BITMAP
40C0
41C0
4380
4380
4680
4C80
4C80
5880
7080
E080
6080
C080
ENDCHAR
STARTCHAR uni0419
ENCODING 1049
SWIDTH 718 0
DWIDTH 12 0
BBX 10 15 1 0
BITMAP
1200
1E00
0000
40C0
41C0
4380
4380
4680
4C80
4C80
5880
7080
E080
6080
C080
ENDCHAR
STARTCHAR uni041A
ENCODING 1050
SWIDTH 582 0
DWIDTH 9 0
BBX 9 12 1 0
BITMAP
C300
C300
C600
C400
D800
7800
F000
DC00
C600
C600
C300
C180
ENDCHAR
STARTCHAR uni041B
ENCODING 1051
SWIDTH 656 0
DWIDTH 10 0
BBX 10 12 0 0
BITMAP
3F80
30C0
30C0
30C0
30C0
30C0
30C0
30C0
10C0
30C0
70C0
E0C0
ENDCHAR
STARTCHAR uni041C
ENCODING 1052
SWIDTH 833 0
DWIDTH 13 0
BBX 12 12 1 0
BITMAP
6060
E070
6070
50B0
59B0
50B0
4930
4D30
4930
4630
4630
4430
ENDCHAR
STARTCHAR uni041D
ENCODING 1053
SWIDTH 722 0
DWIDTH 12 0
BBX 10 12 1 0
BITMAP
C0C0
C0C0
C0C0
C0C0
C0C0
FF80
C0C0
C0C0
C0C0
C0C0
C0C0
C0C0
ENDCHAR
STARTCHAR uni041E
ENCODING 1054
SWIDTH 777 0
DWIDTH 12 0
BBX 12 12 1 0
BITMAP
1C00
3F80
20E0
6020
C060
C030
C030
C060
6060
6060
3F80
1F80
ENDCHAR
STARTCHAR uni041F
ENCODING 1055
SWIDTH 718 0
DWIDTH 12 0
BBX 10 12 1 0
BITMAP
FF80
C0C0
C0C0
C0C0
C0C0
C0C0
C0C0
C0C0
C0C0
C0C0
C0C0
C0C0
ENDCHAR
STARTCHAR uni0420
ENCODING 1056
SWIDTH 666 0
DWIDTH 11 0
BBX 9 12 1 0
BITMAP
7E00
C700
C180
C180
C180
C180
FF00
C000
C000
C000
C000
C000
ENDCHAR
STARTCHAR uni0421
ENCODING 1057
SWIDTH 722 0
DWIDTH 12 0
BBX 11 12 1 0
BITMAP
0400
1F80
61C0
4040
C000
C000
C000
C000
6060
60C0
3F80
1F80
ENDCHAR
STARTCHAR uni0422
ENCODING 1058
SWIDTH 610 0
DWIDTH 10 0
BBX 9 12 1 0
BITMAP
FF80
1800
1800
1800
1800
1800
1800
1800
1800
1800
1800
1800
ENDCHAR
STARTCHAR uni0423
ENCODING 1059
SWIDTH 635 0
DWIDTH 10 0
BBX 11 12 0 0
BITMAP
C060
2040
30C0
1080
1980
0900
0A00
0600
0400
0C00
3C00
3800
ENDCHAR
STARTCHAR uni0424
ENCODING 1060
SWIDTH 760 0
DWIDTH 12 0
BBX 12 12 1 0
BITMAP
0400
0400
3FC0
3FC0
6470
C430
C430
6460
2460
7FC0
0400
0400
ENDCHAR
STARTCHAR uni0425
ENCODING 1061
SWIDTH 666 0
DWIDTH 11 0
BBX 11 12 0 0
BITMAP
6060
30C0
1980
0B00
0E00
0600
0E00
0F00
1980
30C0
60C0
C060
ENDCHAR
STARTCHAR uni0426
ENCODING 1062
SWIDTH 739 0
DWIDTH 12 0
BBX 10 15 1 -3
BITMAP
C0C0
C0C0
C0C0
C0C0
C0C0
C0C0
C0C0
C0C0
C0C0
C0C0
FFC0
FFC0
0040
0040
0040
ENDCHAR
STARTCHAR uni0427
ENCODING 1063
SWIDTH 666 0
DWIDTH 11 0
BBX 9 12 1 0
BITMAP
C180
C180
C180
C180
C180
6180
FF80
3F80
0180
0180
0180
0180
ENDCHAR
STARTCHAR uni0428
ENCODING 1064
SWIDTH 916 0
DWIDTH 15 0
BBX 13 12 1 0
BITMAP
C318
C318
C318
C318
C318
C318
C318
C318
C318
C318
7FF8
7FF8
ENDCHAR
STARTCHAR uni0429
ENCODING 1065
SWIDTH 937 0
DWIDTH 15 0
BBX 14 15 1 -3
BITMAP
C318
C318
C318
C318
C318
C318
C318
C318
C318
C318
7FFC
7FFC
0008
0008
0008
ENDCHAR
STARTCHAR uni042A
ENCODING 1066
SWIDTH 791 0
DWIDTH 13 0
BBX 13 12 0 0
BITMAP
F800
0C00
0C00
0C00
0C00
0F80
0C30
0C18
0C18
0C30
0FF0
0F80
ENDCHAR
STARTCHAR uni042B
ENCODING 1067
SWIDTH 885 0
DWIDTH 14 0
BBX 12 12 1 0
BITMAP
C030
C030
C030
C030
C030
7830
C330
C1B0
C1B0
C1B0
FF30
7830
ENDCHAR
STARTCHAR uni042C
ENCODING 1068
SWIDTH 656 0
DWIDTH 10 0
BBX 9 12 1 0
BITMAP
C000
C000
C000
C000
C000
FE00
C380
C180
C180
C180
FF00
7800
ENDCHAR
STARTCHAR uni042D
ENCODING 1069
SWIDTH 718 0
DWIDTH 12 0
BBX 10 12 2 0
BITMAP
0800
7E00
C180
8080
00C0
0FC0
00C0
00C0
8180
C180
7F80
1C00
ENDCHAR
STARTCHAR uni042E
ENCODING 1070
SWIDTH 1010 0
DWIDTH 16 0
BBX 15 12 1 0
BITMAP
C040
C7F8
C60C
CC0C
CC06
7C06
7C06
CC06
CC0C
C60C
C7F8
C0E0
ENDCHAR
STARTCHAR uni042F
ENCODING 1071
SWIDTH 722 0
DWIDTH 12 0
BBX 11 12 0 0
BITMAP
1FC0
3C60
3060
6060
6060
3FC0
0E60
0C60
3860
3060
6060
C060
ENDCHAR
STARTCHAR uni0430
ENCODING 1072
SWIDTH 556 0
DWIDTH 9 0
BBX 7 9 2 0
BITMAP
78
FC
C6
04
FC
C4
86
CE
F6
ENDCHAR
STARTCHAR uni0431
ENCODING 1073
SWIDTH 572 0
DWIDTH 9 0
BBX 9 12 1 0
BITMAP
0700
7E00
6000
C800
5E00
6300
C300
C180
C300
6300
2300
3C00
ENDCHAR
STARTCHAR uni0432
ENCODING 1074
SWIDTH 531 0
DWIDTH 8 0
BBX 8 9 1 0
BITMAP
F8
5C
46
44
7C
42
43
7E
F0
ENDCHAR
STARTCHAR uni0433
ENCODING 1075
SWIDTH 364 0
DWIDTH 6 0
BBX 5 9 1 0
BITMAP
F8
40
40
40
40
40
40
40
40
ENDCHAR
STARTCHAR uni0434
ENCODING 1076
SWIDTH 583 0
DWIDTH 9 0
BBX 9 11 0 -2
BITMAP
1F80
1100
1100
1100
2100
2100
2100
FF80
4080
4080
4080
ENDCHAR
STARTCHAR uni0435
ENCODING 1077
SWIDTH 556 0
DWIDTH 9 0
BBX 8 9 1 0
BITMAP
08
7E
63
C3
FF
40
63
23
3E
ENDCHAR
STARTCHAR uni0436
ENCODING 1078
SWIDTH 668 0
DWIDTH 11 0
BBX 11 9 0 0
BITMAP
C420
6440
24C0
3580
0F00
3580
64C0
6460
C460
ENDCHAR
STARTCHAR uni0437
ENCODING 1079
SWIDTH 458 0
DWIDTH 7 0
BBX 6 9 1 0
BITMAP
60
F8
88
0C
38
08
84
CC
78
ENDCHAR
STARTCHAR uni0438
ENCODING 1080
SWIDTH 558 0
DWIDTH 9 0
BBX 8 9 1 0
BITMAP
46
46
47
5B
53
53
73
63
C3
ENDCHAR
STARTCHAR uni0439
ENCODING 1081
SWIDTH 558 0
DWIDTH 9 0
BBX 8 12 1 0
BITMAP
24
1C
00
46
46
47
5B
53
53
73
63
C3
ENDCHAR
STARTCHAR uni043A
ENCODING 1082
SWIDTH 437 0
DWIDTH 7 0
BBX 7 9 1 0
BITMAP
46
4C
58
58
E0
58
4C
4C
46
ENDCHAR
STARTCHAR uni043B
ENCODING 1083
SWIDTH 583 0
DWIDTH 9 0
BBX 8 9 0 0
BITMAP
3F
21
21
21
21
21
21
E1
61
ENDCHAR
STARTCHAR uni043C
ENCODING 1084
SWIDTH 687 0
DWIDTH 11 0
BBX 10 9 1 0
BITMAP
6180
E1C0
61C0
52C0
72C0
54C0
4EC0
4CC0
48C0
ENDCHAR
STARTCHAR uni043D
ENCODING 1085
SWIDTH 552 0
DWIDTH 9 0
BBX 7 9 1 0
BITMAP
46
46
46
46
FE
46
46
46
46
ENDCHAR
STARTCHAR uni043E
ENCODING 1086
SWIDTH 556 0
DWIDTH 9 0
BBX 9 9 1 0
BITMAP
0800
7E00
6300
4300
4180
C300
6300
2300
7C00
ENDCHAR
STARTCHAR uni043F
ENCODING 1087
SWIDTH 541 0
DWIDTH 9 0
BBX 7 9 1 0
BITMAP
FE
46
46
46
46
46
46
46
46
ENDCHAR
STARTCHAR uni0440
ENCODING 1088
SWIDTH 556 0
DWIDTH 9 0
BBX 7 12 1 -3
BITMAP
70
FC
C6
42
42
42
C6
C6
5C
40
40
40
ENDCHAR
STARTCHAR uni0441
ENCODING 1089
SWIDTH 500 0
DWIDTH 8 0
BBX 8 9 1 0
BITMAP
08
3C
63
40
40
C2
63
22
3E
ENDCHAR
STARTCHAR uni0442
ENCODING 1090
SWIDTH 458 0
DWIDTH 7 0
BBX 7 9 0 0
BITMAP
FE
10
10
10
10
10
10
10
10
ENDCHAR
STARTCHAR uni0443
ENCODING 1091
SWIDTH 500 0
DWIDTH 8 0
BBX 8 12 0 -3
BITMAP
C1
62
23
62
24
1C
1C
18
08
08
70
70
ENDCHAR
STARTCHAR uni0444
ENCODING 1092
SWIDTH 822 0
DWIDTH 13 0
BBX 13 15 1 -3
BITMAP
0600
0600
0600
0E80
7FE0
6630
4618
4610
C618
6630
4620
3FC0
0600
0600
0600
ENDCHAR
STARTCHAR uni0445
ENCODING 1093
SWIDTH 500 0
DWIDTH 8 0
BBX 8 9 0 0
BITMAP
63
66
16
1C
18
3C
36
63
C3
ENDCHAR
STARTCHAR uni0446
ENCODING 1094
SWIDTH 572 0
DWIDTH 9 0
BBX 8 11 1 -2
BITMAP
46
46
46
46
46
46
46
FF
FF
03
03
ENDCHAR
STARTCHAR uni0447
ENCODING 1095
SWIDTH 520 0
DWIDTH 8 0
BBX 7 9 1 0
BITMAP
46
46
46
C6
FE
7E
06
06
06
ENDCHAR
STARTCHAR uni0448
ENCODING 1096
SWIDTH 802 0
DWIDTH 13 0
BBX 11 9 1 0
BITMAP
4460
4460
4460
4460
4460
4460
4460
FFE0
FFE0
ENDCHAR
STARTCHAR uni0449
ENCODING 1097
SWIDTH 822 0
DWIDTH 13 0
BBX 11 11 2 -2
BITMAP
88C0
88C0
88C0
88C0
88C0
88C0
88C0
FFE0
FFE0
0020
0020
ENDCHAR
STARTCHAR uni044A
ENCODING 1098
SWIDTH 625 0
DWIDTH 10 0
BBX 10 9 0 0
BITMAP
F000
3000
3000
1C00
1F80
30C0
3080
3F80
1E00
ENDCHAR
STARTCHAR uni044B
ENCODING 1099
SWIDTH 718 0
DWIDTH 12 0
BBX 10 9 1 0
BITMAP
4040
4040
4040
7040
FC40
4640
4340
7E40
7040
ENDCHAR
STARTCHAR uni044C
ENCODING 1100
SWIDTH 520 0
DWIDTH 8 0
BBX 8 9 1 0
BITMAP
40
40
40
70
FC
46
43
7E
70
ENDCHAR
STARTCHAR uni044D
ENCODING 1101
SWIDTH 510 0
DWIDTH 8 0
BBX 8 9 0 0
BITMAP
10
3E
C6
02
1E
42
C3
62
3E
ENDCHAR
STARTCHAR uni044E
ENCODING 1102
SWIDTH 750 0
DWIDTH 12 0
BBX 10 9 2 0
BITMAP
8200
9F00
98C0
B080
F080
B080
98C0
8880
8F80
ENDCHAR
STARTCHAR uni044F
ENCODING 1103
SWIDTH 541 0
DWIDTH 9 0
BBX 8 9 0 0
BITMAP
0F
39
61
41
3F
11
31
61
C1
ENDCHAR
STARTCHAR uni0450
ENCODING 1104
SWIDTH 556 0
DWIDTH 9 0
BBX 8 12 1 0
BITMAP
18
08
00
08
7E
63
C3
FF
40
63
23
3E
ENDCHAR
STARTCHAR uni0451
ENCODING 1105
SWIDTH 556 0
DWIDTH 9 0
BBX 8 12 1 0
BITMAP
24
24
00
08
7E
63
C3
FF
40
63
23
3E
ENDCHAR
STARTCHAR uni0452
ENCODING 1106
SWIDTH 556 0
DWIDTH 9 0
BBX 8 15 1 -3
BITMAP
40
F8
40
50
7E
66
43
43
43
43
43
43
03
06
0E
ENDCHAR
STARTCHAR uni0453
ENCODING 1107
SWIDTH 364 0
DWIDTH 6 0
BBX 5 12 1 0
BITMAP
18
10
00
F8
40
40
40
40
40
40
40
40
ENDCHAR
STARTCHAR uni0454
ENCODING 1108
SWIDTH 510 0
DWIDTH 8 0
BBX 7 9 2 0
BITMAP
10
F8
C4
80
F0
84
C6
8C
F8
ENDCHAR
STARTCHAR uni0455
ENCODING 1109
SWIDTH 500 0
DWIDTH 8 0
BBX 8 9 0 0
BITMAP
1C
7E
C4
60
3E
06
43
42
3C
ENDCHAR
STARTCHAR uni0456
ENCODING 1110
SWIDTH 222 0
DWIDTH 4 0
BBX 1 12 2 0
BITMAP
80
80
00
80
80
80
80
80
80
80
80
80
ENDCHAR
STARTCHAR uni0457
ENCODING 1111
SWIDTH 277 0
DWIDTH 4 0
BBX 4 12 1 0
BITMAP
90
90
00
60
60
60
60
60
60
60
60
60
ENDCHAR
STARTCHAR uni0458
ENCODING 1112
SWIDTH 222 0
DWIDTH 4 0
BBX 5 15 -1 -3
BITMAP
20
20
00
20
20
20
20
20
20
20
20
20
20
20
E0
ENDCHAR
STARTCHAR uni0459
ENCODING 1113
SWIDTH 906 0
DWIDTH 14 0
BBX 14 9 0 0
BITMAP
3F80
2080
2080
20E0
21F8
208C
208C
E0FC
60E0
ENDCHAR
STARTCHAR uni045A
ENCODING 1114
SWIDTH 812 0
DWIDTH 13 0
BBX 11 9 2 0
BITMAP
8800
8800
8800
8800
FFC0
8860
8820
8FC0
8E00
ENDCHAR
STARTCHAR uni045B
ENCODING 1115
SWIDTH 556 0
DWIDTH 9 0
BBX 8 12 1 0
BITMAP
40
F8
40
50
7E
66
43
43
43
43
43
43
ENDCHAR
STARTCHAR uni045C
ENCODING 1116
SWIDTH 437 0
DWIDTH 7 0
BBX 7 12 1 0
BITMAP
18
10
00
46
4C
58
58
E0
58
4C
4C
46
ENDCHAR
STARTCHAR uni045D
ENCODING 1117
SWIDTH 558 0
DWIDTH 9 0
BBX 8 12 1 0
BITMAP
30
18
00
46
46
47
5B
53
53
73
63
C3
ENDCHAR
STARTCHAR uni045E
ENCODING 1118
SWIDTH 500 0
DWIDTH 8 0
BBX 8 15 0 -3
BITMAP
22
3C
00
C1
62
23
62
24
1C
1C
18
08
08
70
70
ENDCHAR
STARTCHAR uni045F
ENCODING 1119
SWIDTH 552 0
DWIDTH 9 0
BBX 7 11 1 -2
BITMAP
46
46
46
46
46
46
46
FE
FE
10
10
ENDCHAR
STARTCHAR uni0460
ENCODING 1120
SWIDTH 1337 0
DWIDTH 21 0
BBX 20 12 1 0
BITMAP
0E0200
3F8FE0
600020
E00030
C00030
C00030
C06030
C06030
606030
606060
3FFFC0
070700
ENDCHAR
STARTCHAR uni0461
ENCODING 1121
SWIDTH 624 0
DWIDTH 10 0
BBX 10 9 0 0
BITMAP
4CC0
CC40
C880
68C0
4C80
2F00
3B80
3300
3200
ENDCHAR
STARTCHAR uni0462
ENCODING 1122
SWIDTH 777 0
DWIDTH 12 0
BBX 12 12 0 0
BITMAP
1800
1800
FF00
1800
1800
1FC0
1870
1810
1830
1830
1FE0
0F00
ENDCHAR
STARTCHAR uni0463
ENCODING 1123
SWIDTH 612 0
DWIDTH 10 0
BBX 9 12 1 0
BITMAP
3000
3000
3000
FC00
3000
3000
3800
3F00
3780
3100
7F00
3C00
ENDCHAR
STARTCHAR uni0464
ENCODING 1124
SWIDTH 949 0
DWIDTH 15 0
BBX 13 12 1 0
BITMAP
C080
C3F0
CC18
C808
D800
FF80
D800
D800
CC08
CC18
CFF0
C1C0
ENDCHAR
STARTCHAR uni0465
ENCODING 1125
SWIDTH 713 0
DWIDTH 11 0
BBX 10 9 2 0
BITMAP
8200
9F00
B0C0
9000
FE00
9080
B0C0
9980
9F00
ENDCHAR
STARTCHAR uni0466
ENCODING 1126
SWIDTH 667 0
DWIDTH 11 0
BBX 11 12 0 0
BITMAP
0600
0600
0A00
1900
1180
1900
3F80
24C0
64C0
24C0
6460
C460
ENDCHAR
STARTCHAR uni0467
ENCODING 1127
SWIDTH 500 0
DWIDTH 8 0
BBX 8 9 1 0
BITMAP
30
30
38
28
44
FC
74
F2
B3
ENDCHAR
STARTCHAR uni0468
ENCODING 1128
SWIDTH 897 0
DWIDTH 14 0
BBX 13 12 1 0
BITMAP
C180
C180
C240
C3C0
C240
C420
FFE0
C930
CD30
C918
D918
F118
ENDCHAR
STARTCHAR uni0469
ENCODING 1129
SWIDTH 695 0
DWIDTH 11 0
BBX 10 9 1 0
BITMAP
4300
4300
4700
4500
4880
FF80
4B80
5BC0
7340
ENDCHAR
STARTCHAR uni046A
ENCODING 1130
SWIDTH 828 0
DWIDTH 13 0
BBX 12 12 1 0
BITMAP
7FE0
3060
30C0
1980
0D80
0700
3FE0
3FF0
6630
C630
C630
C630
ENDCHAR
STARTCHAR uni046B
ENCODING 1131
SWIDTH 685 0
DWIDTH 11 0
BBX 8 9 2 0
BITMAP
7F
66
24
24
1C
FF
D3
91
91
ENDCHAR
STARTCHAR uni046C
ENCODING 1132
SWIDTH 1053 0
DWIDTH 17 0
BBX 15 12 1 0
BITMAP
CFFC
C60C
C318
C330
C1B0
7FE0
7FFC
C7FE
CCC6
D8C6
D8C6
D8C6
ENDCHAR
STARTCHAR uni046D
ENCODING 1133
SWIDTH 867 0
DWIDTH 14 0
BBX 13 9 1 0
BITMAP
4FE0
4C20
4260
4380
FF80
4FF0
5930
5118
5118
ENDCHAR
STARTCHAR uni046E
ENCODING 1134
SWIDTH 604 0
DWIDTH 10 0
BBX 9 18 1 -3
BITMAP
2200
1600
1400
3C00
7E00
6380
C300
0300
0E00
0F00
0300
0180
0180
0F00
3C00
6000
4700
7B00
ENDCHAR
STARTCHAR uni046F
ENCODING 1135
SWIDTH 458 0
DWIDTH 7 0
BBX 6 15 1 -3
BITMAP
44
58
30
70
F8
88
0C
38
0C
04
0C
78
C0
8C
EC
ENDCHAR
STARTCHAR uni0470
ENCODING 1136
SWIDTH 796 0
DWIDTH 13 0
BBX 12 12 0 0
BITMAP
C630
6630
6630
6630
3630
3630
1E60
1F80
0600
0600
0600
0600
ENDCHAR
STARTCHAR uni0471
ENCODING 1137
SWIDTH 688 0
DWIDTH 11 0
BBX 10 12 1 -3
BITMAP
4440
C440
4440
4440
2440
6440
2440
3780
1F00
0400
0400
0400
ENDCHAR
STARTCHAR uni0472
ENCODING 1138
SWIDTH 777 0
DWIDTH 12 0
BBX 12 12 1 0
BITMAP
0400
3FC0
3040
6060
C060
FC30
C3E0
C060
6060
6060
1FC0
1E00
ENDCHAR
STARTCHAR uni0473
ENCODING 1139
SWIDTH 556 0
DWIDTH 9 0
BBX 8 9 1 0
BITMAP
08
3F
63
53
FF
43
63
22
1C
ENDCHAR
STARTCHAR uni0474
ENCODING 1140
SWIDTH 803 0
DWIDTH 13 0
BBX 13 12 0 0
BITMAP
C020
6078
6040
3080
3180
3080
1980
0B00
1A00
0B00
0600
0600
ENDCHAR
STARTCHAR uni0475
ENCODING 1141
SWIDTH 630 0
DWIDTH 10 0
BBX 10 9 0 0
BITMAP
C080
61C0
2300
6200
2400
1C00
1C00
1800
0800
ENDCHAR
STARTCHAR uni0476
ENCODING 1142
SWIDTH 803 0
DWIDTH 13 0
BBX 13 15 0 0
BITMAP
3600
0A00
0000
C020
6078
6040
3080
3180
3080
1980
0B00
1A00
0B00
0600
0600
ENDCHAR
STARTCHAR uni0477
ENCODING 1143
SWIDTH 630 0
DWIDTH 10 0
BBX 10 12 0 0
BITMAP
6C00
2600
0000
C080
61C0
2300
6200
2400
1C00
1C00
1800
0800
ENDCHAR
STARTCHAR uni0478
ENCODING 1144
SWIDTH 1074 0
DWIDTH 17 0
BBX 17 15 1 -3
BITMAP
080000
3F0000
210000
61C100
C1E180
C1B100
C19200
C1B600
619200
418C00
3F0C00
1C0800
000800
003800
003800
ENDCHAR
STARTCHAR uni0479
ENCODING 1145
SWIDTH 896 0
DWIDTH 14 0
BBX 14 12 1 -3
BITMAP
1304
7908
CC8C
4788
4690
C670
6C70
4C60
3060
0020
01C0
01C0
ENDCHAR
STARTCHAR uni047A
ENCODING 1146
SWIDTH 833 0
DWIDTH 13 0
BBX 13 13 0 0
BITMAP
0200
0700
3BF0
7010
E018
C018
C018
C018
C018
6018
6030
3FF0
0780
ENDCHAR
STARTCHAR uni047B
ENCODING 1147
SWIDTH 612 0
DWIDTH 10 0
BBX 10 10 0 0
BITMAP
0400
0E00
7F80
4080
C040
4040
C080
60C0
3F80
0E00
ENDCHAR
STARTCHAR uni047C
ENCODING 1148
SWIDTH 1190 0
DWIDTH 19 0
BBX 18 16 1 0
BITMAP
004000
019000
024600
004000
0E0800
3F3F00
200100
600180
C000C0
C000C0
C000C0
C000C0
6000C0
604180
3FFF80
0FFC00
ENDCHAR
STARTCHAR uni047D
ENCODING 1149
SWIDTH 851 0
DWIDTH 14 0
BBX 13 14 1 0
BITMAP
0200
0780
0BF0
0200
0000
0880
7070
6010
4008
4008
C010
6018
3230
1FE0
ENDCHAR
STARTCHAR uni047E
ENCODING 1150
SWIDTH 1337 0
DWIDTH 21 0
BBX 20 15 1 0
BITMAP
01FC00
012800
000000
0E0200
3F8FE0
600020
E00030
C00030
C00030
C06030
C06030
606030
606060
3FFFC0
070700
ENDCHAR
STARTCHAR uni047F
ENCODING 1151
SWIDTH 624 0
DWIDTH 10 0
BBX 10 11 0 0
BITMAP
3F80
0000
4CC0
CC40
C880
68C0
4C80
2F00
3B80
3300
3200
ENDCHAR
STARTCHAR uni0480
ENCODING 1152
SWIDTH 722 0
DWIDTH 12 0
BBX 10 15 1 -3
BITMAP
0400
1F80
70C0
6040
C000
C000
C000
C000
6000
6000
3C00
1E00
0600
0600
0600
ENDCHAR
STARTCHAR uni0481
ENCODING 1153
SWIDTH 500 0
DWIDTH 8 0
BBX 7 12 1 -3
BITMAP
08
7C
62
40
40
C0
60
78
18
08
08
08
ENDCHAR
STARTCHAR uni0482
ENCODING 1154
SWIDTH 503 0
DWIDTH 8 0
BBX 7 12 1 0
BITMAP
08
0C
08
F0
1E
12
D0
7C
2C
20
20
40
ENDCHAR
STARTCHAR uni0483
ENCODING 1155
SWIDTH 0 0
DWIDTH 0 0
BBX 5 3 -2 9
BITMAP
08
F8
80
ENDCHAR
STARTCHAR uni0484
ENCODING 1156
SWIDTH 0 0
DWIDTH 0 0
BBX 5 2 -2 10
BITMAP
20
C8
ENDCHAR
STARTCHAR uni0485
ENCODING 1157
SWIDTH 0 0
DWIDTH 0 0
BBX 2 3 -1 9
BITMAP
C0
80
C0
ENDCHAR
STARTCHAR uni0486
ENCODING 1158
SWIDTH 0 0
DWIDTH 0 0
BBX 2 3 -1 9
BITMAP
C0
40
40
ENDCHAR
STARTCHAR uni0487
ENCODING 1159
SWIDTH 0 0
DWIDTH 0 0
BBX 8 3 -3 11
BITMAP
20
78
8F
ENDCHAR
STARTCHAR uni0488
ENCODING 1160
SWIDTH 0 0
DWIDTH 0 0
BBX 15 14 -7 -2
BITMAP
0100
0380
2008
701C
0000
0000
4004
E00E
0000
0000
2008
701C
0100
0380
ENDCHAR
STARTCHAR uni0489
ENCODING 1161
SWIDTH 0 0
DWIDTH 0 0
BBX 15 15 -7 -3
BITMAP
0100
0100
200C
3008
1000
0000
0004
E006
0000
0000
1018
1004
0100
0080
0100
ENDCHAR
STARTCHAR uni048A
ENCODING 1162
SWIDTH 718 0
DWIDTH 12 0
BBX 11 18 1 -3
BITMAP
1200
1E00
0000
40C0
41C0
4380
4380
4680
4C80
4C80
5880
7080
E080
60E0
C0C0
00C0
0040
0080
ENDCHAR
STARTCHAR uni048B
ENCODING 1163
SWIDTH 558 0
DWIDTH 9 0
BBX 9 14 1 -2
BITMAP
2400
3800
0000
4600
4600
4700
5B00
5300
5300
7300
6380
C700
0100
0200
ENDCHAR
STARTCHAR uni048C
ENCODING 1164
SWIDTH 656 0
DWIDTH 10 0
BBX 11 12 0 0
BITMAP
3000
3000
F000
3000
3000
7F00
31C0
3040
3060
30C0
3FC0
7C00
ENDCHAR
STARTCHAR uni048D
ENCODING 1165
SWIDTH 520 0
DWIDTH 8 0
BBX 7 12 1 0
BITMAP
40
E0
40
40
40
40
E0
FC
5E
46
7E
70
ENDCHAR
STARTCHAR uni048E
ENCODING 1166
SWIDTH 666 0
DWIDTH 11 0
BBX 10 12 1 0
BITMAP
7E00
C780
C180
C180
C3C0
C180
7FC0
C000
C000
C000
C000
C000
ENDCHAR
STARTCHAR uni048F
ENCODING 1167
SWIDTH 556 0
DWIDTH 9 0
BBX 8 12 1 -3
BITMAP
48
7E
C3
42
42
42
CE
C6
7E
40
40
40
ENDCHAR
STARTCHAR uni0490
ENCODING 1168
SWIDTH 488 0
DWIDTH 8 0
BBX 7 15 1 0
BITMAP
04
04
04
7E
C0
C0
C0
C0
C0
C0
C0
C0
C0
C0
C0
ENDCHAR
STARTCHAR uni0491
ENCODING 1169
SWIDTH 411 0
DWIDTH 7 0
BBX 5 12 1 0
BITMAP
08
08
08
F8
40
40
40
40
40
40
40
40
ENDCHAR
STARTCHAR uni0492
ENCODING 1170
SWIDTH 541 0
DWIDTH 9 0
BBX 9 12 0 0
BITMAP
7F80
3000
3000
3000
3000
FC00
3000
3000
3000
3000
3000
3000
ENDCHAR
STARTCHAR uni0493
ENCODING 1171
SWIDTH 364 0
DWIDTH 6 0
BBX 5 9 1 0
BITMAP
F8
40
40
F0
F0
40
40
40
40
ENDCHAR
STARTCHAR uni0494
ENCODING 1172
SWIDTH 670 0
DWIDTH 11 0
BBX 9 15 1 -3
BITMAP
7F00
C000
C000
C000
C400
FF00
C180
C180
C180
C180
C180
C180
0380
6700
3E00
ENDCHAR
STARTCHAR uni0495
ENCODING 1173
SWIDTH 548 0
DWIDTH 9 0
BBX 8 12 1 -3
BITMAP
F8
40
40
40
70
FC
46
42
42
03
42
3E
ENDCHAR
STARTCHAR uni0496
ENCODING 1174
SWIDTH 923 0
DWIDTH 15 0
BBX 15 15 0 -3
BITMAP
4182
618E
3198
1190
19B0
0FF0
07E0
1DB0
3198
318C
618E
C186
0006
0006
0006
ENDCHAR
STARTCHAR uni0497
ENCODING 1175
SWIDTH 668 0
DWIDTH 11 0
BBX 12 11 0 -2
BITMAP
C420
6440
2480
14C0
0F00
3580
64C0
6460
C460
0030
0030
ENDCHAR
STARTCHAR uni0498
ENCODING 1176
SWIDTH 604 0
DWIDTH 10 0
BBX 8 15 2 -3
BITMAP
70
FC
E6
C3
06
1C
1E
06
83
C3
7E
1E
08
48
70
ENDCHAR
STARTCHAR uni0499
ENCODING 1177
SWIDTH 458 0
DWIDTH 7 0
BBX 6 12 1 -3
BITMAP
60
F8
88
0C
38
0C
84
8C
78
10
90
E0
ENDCHAR
STARTCHAR uni049A
ENCODING 1178
SWIDTH 582 0
DWIDTH 9 0
BBX 9 15 1 -3
BITMAP
C100
C300
C600
C400
D800
F800
F000
CC00
C600
C600
C380
C180
0100
0100
0100
ENDCHAR
STARTCHAR uni049B
ENCODING 1179
SWIDTH 437 0
DWIDTH 7 0
BBX 7 11 1 -2
BITMAP
46
4C
58
58
E0
58
4C
4C
44
04
04
ENDCHAR
STARTCHAR uni049C
ENCODING 1180
SWIDTH 582 0
DWIDTH 9 0
BBX 9 12 1 0
BITMAP
C300
C700
D600
D400
DC00
F800
D000
DC00
D600
D600
C300
C180
ENDCHAR
STARTCHAR uni049D
ENCODING 1181
SWIDTH 437 0
DWIDTH 7 0
BBX 7 9 1 0
BITMAP
46
6C
78
58
E0
58
6C
4C
46
ENDCHAR
STARTCHAR uni049E
ENCODING 1182
SWIDTH 582 0
DWIDTH 9 0
BBX 10 12 0 0
BITMAP
6180
6380
F300
6600
6600
3E00
7800
6700
6300
6180
6180
60C0
ENDCHAR
STARTCHAR uni049F
ENCODING 1183
SWIDTH 437 0
DWIDTH 7 0
BBX 7 12 1 0
BITMAP
40
F8
40
46
4C
58
58
E0
58
4C
4C
46
ENDCHAR
STARTCHAR uni04A0
ENCODING 1184
SWIDTH 741 0
DWIDTH 12 0
BBX 12 12 0 0
BITMAP
F830
0CE0
0CC0
0CC0
0D80
0F80
0E00
0D80
0CC0
0C60
0C60
0C30
ENDCHAR
STARTCHAR uni04A1
ENCODING 1185
SWIDTH 535 0
DWIDTH 9 0
BBX 9 9 0 0
BITMAP
F100
3300
3300
3600
1C00
3600
3300
3300
3180
ENDCHAR
STARTCHAR uni04A2
ENCODING 1186
SWIDTH 722 0
DWIDTH 12 0
BBX 11 15 1 -3
BITMAP
C0C0
C0C0
C0C0
C0C0
C0C0
FF80
C0C0
C0C0
C0C0
C0C0
C0E0
C0E0
0040
0040
0040
ENDCHAR
STARTCHAR uni04A3
ENCODING 1187
SWIDTH 552 0
DWIDTH 9 0
BBX 8 11 1 -2
BITMAP
46
46
46
46
FE
46
46
47
47
03
03
ENDCHAR
STARTCHAR uni04A4
ENCODING 1188
SWIDTH 879 0
DWIDTH 14 0
BBX 13 12 1 0
BITMAP
C0F8
C0C0
C0C0
C0C0
C0C0
FF80
C0C0
C0C0
C0C0
C0C0
C0C0
C0C0
ENDCHAR
STARTCHAR uni04A5
ENCODING 1189
SWIDTH 647 0
DWIDTH 10 0
BBX 10 9 1 0
BITMAP
43C0
4600
4600
4600
FE00
4600
4600
4600
4600
ENDCHAR
STARTCHAR uni04A6
ENCODING 1190
SWIDTH 1136 0
DWIDTH 18 0
BBX 17 15 1 -3
BITMAP
FF8000
C0C000
C0C000
C0C000
C0C800
C0FF00
C0C300
C0C180
C0C180
C0C180
C0C180
C0C180
000700
00EE00
007C00
ENDCHAR
STARTCHAR uni04A7
ENCODING 1191
SWIDTH 870 0
DWIDTH 14 0
BBX 13 12 1 -3
BITMAP
FE00
4600
4600
4600
4380
43F0
4630
4610
4610
0018
0610
01F0
ENDCHAR
STARTCHAR uni04A8
ENCODING 1192
SWIDTH 752 0
DWIDTH 12 0
BBX 12 12 0 0
BITMAP
1C00
3900
23C0
67C0
C6C0
C660
C660
C4C0
66C0
23C0
3FF0
0FF0
ENDCHAR
STARTCHAR uni04A9
ENCODING 1193
SWIDTH 520 0
DWIDTH 8 0
BBX 9 9 0 0
BITMAP
0800
6400
6F00
5B00
4A00
CA00
7B00
4700
1F80
ENDCHAR
STARTCHAR uni04AA
ENCODING 1194
SWIDTH 722 0
DWIDTH 12 0
BBX 11 15 1 -3
BITMAP
0400
1F80
70C0
6040
C000
C000
C000
C000
6060
60C0
3F80
0F80
0200
1200
1C00
ENDCHAR
STARTCHAR uni04AB
ENCODING 1195
SWIDTH 500 0
DWIDTH 8 0
BBX 8 12 1 -3
BITMAP
08
3E
62
40
40
C2
63
36
1E
08
48
38
ENDCHAR
STARTCHAR uni04AC
ENCODING 1196
SWIDTH 610 0
DWIDTH 10 0
BBX 9 15 1 -3
BITMAP
FF80
1800
1800
1800
1800
1800
1800
1800
1800
1800
1C00
1C00
0400
0400
0400
ENDCHAR
STARTCHAR uni04AD
ENCODING 1197
SWIDTH 458 0
DWIDTH 7 0
BBX 7 11 0 -2
BITMAP
FE
10
10
10
10
10
10
18
18
08
08
ENDCHAR
STARTCHAR uni04AE
ENCODING 1198
SWIDTH 556 0
DWIDTH 9 0
BBX 9 12 0 0
BITMAP
C180
6180
3300
3300
1200
1C00
0C00
0800
0800
0800
0800
0800
ENDCHAR
STARTCHAR uni04AF
ENCODING 1199
SWIDTH 500 0
DWIDTH 8 0
BBX 8 12 0 -3
BITMAP
C3
62
23
62
24
16
1C
18
18
18
18
18
ENDCHAR
STARTCHAR uni04B0
ENCODING 1200
SWIDTH 556 0
DWIDTH 9 0
BBX 9 12 0 0
BITMAP
C180
6180
3300
3300
1200
1C00
7F80
0800
0800
0800
0800
0800
ENDCHAR
STARTCHAR uni04B1
ENCODING 1201
SWIDTH 500 0
DWIDTH 8 0
BBX 8 12 0 -3
BITMAP
C3
62
23
62
24
16
1C
18
7E
7E
18
18
ENDCHAR
STARTCHAR uni04B2
ENCODING 1202
SWIDTH 666 0
DWIDTH 11 0
BBX 11 15 0 -3
BITMAP
6060
30C0
1980
0B00
0E00
0600
0E00
0F00
1980
30C0
60E0
C060
0020
0020
0020
ENDCHAR
STARTCHAR uni04B3
ENCODING 1203
SWIDTH 500 0
DWIDTH 8 0
BBX 9 11 0 -2
BITMAP
6300
6600
1600
1C00
1800
3C00
3600
6380
C300
0100
0100
ENDCHAR
STARTCHAR uni04B4
ENCODING 1204
SWIDTH 925 0
DWIDTH 15 0
BBX 14 15 1 -3
BITMAP
FFB0
1830
1830
1830
1830
1830
1830
1830
1830
1830
1FF8
1FF8
000C
000C
000C
ENDCHAR
STARTCHAR uni04B5
ENCODING 1205
SWIDTH 690 0
DWIDTH 11 0
BBX 11 11 0 -2
BITMAP
FE40
1040
1040
1040
1040
1040
1040
1FE0
1FE0
0020
0020
ENDCHAR
STARTCHAR uni04B6
ENCODING 1206
SWIDTH 666 0
DWIDTH 11 0
BBX 11 15 1 -3
BITMAP
C180
C180
C180
C180
C180
6180
FF80
3F80
0180
0180
01C0
01C0
0060
0060
0060
ENDCHAR
STARTCHAR uni04B7
ENCODING 1207
SWIDTH 520 0
DWIDTH 8 0
BBX 9 11 1 -2
BITMAP
4600
4600
4600
4600
FE00
3F00
0600
0700
0700
0180
0180
ENDCHAR
STARTCHAR uni04B8
ENCODING 1208
SWIDTH 666 0
DWIDTH 11 0
BBX 9 12 1 0
BITMAP
C180
C180
C180
C980
C980
6980
FF80
3F80
0980
0980
0180
0180
ENDCHAR
STARTCHAR uni04B9
ENCODING 1209
SWIDTH 520 0
DWIDTH 8 0
BBX 8 9 1 0
BITMAP
46
46
56
56
FE
3F
16
06
06
ENDCHAR
STARTCHAR uni04BA
ENCODING 1210
SWIDTH 666 0
DWIDTH 11 0
BBX 9 12 1 0
BITMAP
C000
C000
C000
C000
C300
7F80
C180
C180
C180
C180
C180
C180
ENDCHAR
STARTCHAR uni04BB
ENCODING 1211
SWIDTH 556 0
DWIDTH 9 0
BBX 8 12 1 0
BITMAP
40
40
40
4C
7E
C6
43
43
43
43
43
43
ENDCHAR
STARTCHAR uni04BC
ENCODING 1212
SWIDTH 861 0
DWIDTH 14 0
BBX 14 12 0 0
BITMAP
0080
0FF0
0818
9818
580C
FFF8
3FFC
1800
1808
0C30
07F0
07E0
ENDCHAR
STARTCHAR uni04BD
ENCODING 1213
SWIDTH 666 0
DWIDTH 11 0
BBX 11 9 0 0
BITMAP
0200
0FC0
58C0
D860
7FC0
3000
1860
0980
1F00
ENDCHAR
STARTCHAR uni04BE
ENCODING 1214
SWIDTH 861 0
DWIDTH 14 0
BBX 14 14 0 -2
BITMAP
0080
0FF0
0818
9818
580C
FFF8
3FFC
1800
1808
0C30
07F0
07E0
0080
0080
ENDCHAR
STARTCHAR uni04BF
ENCODING 1215
SWIDTH 666 0
DWIDTH 11 0
BBX 11 11 0 -2
BITMAP
0200
0FC0
58C0
D860
7FC0
3000
1860
0980
0700
0200
0200
ENDCHAR
STARTCHAR uni04C0
ENCODING 1216
SWIDTH 277 0
DWIDTH 4 0
BBX 2 12 1 0
BITMAP
C0
C0
C0
C0
C0
C0
C0
C0
C0
C0
C0
C0
ENDCHAR
STARTCHAR uni04C1
ENCODING 1217
SWIDTH 923 0
DWIDTH 15 0
BBX 15 15 0 0
BITMAP
0440
03C0
0000
6186
618E
3198
1190
19B0
0FF0
07E0
1DB8
3198
318C
6186
C186
ENDCHAR
STARTCHAR uni04C2
ENCODING 1218
SWIDTH 668 0
DWIDTH 11 0
BBX 11 12 0 0
BITMAP
0900
0E00
0000
C420
6440
24C0
3580
0F00
3580
64C0
6460
C460
ENDCHAR
STARTCHAR uni04C3
ENCODING 1219
SWIDTH 667 0
DWIDTH 11 0
BBX 9 15 1 -3
BITMAP
C300
C700
C600
C400
D800
7800
CF00
C180
C180
C180
C180
C180
0180
6100
3F00
ENDCHAR
STARTCHAR uni04C4
ENCODING 1220
SWIDTH 550 0
DWIDTH 9 0
BBX 6 12 2 -3
BITMAP
8C
98
B0
B0
E0
9C
8C
84
84
0C
84
7C
ENDCHAR
STARTCHAR uni04C5
ENCODING 1221
SWIDTH 656 0
DWIDTH 10 0
BBX 11 15 0 -3
BITMAP
3F80
30C0
30C0
30C0
30C0
30C0
30C0
30C0
10C0
30C0
70E0
E0C0
0060
0040
0080
ENDCHAR
STARTCHAR uni04C6
ENCODING 1222
SWIDTH 583 0
DWIDTH 9 0
BBX 10 11 0 -2
BITMAP
3F00
2100
2100
2100
2100
2100
2100
E1C0
6180
0080
0100
ENDCHAR
STARTCHAR uni04C7
ENCODING 1223
SWIDTH 722 0
DWIDTH 12 0
BBX 10 15 1 -3
BITMAP
C0C0
C0C0
C0C0
C0C0
C0C0
FF80
C0C0
C0C0
C0C0
C0C0
C0C0
C180
0380
6700
3E00
ENDCHAR
STARTCHAR uni04C8
ENCODING 1224
SWIDTH 552 0
DWIDTH 9 0
BBX 7 12 1 -3
BITMAP
46
46
46
46
FE
46
46
46
46
02
46
7C
ENDCHAR
STARTCHAR uni04C9
ENCODING 1225
SWIDTH 722 0
DWIDTH 12 0
BBX 11 15 1 -3
BITMAP
C0C0
C0C0
C0C0
C0C0
C0C0
FF80
C0C0
C0C0
C0C0
C0C0
C0E0
C0E0
00C0
0040
0080
ENDCHAR
STARTCHAR uni04CA
ENCODING 1226
SWIDTH 552 0
DWIDTH 9 0
BBX 9 11 1 -2
BITMAP
4600
4600
4600
4600
FE00
4600
4600
4380
4700
0200
0300
ENDCHAR
STARTCHAR uni04CB
ENCODING 1227
SWIDTH 666 0
DWIDTH 11 0
BBX 9 15 1 -3
BITMAP
C180
C180
C180
C180
C180
6180
FF80
3F80
0180
0180
0380
0380
0100
0100
0100
ENDCHAR
STARTCHAR uni04CC
ENCODING 1228
SWIDTH 520 0
DWIDTH 8 0
BBX 8 11 1 -2
BITMAP
46
46
46
46
FE
3F
06
07
07
0C
0C
ENDCHAR
STARTCHAR uni04CD
ENCODING 1229
SWIDTH 833 0
DWIDTH 13 0
BBX 13 15 1 -3
BITMAP
6060
E070
6070
50B0
59B0
50B0
4930
4D30
4930
4630
4638
4438
0030
0010
0020
ENDCHAR
STARTCHAR uni04CE
ENCODING 1230
SWIDTH 687 0
DWIDTH 11 0
BBX 11 11 1 -2
BITMAP
6180
E1C0
61C0
52C0
72C0
54C0
4EC0
4CE0
49C0
0040
0080
ENDCHAR
STARTCHAR uni04CF
ENCODING 1231
SWIDTH 222 0
DWIDTH 4 0
BBX 1 12 2 0
BITMAP
80
80
80
80
80
80
80
80
80
80
80
80
ENDCHAR
STARTCHAR uni04D0
ENCODING 1232
SWIDTH 666 0
DWIDTH 11 0
BBX 11 15 0 0
BITMAP
1100
0F00
0000
0600
0E00
0E00
1900
1180
1980
1180
3F80
60C0
60C0
6060
C060
ENDCHAR
STARTCHAR uni04D1
ENCODING 1233
SWIDTH 556 0
DWIDTH 9 0
BBX 7 12 2 0
BITMAP
48
38
00
78
FC
C6
04
FC
C4
86
CE
F6
ENDCHAR
STARTCHAR uni04D2
ENCODING 1234
SWIDTH 666 0
DWIDTH 11 0
BBX 11 15 0 0
BITMAP
1900
1900
0000
0600
0E00
0E00
1900
1180
1980
1180
3F80
60C0
60C0
6060
C060
ENDCHAR
STARTCHAR uni04D3
ENCODING 1235
SWIDTH 556 0
DWIDTH 9 0
BBX 7 12 2 0
BITMAP
6C
6C
00
78
FC
C6
04
FC
C4
86
CE
F6
ENDCHAR
STARTCHAR uni04D4
ENCODING 1236
SWIDTH 1000 0
DWIDTH 16 0
BBX 16 12 0 0
BITMAP
03FF
06C0
06C0
0CC0
0CC0
18FE
18C0
1FC0
30C0
60C0
60FE
C0FE
ENDCHAR
STARTCHAR uni04D5
ENCODING 1237
SWIDTH 889 0
DWIDTH 14 0
BBX 13 9 2 0
BITMAP
7980
DFE0
CE30
0410
7FF8
C400
8618
CE20
F1E0
ENDCHAR
STARTCHAR uni04D6
ENCODING 1238
SWIDTH 666 0
DWIDTH 11 0
BBX 9 15 1 0
BITMAP
2200
1E00
0000
7F80
C000
C000
C000
C000
FF00
C000
C000
C000
C000
7F80
7F80
ENDCHAR
STARTCHAR uni04D7
ENCODING 1239
SWIDTH 556 0
DWIDTH 9 0
BBX 8 12 1 0
BITMAP
22
3C
00
08
7E
63
C3
FF
40
63
23
3E
ENDCHAR
STARTCHAR uni018F.dup4
ENCODING 1240
SWIDTH 752 0
DWIDTH 12 0
BBX 11 12 1 0
BITMAP
0400
1F80
60C0
2040
0060
7FE0
C060
C060
6060
60C0
3FC0
0E00
ENDCHAR
STARTCHAR uni0259.dup5
ENCODING 1241
SWIDTH 556 0
DWIDTH 9 0
BBX 8 9 1 0
BITMAP
38
7E
C3
03
FF
41
63
43
1C
ENDCHAR
STARTCHAR uni04DA
ENCODING 1242
SWIDTH 752 0
DWIDTH 12 0
BBX 11 15 1 0
BITMAP
0900
0900
0000
0400
1F80
60C0
2040
0060
7FE0
C060
C060
6060
60C0
3FC0
0E00
ENDCHAR
STARTCHAR uni04DB
ENCODING 1243
SWIDTH 556 0
DWIDTH 9 0
BBX 8 12 1 0
BITMAP
3C
3C
00
38
7E
C3
03
FF
41
63
43
1C
ENDCHAR
STARTCHAR uni04DC
ENCODING 1244
SWIDTH 923 0
DWIDTH 15 0
BBX 15 15 0 0
BITMAP
0640
0640
0000
6186
618E
3198
1190
19B0
0FF0
07E0
1DB8
3198
318C
6186
C186
ENDCHAR
STARTCHAR uni04DD
ENCODING 1245
SWIDTH 668 0
DWIDTH 11 0
BBX 11 12 0 0
BITMAP
1B00
1B00
0000
C420
6440
24C0
3580
0F00
3580
64C0
6460
C460
ENDCHAR
STARTCHAR uni04DE
ENCODING 1246
SWIDTH 604 0
DWIDTH 10 0
BBX 8 15 2 0
BITMAP
6C
6C
00
70
FC
E6
C3
06
1C
1E
03
83
C3
7E
1E
ENDCHAR
STARTCHAR uni04DF
ENCODING 1247
SWIDTH 458 0
DWIDTH 7 0
BBX 6 12 1 0
BITMAP
D8
D8
00
60
F8
88
0C
38
08
84
CC
78
ENDCHAR
STARTCHAR uni04E0
ENCODING 1248
SWIDTH 604 0
DWIDTH 10 0
BBX 9 12 1 0
BITMAP
FF80
0180
0300
0600
0C00
0C00
0700
0180
4180
6180
3F00
1E00
ENDCHAR
STARTCHAR uni04E1
ENCODING 1249
SWIDTH 544 0
DWIDTH 9 0
BBX 8 12 1 -3
BITMAP
7F
06
0C
0C
18
1E
03
03
43
C3
43
3E
ENDCHAR
STARTCHAR uni04E2
ENCODING 1250
SWIDTH 718 0
DWIDTH 12 0
BBX 10 14 1 0
BITMAP
3E00
0000
40C0
41C0
4380
4380
4680
4C80
4C80
5880
7080
E080
6080
C080
ENDCHAR
STARTCHAR uni04E3
ENCODING 1251
SWIDTH 558 0
DWIDTH 9 0
BBX 8 11 1 0
BITMAP
7C
00
46
46
47
5B
53
53
73
63
C3
ENDCHAR
STARTCHAR uni04E4
ENCODING 1252
SWIDTH 718 0
DWIDTH 12 0
BBX 10 15 1 0
BITMAP
1E00
1E00
0000
40C0
41C0
4380
4380
4680
4C80
4C80
5880
7080
E080
6080
C080
ENDCHAR
STARTCHAR uni04E5
ENCODING 1253
SWIDTH 558 0
DWIDTH 9 0
BBX 8 12 1 0
BITMAP
6C
6C
00
46
46
47
5B
53
53
73
63
C3
ENDCHAR
STARTCHAR uni04E6
ENCODING 1254
SWIDTH 777 0
DWIDTH 12 0
BBX 12 15 1 0
BITMAP
0F00
0F00
0000
1C00
3F80
20E0
6020
C060
C030
C030
C060
6060
6060
3F80
1F80
ENDCHAR
STARTCHAR uni04E7
ENCODING 1255
SWIDTH 556 0
DWIDTH 9 0
BBX 9 12 1 0
BITMAP
2400
2400
0000
0800
7E00
6300
4300
4180
C300
6300
2300
7C00
ENDCHAR
STARTCHAR uni04E8
ENCODING 1256
SWIDTH 777 0
DWIDTH 12 0
BBX 12 12 1 0
BITMAP
0400
3FC0
3040
6060
C060
FFE0
C030
C060
6060
6060
1FC0
1E00
ENDCHAR
STARTCHAR uni04E9
ENCODING 1257
SWIDTH 556 0
DWIDTH 9 0
BBX 8 9 1 0
BITMAP
08
3F
63
43
FF
43
63
22
1C
ENDCHAR
STARTCHAR uni04EA
ENCODING 1258
SWIDTH 777 0
DWIDTH 12 0
BBX 12 15 1 0
BITMAP
0F00
0F00
0000
0400
3FC0
3040
6060
C060
FFE0
C030
C060
6060
6060
1FC0
1E00
ENDCHAR
STARTCHAR uni04EB
ENCODING 1259
SWIDTH 556 0
DWIDTH 9 0
BBX 8 12 1 0
BITMAP
24
24
00
08
3F
63
43
FF
43
63
22
1C
ENDCHAR
STARTCHAR uni04EC
ENCODING 1260
SWIDTH 718 0
DWIDTH 12 0
BBX 10 15 2 0
BITMAP
2400
2400
0000
0800
7E00
C180
8080
00C0
0FC0
00C0
00C0
8180
C180
7F80
1C00
ENDCHAR
STARTCHAR uni04ED
ENCODING 1261
SWIDTH 510 0
DWIDTH 8 0
BBX 8 12 0 0
BITMAP
36
36
00
10
3E
C6
02
1E
42
C3
62
3E
ENDCHAR
STARTCHAR uni04EE
ENCODING 1262
SWIDTH 635 0
DWIDTH 10 0
BBX 11 14 0 0
BITMAP
1F00
0000
C060
2040
30C0
1080
1980
0900
0A00
0600
0400
0C00
3C00
3800
ENDCHAR
STARTCHAR uni04EF
ENCODING 1263
SWIDTH 500 0
DWIDTH 8 0
BBX 8 14 0 -3
BITMAP
3E
00
C1
62
23
62
24
1C
1C
18
08
08
70
70
ENDCHAR
STARTCHAR uni04F0
ENCODING 1264
SWIDTH 635 0
DWIDTH 10 0
BBX 11 15 0 0
BITMAP
0900
0900
0000
C060
2040
30C0
1080
1980
0900
0A00
0600
0400
0C00
3C00
3800
ENDCHAR
STARTCHAR uni04F1
ENCODING 1265
SWIDTH 500 0
DWIDTH 8 0
BBX 8 15 0 -3
BITMAP
24
24
00
C1
62
23
62
24
1C
1C
18
08
08
70
70
ENDCHAR
STARTCHAR uni04F2
ENCODING 1266
SWIDTH 635 0
DWIDTH 10 0
BBX 11 15 0 0
BITMAP
0D80
1900
0000
C060
2040
30C0
1080
1980
0900
0A00
0600
0400
0C00
3C00
3800
ENDCHAR
STARTCHAR uni04F3
ENCODING 1267
SWIDTH 500 0
DWIDTH 8 0
BBX 8 15 0 -3
BITMAP
1B
14
00
C1
62
23
62
24
1C
1C
18
08
08
70
70
ENDCHAR
STARTCHAR uni04F4
ENCODING 1268
SWIDTH 666 0
DWIDTH 11 0
BBX 9 15 1 0
BITMAP
3200
3200
0000
C180
C180
C180
C180
C180
6180
FF80
3F80
0180
0180
0180
0180
ENDCHAR
STARTCHAR uni04F5
ENCODING 1269
SWIDTH 520 0
DWIDTH 8 0
BBX 7 12 1 0
BITMAP
6C
6C
00
46
46
46
C6
FE
7E
06
06
06
ENDCHAR
STARTCHAR uni04F6
ENCODING 1270
SWIDTH 541 0
DWIDTH 9 0
BBX 8 15 1 -3
BITMAP
7F
C0
C0
C0
C0
C0
C0
C0
C0
C0
E0
E0
60
60
60
ENDCHAR
STARTCHAR uni04F7
ENCODING 1271
SWIDTH 364 0
DWIDTH 6 0
BBX 5 11 1 -2
BITMAP
F8
40
40
40
40
40
40
60
60
20
20
ENDCHAR
STARTCHAR uni04F8
ENCODING 1272
SWIDTH 885 0
DWIDTH 14 0
BBX 12 15 1 0
BITMAP
0D80
0D80
0000
C030
C030
C030
C030
C030
7830
C330
C1B0
C1B0
C1B0
FF30
7830
ENDCHAR
STARTCHAR uni04F9
ENCODING 1273
SWIDTH 718 0
DWIDTH 12 0
BBX 10 12 1 0
BITMAP
1B00
1B00
0000
4040
4040
4040
7040
FC40
4640
4340
7E40
7040
ENDCHAR
STARTCHAR uni04FA
ENCODING 1274
SWIDTH 541 0
DWIDTH 9 0
BBX 9 15 0 -3
BITMAP
7F80
3000
3000
3000
3000
FC00
3000
3000
3000
3000
7000
7000
3000
1000
7000
ENDCHAR
STARTCHAR uni04FB
ENCODING 1275
SWIDTH 364 0
DWIDTH 6 0
BBX 6 12 0 -3
BITMAP
7C
20
20
78
78
20
20
30
30
20
20
E0
ENDCHAR
STARTCHAR uni04FC
ENCODING 1276
SWIDTH 666 0
DWIDTH 11 0
BBX 11 15 0 -3
BITMAP
6060
30C0
1980
1B00
0E00
0600
0E00
1B00
1980
30C0
60C0
C060
0020
0060
00E0
ENDCHAR
STARTCHAR uni04FD
ENCODING 1277
SWIDTH 500 0
DWIDTH 8 0
BBX 9 12 0 -3
BITMAP
6300
6600
3600
1C00
1800
3C00
3600
6300
C300
0180
0300
0700
ENDCHAR
STARTCHAR uni04FE
ENCODING 1278
SWIDTH 666 0
DWIDTH 11 0
BBX 11 12 0 0
BITMAP
6060
30C0
1980
1B00
0E00
3F80
0E00
1B00
1980
30C0
60C0
C060
ENDCHAR
STARTCHAR uni04FF
ENCODING 1279
SWIDTH 500 0
DWIDTH 8 0
BBX 8 9 0 0
BITMAP
63
66
36
1C
7F
3C
36
63
C3
ENDCHAR
STARTCHAR uni0500
ENCODING 1280
SWIDTH 656 0
DWIDTH 10 0
BBX 9 12 1 0
BITMAP
0180
0180
0180
0180
0180
3F80
7180
6180
C180
6180
7F80
0F80
ENDCHAR
STARTCHAR uni0501
ENCODING 1281
SWIDTH 556 0
DWIDTH 9 0
BBX 8 12 1 0
BITMAP
02
02
02
0E
3F
63
42
41
C1
63
67
39
ENDCHAR
STARTCHAR uni0502
ENCODING 1282
SWIDTH 968 0
DWIDTH 15 0
BBX 15 12 1 0
BITMAP
0180
0180
0180
0180
0180
3F86
7186
6186
C186
61CC
7F8C
083C
ENDCHAR
STARTCHAR uni0503
ENCODING 1283
SWIDTH 876 0
DWIDTH 14 0
BBX 13 12 1 0
BITMAP
0200
0200
0200
1200
3F00
6300
4200
4108
C108
6310
7730
38F0
ENDCHAR
STARTCHAR uni0504
ENCODING 1284
SWIDTH 956 0
DWIDTH 15 0
BBX 14 12 1 0
BITMAP
3800
7E00
E380
C300
0300
0E04
0F04
0304
0184
0188
01D8
0078
ENDCHAR
STARTCHAR uni0505
ENCODING 1285
SWIDTH 815 0
DWIDTH 13 0
BBX 11 9 2 0
BITMAP
6000
F000
8C00
1800
3820
1820
0840
04E0
07C0
ENDCHAR
STARTCHAR uni0506
ENCODING 1286
SWIDTH 662 0
DWIDTH 11 0
BBX 10 15 1 -3
BITMAP
3800
7E00
E380
C300
0300
0E00
0F00
0300
0180
0180
01C0
01C0
0040
0040
0040
ENDCHAR
STARTCHAR uni0507
ENCODING 1287
SWIDTH 509 0
DWIDTH 8 0
BBX 6 11 2 -2
BITMAP
60
F0
8C
18
38
18
08
0C
0C
04
04
ENDCHAR
STARTCHAR uni0508
ENCODING 1288
SWIDTH 970 0
DWIDTH 16 0
BBX 15 12 0 0
BITMAP
3F80
30C0
30C0
30C0
30C0
30C2
30C2
30C2
10C2
30C4
705C
E07C
ENDCHAR
STARTCHAR uni0509
ENCODING 1289
SWIDTH 909 0
DWIDTH 15 0
BBX 14 9 0 0
BITMAP
3F00
2100
2100
2100
2104
2104
2188
E198
6078
ENDCHAR
STARTCHAR uni050A
ENCODING 1290
SWIDTH 1034 0
DWIDTH 17 0
BBX 15 12 1 0
BITMAP
C0C0
C0C0
C0C0
C0C0
C0C0
FF84
C0C4
C0C4
C0C4
C0C6
C04C
C07C
ENDCHAR
STARTCHAR uni050B
ENCODING 1291
SWIDTH 878 0
DWIDTH 14 0
BBX 13 9 1 0
BITMAP
4600
4600
4600
4600
FE18
4618
4330
4330
41E0
ENDCHAR
STARTCHAR uni050C
ENCODING 1292
SWIDTH 777 0
DWIDTH 12 0
BBX 11 12 1 0
BITMAP
0200
3FC0
6060
E040
C000
C000
C3E0
C020
6040
6060
3FC0
0700
ENDCHAR
STARTCHAR uni050D
ENCODING 1293
SWIDTH 558 0
DWIDTH 9 0
BBX 8 9 1 0
BITMAP
08
7E
62
40
4F
CF
62
42
1C
ENDCHAR
STARTCHAR uni050E
ENCODING 1294
SWIDTH 746 0
DWIDTH 12 0
BBX 10 12 1 0
BITMAP
FF80
1800
1800
1800
1800
1840
1840
1840
1840
1840
1980
0FC0
ENDCHAR
STARTCHAR uni050F
ENCODING 1295
SWIDTH 665 0
DWIDTH 11 0
BBX 10 9 0 0
BITMAP
FE00
1000
1000
1000
1040
1040
1880
1980
0780
ENDCHAR
STARTCHAR uni0510
ENCODING 1296
SWIDTH 604 0
DWIDTH 10 0
BBX 9 12 1 0
BITMAP
0800
3F00
6300
4180
2000
3C00
7800
6000
C080
6180
3F00
7C00
ENDCHAR
STARTCHAR uni0511
ENCODING 1297
SWIDTH 458 0
DWIDTH 7 0
BBX 7 9 1 0
BITMAP
10
7C
64
60
78
C0
42
66
38
ENDCHAR
STARTCHAR uni0512
ENCODING 1298
SWIDTH 656 0
DWIDTH 10 0
BBX 10 15 0 -3
BITMAP
3F80
30C0
30C0
30C0
30C0
30C0
30C0
30C0
10C0
30C0
70C0
E0C0
00C0
00C0
0380
ENDCHAR
STARTCHAR uni0513
ENCODING 1299
SWIDTH 583 0
DWIDTH 9 0
BBX 8 12 0 -3
BITMAP
3F
21
21
21
21
21
21
E1
61
01
01
07
ENDCHAR
STARTCHAR uni0514
ENCODING 1300
SWIDTH 959 0
DWIDTH 15 0
BBX 16 12 0 0
BITMAP
1F06
330C
318C
30D8
3070
3060
3070
30D8
1198
330C
7306
E603
ENDCHAR
STARTCHAR uni0515
ENCODING 1301
SWIDTH 760 0
DWIDTH 12 0
BBX 12 9 0 0
BITMAP
3E30
2360
2360
21C0
2180
23C0
2360
E630
6C30
ENDCHAR
STARTCHAR uni0516
ENCODING 1302
SWIDTH 788 0
DWIDTH 13 0
BBX 12 12 1 0
BITMAP
F860
DCC0
C6C0
C380
C300
CE00
FF00
C180
C0C0
C0C0
C060
C030
ENDCHAR
STARTCHAR uni0517
ENCODING 1303
SWIDTH 717 0
DWIDTH 11 0
BBX 11 12 1 -3
BITMAP
5C60
66C0
C380
4300
4300
4380
42C0
66C0
5C60
4000
4000
4000
ENDCHAR
STARTCHAR uni0518
ENCODING 1304
SWIDTH 957 0
DWIDTH 15 0
BBX 15 12 0 0
BITMAP
0FFE
1980
6180
6180
6180
3FFC
0780
1980
3180
3180
60FE
C0FE
ENDCHAR
STARTCHAR uni0519
ENCODING 1305
SWIDTH 856 0
DWIDTH 14 0
BBX 13 9 0 0
BITMAP
3EE0
33B0
4318
6308
7FF8
0E00
3218
6318
C0F0
ENDCHAR
STARTCHAR uni051A
ENCODING 1306
SWIDTH 777 0
DWIDTH 12 0
BBX 12 12 1 0
BITMAP
0400
1F80
60E0
4020
C060
C030
C030
C060
6260
63E0
1FC0
1FE0
ENDCHAR
STARTCHAR uni051B
ENCODING 1307
SWIDTH 556 0
DWIDTH 9 0
BBX 8 12 1 -3
BITMAP
11
3F
63
42
41
C2
63
23
7A
02
02
02
ENDCHAR
STARTCHAR uni051C
ENCODING 1308
SWIDTH 943 0
DWIDTH 15 0
BBX 15 12 0 0
BITMAP
C186
6182
4284
2346
6644
3268
2448
1638
1468
1830
1830
1830
ENDCHAR
STARTCHAR uni051D
ENCODING 1309
SWIDTH 722 0
DWIDTH 12 0
BBX 12 9 0 0
BITMAP
C610
6620
4E60
2520
6B40
29E0
1940
18C0
10C0
ENDCHAR
STARTCHAR uni051E
ENCODING 1310
SWIDTH 666 0
DWIDTH 11 0
BBX 10 12 1 0
BITMAP
C980
C700
C600
CE00
D900
F800
EC00
C600
C300
C300
C180
C0C0
ENDCHAR
STARTCHAR uni051F
ENCODING 1311
SWIDTH 500 0
DWIDTH 8 0
BBX 8 9 1 0
BITMAP
56
5C
5C
74
F0
58
4C
46
43
ENDCHAR
STARTCHAR uni0520
ENCODING 1312
SWIDTH 1068 0
DWIDTH 17 0
BBX 17 15 0 -3
BITMAP
3F8000
30C000
30C000
30C000
30C600
30FB00
30C180
30C180
10C180
30C180
70C180
E0C180
000180
000100
000700
ENDCHAR
STARTCHAR uni0521
ENCODING 1313
SWIDTH 884 0
DWIDTH 14 0
BBX 14 12 0 -3
BITMAP
3F00
2100
2100
2120
21F0
2108
2104
E104
6104
0004
0004
001C
ENDCHAR
STARTCHAR uni0522
ENCODING 1314
SWIDTH 1131 0
DWIDTH 18 0
BBX 17 15 1 -3
BITMAP
C0C000
C0C000
C0C000
C0C000
C0C600
7FFB00
C0C300
C0C180
C0C180
C0C180
C0C180
C0C180
000180
000180
000700
ENDCHAR
STARTCHAR uni0523
ENCODING 1315
SWIDTH 850 0
DWIDTH 14 0
BBX 13 12 1 -3
BITMAP
4600
4600
4600
4640
FFE0
4618
4610
4610
4610
0010
0018
0070
ENDCHAR
STARTCHAR uni0524
ENCODING 1316
SWIDTH 722 0
DWIDTH 12 0
BBX 11 15 1 -3
BITMAP
FF80
C0C0
C0C0
C0C0
C0C0
C0C0
C0C0
C0C0
C0C0
C0C0
C0E0
C0E0
0040
0040
0040
ENDCHAR
STARTCHAR uni0525
ENCODING 1317
SWIDTH 541 0
DWIDTH 9 0
BBX 8 11 1 -2
BITMAP
FE
46
46
46
46
46
46
43
43
01
01
ENDCHAR
STARTCHAR uni0526
ENCODING 1318
SWIDTH 704 0
DWIDTH 11 0
BBX 11 15 1 -3
BITMAP
C000
C000
C000
C000
C600
FB00
C180
C180
C180
C180
C1C0
C1C0
0060
0060
0060
ENDCHAR
STARTCHAR uni0527
ENCODING 1319
SWIDTH 554 0
DWIDTH 9 0
BBX 9 14 1 -2
BITMAP
4000
4000
4000
4C00
7E00
C600
4300
4300
4300
4300
4700
4700
0180
0180
ENDCHAR
STARTCHAR uni0528
ENCODING 1320
SWIDTH 722 0
DWIDTH 12 0
BBX 11 15 0 -3
BITMAP
3060
3060
3060
3060
3060
3FE0
3060
3060
3060
3060
3060
3060
3000
2000
E000
ENDCHAR
STARTCHAR uni0529
ENCODING 1321
SWIDTH 552 0
DWIDTH 9 0
BBX 9 12 -1 -3
BITMAP
2080
2080
2080
2080
3F80
2080
2080
2080
2080
2000
2000
E000
ENDCHAR
STARTCHAR uni052A
ENCODING 1322
SWIDTH 1329 0
DWIDTH 21 0
BBX 21 14 1 -2
BITMAP
3F9870
619860
6198C0
619980
619B00
61FF80
219D80
2198C0
4198C0
C19860
FFD830
805818
804000
804000
ENDCHAR
STARTCHAR uni052B
ENCODING 1323
SWIDTH 1069 0
DWIDTH 17 0
BBX 18 11 0 -2
BITMAP
1FB180
113300
113600
113C00
21FE00
213300
213300
FFB180
40B0C0
408000
408000
ENDCHAR
STARTCHAR uni052C
ENCODING 1324
SWIDTH 666 0
DWIDTH 11 0
BBX 10 14 1 -2
BITMAP
C180
C300
C380
C780
CD80
D980
7F80
3F80
6180
6180
FFC0
8040
8040
8040
ENDCHAR
STARTCHAR uni052D
ENCODING 1325
SWIDTH 564 0
DWIDTH 9 0
BBX 9 11 0 -2
BITMAP
6180
6300
6500
3500
3F80
1F80
3100
FF80
4080
4080
4080
ENDCHAR
STARTCHAR uni052E
ENCODING 1326
SWIDTH 656 0
DWIDTH 10 0
BBX 11 15 0 -3
BITMAP
3F80
30C0
30C0
30C0
30C0
30C0
30C0
30C0
10C0
30C0
70E0
E0E0
0040
0040
0040
ENDCHAR
STARTCHAR uni052F
ENCODING 1327
SWIDTH 583 0
DWIDTH 9 0
BBX 9 11 0 -2
BITMAP
3F00
2100
2100
2100
2100
2100
2100
E180
6180
0080
0080
ENDCHAR
STARTCHAR uni0531
ENCODING 1329
SWIDTH 739 0
DWIDTH 12 0
BBX 11 12 1 0
BITMAP
C0C0
C0C0
C0C0
C0C0
C0C0
C0C0
C0C0
C0C0
C280
6380
3FE0
3E40
ENDCHAR
STARTCHAR uni0532
ENCODING 1330
SWIDTH 724 0
DWIDTH 12 0
BBX 10 12 1 0
BITMAP
0800
7F00
6180
C0C0
C0C0
C000
C000
7FC0
7FC0
C000
C000
C000
ENDCHAR
STARTCHAR uni0533
ENCODING 1331
SWIDTH 715 0
DWIDTH 11 0
BBX 12 12 1 0
BITMAP
0400
3F80
6180
C0C0
C0C0
C0C0
60C0
7FE0
3FF0
00C0
00C0
00C0
ENDCHAR
STARTCHAR uni0534
ENCODING 1332
SWIDTH 717 0
DWIDTH 11 0
BBX 12 12 1 0
BITMAP
0800
7F00
6180
C0C0
C0C0
00C0
00C0
00F0
00F0
00C0
00C0
00C0
ENDCHAR
STARTCHAR uni0535
ENCODING 1333
SWIDTH 724 0
DWIDTH 12 0
BBX 10 12 1 0
BITMAP
C000
C000
C000
7FC0
7FC0
C000
C0C0
C0C0
C0C0
6180
7F00
7F00
ENDCHAR
STARTCHAR uni0536
ENCODING 1334
SWIDTH 708 0
DWIDTH 11 0
BBX 10 12 1 0
BITMAP
0400
3F80
6180
C0C0
C0C0
00C0
0180
0100
0300
C600
FF80
FF80
ENDCHAR
STARTCHAR uni0537
ENCODING 1335
SWIDTH 597 0
DWIDTH 10 0
BBX 9 12 1 0
BITMAP
C000
C000
C000
7F80
7F80
C000
C000
C000
C000
C000
7F00
7F00
ENDCHAR
STARTCHAR uni0538
ENCODING 1336
SWIDTH 723 0
DWIDTH 12 0
BBX 10 12 1 0
BITMAP
0800
7F00
6180
C0C0
C0C0
C000
C000
C000
C000
C000
7FC0
7FC0
ENDCHAR
STARTCHAR uni0539
ENCODING 1337
SWIDTH 806 0
DWIDTH 13 0
BBX 12 12 1 0
BITMAP
0400
7F80
60E0
C060
C060
C1F0
CE60
CC60
D860
CCC0
C7C0
C7C0
ENDCHAR
STARTCHAR uni053A
ENCODING 1338
SWIDTH 715 0
DWIDTH 11 0
BBX 12 12 1 0
BITMAP
00C0
00C0
00C0
07E0
3FF0
60C0
C0C0
C0C0
C0C0
6180
3F80
3F80
ENDCHAR
STARTCHAR uni053B
ENCODING 1339
SWIDTH 658 0
DWIDTH 11 0
BBX 9 12 1 0
BITMAP
C000
C000
C000
D800
FF00
6180
C180
C180
C180
C000
C000
C000
ENDCHAR
STARTCHAR uni053C
ENCODING 1340
SWIDTH 527 0
DWIDTH 8 0
BBX 8 12 1 0
BITMAP
C0
C0
C0
C0
C0
C0
C0
C0
C0
C0
7F
7F
ENDCHAR
STARTCHAR uni053D
ENCODING 1341
SWIDTH 924 0
DWIDTH 15 0
BBX 13 12 1 0
BITMAP
C000
C000
C000
FC18
FC18
CC18
CC18
CC18
C618
C618
C3F0
C3F0
ENDCHAR
STARTCHAR uni053E
ENCODING 1342
SWIDTH 766 0
DWIDTH 12 0
BBX 11 12 1 0
BITMAP
C7E0
DCC0
7800
6F80
60C0
60C0
C0C0
C060
C0C0
60C0
3F80
1E00
ENDCHAR
STARTCHAR uni053F
ENCODING 1343
SWIDTH 695 0
DWIDTH 11 0
BBX 9 12 1 0
BITMAP
C000
C000
C000
C180
C180
C180
6180
7F80
7F80
0180
0180
0180
ENDCHAR
STARTCHAR uni0540
ENCODING 1344
SWIDTH 615 0
DWIDTH 10 0
BBX 8 12 1 0
BITMAP
E0
1C
06
06
06
FE
0C
06
03
03
03
03
ENDCHAR
STARTCHAR uni0541
ENCODING 1345
SWIDTH 706 0
DWIDTH 11 0
BBX 10 12 1 0
BITMAP
0400
3F80
6180
C0C0
C0C0
00C0
0180
1980
7F00
4300
7F80
7880
ENDCHAR
STARTCHAR uni0542
ENCODING 1346
SWIDTH 717 0
DWIDTH 11 0
BBX 12 12 1 0
BITMAP
0800
7F00
6180
C0C0
C0C0
00C0
00C0
00C0
00C0
00C0
00F0
00F0
ENDCHAR
STARTCHAR uni0543
ENCODING 1347
SWIDTH 700 0
DWIDTH 11 0
BBX 9 12 1 0
BITMAP
0180
0600
7800
3E00
6300
6300
6180
C180
C180
C180
FF80
FF80
ENDCHAR
STARTCHAR uni0544
ENCODING 1348
SWIDTH 754 0
DWIDTH 12 0
BBX 12 12 1 0
BITMAP
C0F0
C0C0
C0C0
C0C0
C0C0
C0C0
C0C0
C0C0
C0C0
6180
7F00
7F00
ENDCHAR
STARTCHAR uni0545
ENCODING 1349
SWIDTH 716 0
DWIDTH 11 0
BBX 9 12 2 0
BITMAP
0800
7E00
C300
0300
0300
FF00
0F00
0300
8180
C180
7F00
7F00
ENDCHAR
STARTCHAR uni0546
ENCODING 1350
SWIDTH 708 0
DWIDTH 11 0
BBX 11 12 1 0
BITMAP
E000
6000
6000
6000
6000
6000
6060
6060
60C0
30C0
3F80
3F80
ENDCHAR
STARTCHAR uni0547
ENCODING 1351
SWIDTH 699 0
DWIDTH 11 0
BBX 10 12 1 0
BITMAP
7000
3E00
0F80
3C80
6000
C000
C040
C0C0
C0C0
6180
3F80
0E00
ENDCHAR
STARTCHAR uni0548
ENCODING 1352
SWIDTH 724 0
DWIDTH 12 0
BBX 10 12 1 0
BITMAP
0800
7F00
6180
C0C0
C0C0
C0C0
C0C0
C0C0
C0C0
C0C0
C0C0
C0C0
ENDCHAR
STARTCHAR uni0549
ENCODING 1353
SWIDTH 699 0
DWIDTH 11 0
BBX 10 12 1 0
BITMAP
0400
3F80
6180
C0C0
C0C0
00C0
0180
0180
3380
3C00
0700
0100
ENDCHAR
STARTCHAR uni054A
ENCODING 1354
SWIDTH 792 0
DWIDTH 13 0
BBX 12 12 0 0
BITMAP
0400
3FC0
6670
C630
C630
0630
0630
0630
0030
0030
0030
0030
ENDCHAR
STARTCHAR uni054B
ENCODING 1355
SWIDTH 738 0
DWIDTH 12 0
BBX 10 12 1 0
BITMAP
0400
3F80
6180
C0C0
C0C0
60C0
5CC0
0780
0380
C700
7FC0
7FC0
ENDCHAR
STARTCHAR uni054C
ENCODING 1356
SWIDTH 764 0
DWIDTH 12 0
BBX 12 12 1 0
BITMAP
0800
7F00
6180
C0C0
C0C0
C0C0
C0C0
C0F0
C0F0
C0C0
C0C0
C0C0
ENDCHAR
STARTCHAR uni054D
ENCODING 1357
SWIDTH 724 0
DWIDTH 12 0
BBX 10 12 1 0
BITMAP
C0C0
C0C0
C0C0
C0C0
C0C0
C0C0
C0C0
C0C0
C0C0
6180
7F00
7F00
ENDCHAR
STARTCHAR uni054E
ENCODING 1358
SWIDTH 698 0
DWIDTH 11 0
BBX 11 12 1 0
BITMAP
0180
0180
0180
C180
C180
C180
6180
7F80
7F80
0180
01E0
01E0
ENDCHAR
STARTCHAR uni054F
ENCODING 1359
SWIDTH 659 0
DWIDTH 11 0
BBX 9 12 2 0
BITMAP
3E00
7F00
E300
C000
4000
7000
0E00
0300
8100
C180
FF00
3E00
ENDCHAR
STARTCHAR uni0550
ENCODING 1360
SWIDTH 678 0
DWIDTH 11 0
BBX 10 12 1 0
BITMAP
0800
7F00
6180
C0C0
C0C0
C000
C000
C000
C000
C000
C000
C000
ENDCHAR
STARTCHAR uni0551
ENCODING 1361
SWIDTH 677 0
DWIDTH 11 0
BBX 9 12 2 0
BITMAP
0800
3E00
C300
C300
6300
FF00
0F00
0300
8180
C180
7F00
7F00
ENDCHAR
STARTCHAR uni0552
ENCODING 1362
SWIDTH 515 0
DWIDTH 8 0
BBX 7 12 1 0
BITMAP
C0
C0
C0
FE
FE
C0
C0
C0
C0
C0
C0
C0
ENDCHAR
STARTCHAR uni0553
ENCODING 1363
SWIDTH 761 0
DWIDTH 12 0
BBX 12 12 1 0
BITMAP
0600
0600
3FC0
3FC0
6660
C630
C630
6660
2660
7FC0
0600
0600
ENDCHAR
STARTCHAR uni0554
ENCODING 1364
SWIDTH 686 0
DWIDTH 11 0
BBX 9 12 1 0
BITMAP
0800
3F00
6180
C100
C100
6180
7F00
DE00
C000
FF80
FF80
C000
ENDCHAR
STARTCHAR uni0555
ENCODING 1365
SWIDTH 782 0
DWIDTH 13 0
BBX 12 12 1 0
BITMAP
0400
3FC0
2040
6060
C060
C030
C030
C060
6060
6060
3FC0
0E00
ENDCHAR
STARTCHAR uni0556
ENCODING 1366
SWIDTH 762 0
DWIDTH 12 0
BBX 12 12 1 0
BITMAP
0600
1E00
6600
3E00
3FC0
0640
0660
C630
C660
6660
3FC0
3FC0
ENDCHAR
STARTCHAR uni0559
ENCODING 1369
SWIDTH 273 0
DWIDTH 4 0
BBX 2 4 1 8
BITMAP
40
40
80
40
ENDCHAR
STARTCHAR uni055A
ENCODING 1370
SWIDTH 222 0
DWIDTH 4 0
BBX 2 4 1 8
BITMAP
C0
C0
40
40
ENDCHAR
STARTCHAR uni055B
ENCODING 1371
SWIDTH 169 0
DWIDTH 3 0
BBX 2 3 0 9
BITMAP
C0
80
80
ENDCHAR
STARTCHAR uni055C
ENCODING 1372
SWIDTH 200 0
DWIDTH 3 0
BBX 4 3 -1 9
BITMAP
10
E0
40
ENDCHAR
STARTCHAR uni055D
ENCODING 1373
SWIDTH 265 0
DWIDTH 4 0
BBX 3 3 1 9
BITMAP
C0
60
60
ENDCHAR
STARTCHAR uni055E
ENCODING 1374
SWIDTH 231 0
DWIDTH 4 0
BBX 3 4 0 9
BITMAP
40
A0
A0
80
ENDCHAR
STARTCHAR uni055F
ENCODING 1375
SWIDTH 513 0
DWIDTH 8 0
BBX 8 2 1 13
BITMAP
40
FF
ENDCHAR
STARTCHAR uni0560
ENCODING 1376
SWIDTH 832 0
DWIDTH 13 0
BBX 12 9 1 0
BITMAP
5CC0
7FE0
C630
4220
4220
4220
4220
4220
4220
ENDCHAR
STARTCHAR uni0561
ENCODING 1377
SWIDTH 832 0
DWIDTH 13 0
BBX 12 9 1 0
BITMAP
4220
4220
4220
4220
4220
4220
C630
7FF0
7390
ENDCHAR
STARTCHAR uni0562
ENCODING 1378
SWIDTH 550 0
DWIDTH 9 0
BBX 8 12 1 -3
BITMAP
48
FC
C6
43
43
40
40
7F
7F
40
40
40
ENDCHAR
STARTCHAR uni0563
ENCODING 1379
SWIDTH 579 0
DWIDTH 9 0
BBX 9 12 1 -3
BITMAP
1100
3F00
6300
4200
4100
C200
6300
2780
1F80
0200
0200
0200
ENDCHAR
STARTCHAR uni0564
ENCODING 1380
SWIDTH 582 0
DWIDTH 9 0
BBX 9 12 1 -3
BITMAP
4800
FC00
C600
4300
4300
4300
4300
4380
4380
0300
0300
0300
ENDCHAR
STARTCHAR uni0565
ENCODING 1381
SWIDTH 553 0
DWIDTH 9 0
BBX 7 12 2 0
BITMAP
80
80
80
FE
80
80
86
86
86
8C
FE
E6
ENDCHAR
STARTCHAR uni0566
ENCODING 1382
SWIDTH 550 0
DWIDTH 9 0
BBX 9 12 1 -3
BITMAP
1100
3F00
6300
4200
4100
C200
6300
2300
1E00
0200
0380
0380
ENDCHAR
STARTCHAR uni0567
ENCODING 1383
SWIDTH 491 0
DWIDTH 8 0
BBX 7 12 1 0
BITMAP
40
40
40
FE
40
40
40
40
40
40
FC
FC
ENDCHAR
STARTCHAR uni0568
ENCODING 1384
SWIDTH 550 0
DWIDTH 9 0
BBX 8 12 1 -3
BITMAP
48
FC
C6
43
43
43
43
43
43
40
7F
7F
ENDCHAR
STARTCHAR uni0569
ENCODING 1385
SWIDTH 667 0
DWIDTH 11 0
BBX 9 12 2 -3
BITMAP
B000
FE00
C300
8100
9F80
B300
A100
B200
9E00
8000
8000
8000
ENDCHAR
STARTCHAR uni056A
ENCODING 1386
SWIDTH 579 0
DWIDTH 9 0
BBX 9 12 1 0
BITMAP
0200
0200
0200
0F80
7200
6200
C200
4200
C200
6300
4200
3E00
ENDCHAR
STARTCHAR uni056B
ENCODING 1387
SWIDTH 550 0
DWIDTH 9 0
BBX 8 15 1 -3
BITMAP
40
40
40
48
FC
66
43
43
43
43
43
43
40
40
40
ENDCHAR
STARTCHAR uni056C
ENCODING 1388
SWIDTH 219 0
DWIDTH 4 0
BBX 3 12 2 -3
BITMAP
80
80
80
80
80
80
80
80
80
80
E0
E0
ENDCHAR
STARTCHAR uni056D
ENCODING 1389
SWIDTH 834 0
DWIDTH 13 0
BBX 12 15 1 -3
BITMAP
4000
4000
4000
5820
FC20
C620
4220
4220
4220
4230
43F0
4390
4000
4000
4000
ENDCHAR
STARTCHAR uni056E
ENCODING 1390
SWIDTH 542 0
DWIDTH 9 0
BBX 8 12 1 0
BITMAP
30
60
30
3F
76
43
C3
41
C1
63
42
3E
ENDCHAR
STARTCHAR uni056F
ENCODING 1391
SWIDTH 553 0
DWIDTH 9 0
BBX 7 15 2 -3
BITMAP
80
80
80
86
86
86
86
86
86
8C
FE
FC
06
06
06
ENDCHAR
STARTCHAR uni0570
ENCODING 1392
SWIDTH 550 0
DWIDTH 9 0
BBX 8 12 1 0
BITMAP
40
40
40
48
FC
66
43
43
43
43
43
43
ENDCHAR
STARTCHAR uni0571
ENCODING 1393
SWIDTH 522 0
DWIDTH 8 0
BBX 8 12 1 0
BITMAP
18
10
30
1C
30
3E
42
C3
43
46
7E
72
ENDCHAR
STARTCHAR uni0572
ENCODING 1394
SWIDTH 553 0
DWIDTH 9 0
BBX 9 12 1 -3
BITMAP
4800
FC00
C600
4300
4300
4300
4300
4300
4300
0300
0380
0380
ENDCHAR
STARTCHAR uni0573
ENCODING 1395
SWIDTH 558 0
DWIDTH 9 0
BBX 8 12 1 0
BITMAP
02
0E
18
70
3C
44
C6
C3
43
46
7E
72
ENDCHAR
STARTCHAR uni0574
ENCODING 1396
SWIDTH 550 0
DWIDTH 9 0
BBX 8 12 2 0
BITMAP
07
06
06
86
86
86
86
86
86
8C
FE
E6
ENDCHAR
STARTCHAR uni0575
ENCODING 1397
SWIDTH 219 0
DWIDTH 4 0
BBX 5 12 -1 -3
BITMAP
20
20
20
20
20
20
20
20
20
20
20
E0
ENDCHAR
STARTCHAR uni0576
ENCODING 1398
SWIDTH 553 0
DWIDTH 9 0
BBX 9 12 0 0
BITMAP
E000
2000
2000
2080
2080
2080
2080
2080
2080
2180
3E80
1C80
ENDCHAR
STARTCHAR uni0577
ENCODING 1399
SWIDTH 456 0
DWIDTH 7 0
BBX 8 12 0 -3
BITMAP
10
7C
66
06
02
04
0E
10
30
40
FE
7F
ENDCHAR
STARTCHAR uni0578
ENCODING 1400
SWIDTH 550 0
DWIDTH 9 0
BBX 8 9 1 0
BITMAP
48
FC
C6
43
43
43
43
43
43
ENDCHAR
STARTCHAR uni0579
ENCODING 1401
SWIDTH 346 0
DWIDTH 6 0
BBX 6 12 0 -3
BITMAP
40
60
60
40
70
3C
08
18
30
E0
7C
7C
ENDCHAR
STARTCHAR uni057A
ENCODING 1402
SWIDTH 832 0
DWIDTH 13 0
BBX 12 12 1 -3
BITMAP
4220
4220
4220
4220
4220
4220
C630
7FF0
73A0
0020
0020
0020
ENDCHAR
STARTCHAR uni057B
ENCODING 1403
SWIDTH 517 0
DWIDTH 8 0
BBX 8 12 1 -3
BITMAP
10
7C
C6
43
66
62
2C
38
30
60
FE
FE
ENDCHAR
STARTCHAR uni057C
ENCODING 1404
SWIDTH 563 0
DWIDTH 9 0
BBX 8 9 1 0
BITMAP
48
7E
C6
42
43
46
44
4F
4F
ENDCHAR
STARTCHAR uni057D
ENCODING 1405
SWIDTH 550 0
DWIDTH 9 0
BBX 7 9 2 0
BITMAP
86
86
86
86
86
86
8C
FE
E6
ENDCHAR
STARTCHAR uni057E
ENCODING 1406
SWIDTH 550 0
DWIDTH 9 0
BBX 8 15 2 -3
BITMAP
06
06
06
86
86
86
86
86
86
8C
FE
FC
06
07
07
ENDCHAR
STARTCHAR uni057F
ENCODING 1407
SWIDTH 831 0
DWIDTH 13 0
BBX 11 9 2 0
BITMAP
8700
8FC0
8C60
8440
8440
8440
8C40
FC40
E440
ENDCHAR
STARTCHAR uni0580
ENCODING 1408
SWIDTH 550 0
DWIDTH 9 0
BBX 8 12 1 -3
BITMAP
48
FC
C6
43
43
43
43
43
43
40
40
40
ENDCHAR
STARTCHAR uni0581
ENCODING 1409
SWIDTH 555 0
DWIDTH 9 0
BBX 8 12 1 -3
BITMAP
09
3F
63
41
41
C1
63
7D
09
C2
66
7C
ENDCHAR
STARTCHAR uni0582
ENCODING 1410
SWIDTH 394 0
DWIDTH 6 0
BBX 5 9 2 0
BITMAP
80
80
80
80
80
80
80
F8
F8
ENDCHAR
STARTCHAR uni0583
ENCODING 1411
SWIDTH 831 0
DWIDTH 13 0
BBX 11 15 2 -3
BITMAP
0400
0400
0400
8700
8FC0
8C60
8440
8440
8440
8C40
FC40
E440
0400
0400
0400
ENDCHAR
STARTCHAR uni0584
ENCODING 1412
SWIDTH 550 0
DWIDTH 9 0
BBX 9 12 0 -3
BITMAP
2C00
3F00
3180
2080
2080
6100
3300
7F00
6000
6000
FF00
6000
ENDCHAR
STARTCHAR uni0585
ENCODING 1413
SWIDTH 554 0
DWIDTH 9 0
BBX 9 9 1 0
BITMAP
0800
7E00
6300
C300
4180
C300
6300
2200
7E00
ENDCHAR
STARTCHAR uni0586
ENCODING 1414
SWIDTH 743 0
DWIDTH 12 0
BBX 11 15 0 -3
BITMAP
0400
1E00
3400
3C00
05C0
0460
0460
4460
C460
6460
3FC0
7F00
0400
0400
0400
ENDCHAR
STARTCHAR uni0587
ENCODING 1415
SWIDTH 712 0
DWIDTH 11 0
BBX 10 12 2 0
BITMAP
8000
8000
8000
8600
8600
8600
8600
8600
8600
8C00
FFC0
E7C0
ENDCHAR
STARTCHAR uni0588
ENCODING 1416
SWIDTH 219 0
DWIDTH 4 0
BBX 5 12 -1 -3
BITMAP
20
20
20
20
20
20
20
F8
F8
20
20
E0
ENDCHAR
STARTCHAR uni0589
ENCODING 1417
SWIDTH 277 0
DWIDTH 4 0
BBX 2 9 1 0
BITMAP
C0
C0
00
00
00
00
00
C0
C0
ENDCHAR
STARTCHAR uni058A
ENCODING 1418
SWIDTH 324 0
DWIDTH 5 0
BBX 5 3 1 3
BITMAP
80
F8
70
ENDCHAR
STARTCHAR uni058D
ENCODING 1421
SWIDTH 1000 0
DWIDTH 16 0
BBX 15 15 1 -3
BITMAP
0100
07E0
1DF8
290C
4AFC
4B84
6BC2
A7BA
5FEA
C1A4
4294
2098
1138
0C20
0380
ENDCHAR
STARTCHAR uni058E
ENCODING 1422
SWIDTH 1000 0
DWIDTH 16 0
BBX 15 15 1 -3
BITMAP
0100
05C0
3F38
3118
7694
43A4
47A6
BDEA
6FFA
DA84
4A84
2A04
3918
0860
0380
ENDCHAR
STARTCHAR uni058F
ENCODING 1423
SWIDTH 726 0
DWIDTH 12 0
BBX 12 12 1 0
BITMAP
0800
7F00
6180
C0C0
C0C0
00C0
00C0
07F0
00C0
07F0
00C0
00C0
ENDCHAR
STARTCHAR uni0591
ENCODING 1425
SWIDTH 0 0
DWIDTH 0 0
BBX 4 3 -1 -3
BITMAP
40
40
90
ENDCHAR
STARTCHAR uni0592
ENCODING 1426
SWIDTH 0 0
DWIDTH 0 0
BBX 3 3 -1 9
BITMAP
40
A0
A0
ENDCHAR
STARTCHAR uni0593
ENCODING 1427
SWIDTH 0 0
DWIDTH 0 0
BBX 1 3 0 9
BITMAP
80
80
80
ENDCHAR
STARTCHAR uni0594
ENCODING 1428
SWIDTH 0 0
DWIDTH 0 0
BBX 1 3 0 9
BITMAP
80
80
80
ENDCHAR
STARTCHAR uni0595
ENCODING 1429
SWIDTH 0 0
DWIDTH 0 0
BBX 3 3 -1 9
BITMAP
E0
A0
E0
ENDCHAR
STARTCHAR uni0596
ENCODING 1430
SWIDTH 0 0
DWIDTH 0 0
BBX 3 3 -1 -3
BITMAP
80
40
60
ENDCHAR
STARTCHAR uni0597
ENCODING 1431
SWIDTH 0 0
DWIDTH 0 0
BBX 2 3 0 9
BITMAP
80
C0
80
ENDCHAR
STARTCHAR uni0598
ENCODING 1432
SWIDTH 0 0
DWIDTH 0 0
BBX 5 2 -2 10
BITMAP
68
A8
ENDCHAR
STARTCHAR uni0599
ENCODING 1433
SWIDTH 0 0
DWIDTH 0 0
BBX 3 3 -3 9
BITMAP
80
60
20
ENDCHAR
STARTCHAR uni059A
ENCODING 1434
SWIDTH 0 0
DWIDTH 0 0
BBX 2 3 2 -3
BITMAP
80
80
40
ENDCHAR
STARTCHAR uni059B
ENCODING 1435
SWIDTH 0 0
DWIDTH 0 0
BBX 3 3 -1 -3
BITMAP
60
20
C0
ENDCHAR
STARTCHAR uni059C
ENCODING 1436
SWIDTH 0 0
DWIDTH 0 0
BBX 4 3 -1 9
BITMAP
30
40
80
ENDCHAR
STARTCHAR uni059D
ENCODING 1437
SWIDTH 0 0
DWIDTH 0 0
BBX 4 3 1 9
BITMAP
30
40
80
ENDCHAR
STARTCHAR uni059E
ENCODING 1438
SWIDTH 0 0
DWIDTH 0 0
BBX 5 3 -2 9
BITMAP
38
60
A0
ENDCHAR
STARTCHAR uni059F
ENCODING 1439
SWIDTH 0 0
DWIDTH 0 0
BBX 7 3 -3 9
BITMAP
66
A6
18
ENDCHAR
STARTCHAR uni05A0
ENCODING 1440
SWIDTH 0 0
DWIDTH 0 0
BBX 4 3 -1 9
BITMAP
60
50
80
ENDCHAR
STARTCHAR uni05A1
ENCODING 1441
SWIDTH 0 0
DWIDTH 0 0
BBX 3 3 -1 9
BITMAP
A0
60
80
ENDCHAR
STARTCHAR uni05A2
ENCODING 1442
SWIDTH 0 0
DWIDTH 0 0
BBX 4 3 -1 -3
BITMAP
90
E0
40
ENDCHAR
STARTCHAR uni05A3
ENCODING 1443
SWIDTH 0 0
DWIDTH 0 0
BBX 2 3 0 -3
BITMAP
40
40
C0
ENDCHAR
STARTCHAR uni05A4
ENCODING 1444
SWIDTH 0 0
DWIDTH 0 0
BBX 2 3 0 -3
BITMAP
80
80
40
ENDCHAR
STARTCHAR uni05A5
ENCODING 1445
SWIDTH 0 0
DWIDTH 0 0
BBX 3 3 -1 -3
BITMAP
20
20
C0
ENDCHAR
STARTCHAR uni05A6
ENCODING 1446
SWIDTH 0 0
DWIDTH 0 0
BBX 3 3 -1 -3
BITMAP
60
A0
C0
ENDCHAR
STARTCHAR uni05A7
ENCODING 1447
SWIDTH 0 0
DWIDTH 0 0
BBX 2 3 -1 -3
BITMAP
C0
40
C0
ENDCHAR
STARTCHAR uni05A8
ENCODING 1448
SWIDTH 0 0
DWIDTH 0 0
BBX 3 3 -1 9
BITMAP
80
60
20
ENDCHAR
STARTCHAR uni05A9
ENCODING 1449
SWIDTH 0 0
DWIDTH 0 0
BBX 4 3 -1 9
BITMAP
60
A0
10
ENDCHAR
STARTCHAR uni05AA
ENCODING 1450
SWIDTH 0 0
DWIDTH 0 0
BBX 4 3 -1 -3
BITMAP
90
E0
40
ENDCHAR
STARTCHAR uni05AB
ENCODING 1451
SWIDTH 0 0
DWIDTH 0 0
BBX 2 3 0 9
BITMAP
80
80
40
ENDCHAR
STARTCHAR uni05AC
ENCODING 1452
SWIDTH 0 0
DWIDTH 0 0
BBX 2 3 0 9
BITMAP
40
40
C0
ENDCHAR
STARTCHAR uni05AD
ENCODING 1453
SWIDTH 0 0
DWIDTH 0 0
BBX 3 3 1 -3
BITMAP
80
40
60
ENDCHAR
STARTCHAR uni05AE
ENCODING 1454
SWIDTH 0 0
DWIDTH 0 0
BBX 5 2 -4 10
BITMAP
68
A8
ENDCHAR
STARTCHAR uni05AF
ENCODING 1455
SWIDTH 0 0
DWIDTH 0 0
BBX 2 2 0 10
BITMAP
80
C0
ENDCHAR
STARTCHAR uni05B0
ENCODING 1456
SWIDTH 0 0
DWIDTH 0 0
BBX 1 3 1 -3
BITMAP
80
00
80
ENDCHAR
STARTCHAR uni05B1
ENCODING 1457
SWIDTH 0 0
DWIDTH 0 0
BBX 4 3 1 -3
BITMAP
D0
00
50
ENDCHAR
STARTCHAR uni05B2
ENCODING 1458
SWIDTH 0 0
DWIDTH 0 0
BBX 5 3 0 -3
BITMAP
E8
00
18
ENDCHAR
STARTCHAR uni05B3
ENCODING 1459
SWIDTH 0 0
DWIDTH 0 0
BBX 5 3 0 -3
BITMAP
E8
40
18
ENDCHAR
STARTCHAR uni05B4
ENCODING 1460
SWIDTH 0 0
DWIDTH 0 0
BBX 1 1 1 -1
BITMAP
80
ENDCHAR
STARTCHAR uni05B5
ENCODING 1461
SWIDTH 0 0
DWIDTH 0 0
BBX 3 1 1 -1
BITMAP
A0
ENDCHAR
STARTCHAR uni05B6
ENCODING 1462
SWIDTH 0 0
DWIDTH 0 0
BBX 3 3 1 -3
BITMAP
A0
00
40
ENDCHAR
STARTCHAR uni05B7
ENCODING 1463
SWIDTH 0 0
DWIDTH 0 0
BBX 3 1 1 -1
BITMAP
E0
ENDCHAR
STARTCHAR uni05B8
ENCODING 1464
SWIDTH 0 0
DWIDTH 0 0
BBX 3 2 1 -2
BITMAP
E0
40
ENDCHAR
STARTCHAR uni05B9
ENCODING 1465
SWIDTH 0 0
DWIDTH 0 0
BBX 1 2 0 9
BITMAP
80
80
ENDCHAR
STARTCHAR uni05BA
ENCODING 1466
SWIDTH 0 0
DWIDTH 0 0
BBX 1 2 0 9
BITMAP
80
80
ENDCHAR
STARTCHAR uni05BB
ENCODING 1467
SWIDTH 0 0
DWIDTH 0 0
BBX 4 3 1 -3
BITMAP
80
20
10
ENDCHAR
STARTCHAR uni05BC
ENCODING 1468
SWIDTH 0 0
DWIDTH 0 0
BBX 1 2 3 4
BITMAP
80
80
ENDCHAR
STARTCHAR uni05BD
ENCODING 1469
SWIDTH 0 0
DWIDTH 0 0
BBX 1 3 0 -3
BITMAP
80
80
80
ENDCHAR
STARTCHAR uni05BE
ENCODING 1470
SWIDTH 382 0
DWIDTH 6 0
BBX 4 2 2 7
BITMAP
F0
F0
ENDCHAR
STARTCHAR uni05BF
ENCODING 1471
SWIDTH 0 0
DWIDTH 0 0
BBX 3 1 -1 9
BITMAP
E0
ENDCHAR
STARTCHAR uni05C0
ENCODING 1472
SWIDTH 274 0
DWIDTH 4 0
BBX 1 10 3 0
BITMAP
80
80
80
80
80
80
80
80
80
80
ENDCHAR
STARTCHAR uni05C1
ENCODING 1473
SWIDTH 0 0
DWIDTH 0 0
BBX 1 1 7 10
BITMAP
80
ENDCHAR
STARTCHAR uni05C2
ENCODING 1474
SWIDTH 0 0
DWIDTH 0 0
BBX 1 1 -1 10
BITMAP
80
ENDCHAR
STARTCHAR uni05C3
ENCODING 1475
SWIDTH 277 0
DWIDTH 4 0
BBX 2 9 1 0
BITMAP
C0
C0
00
00
00
00
00
C0
C0
ENDCHAR
STARTCHAR uni05C4
ENCODING 1476
SWIDTH 0 0
DWIDTH 0 0
BBX 3 1 -1 10
BITMAP
80
ENDCHAR
STARTCHAR uni05C5
ENCODING 1477
SWIDTH 0 0
DWIDTH 0 0
BBX 1 1 0 -1
BITMAP
80
ENDCHAR
STARTCHAR uni05C6
ENCODING 1478
SWIDTH 352 0
DWIDTH 6 0
BBX 4 9 1 0
BITMAP
10
70
C0
40
40
40
40
F0
F0
ENDCHAR
STARTCHAR uni05C7
ENCODING 1479
SWIDTH 0 0
DWIDTH 0 0
BBX 3 3 1 -3
BITMAP
E0
40
40
ENDCHAR
STARTCHAR uni05D0
ENCODING 1488
SWIDTH 562 0
DWIDTH 9 0
BBX 8 9 1 0
BITMAP
63
63
33
3E
7E
6C
66
C3
C3
ENDCHAR
STARTCHAR uni05D1
ENCODING 1489
SWIDTH 541 0
DWIDTH 9 0
BBX 8 9 0 0
BITMAP
60
FC
06
06
06
06
06
FF
FF
ENDCHAR
STARTCHAR uni05D2
ENCODING 1490
SWIDTH 398 0
DWIDTH 6 0
BBX 6 9 0 0
BITMAP
20
70
18
0C
0C
0C
38
64
CC
ENDCHAR
STARTCHAR uni05D3
ENCODING 1491
SWIDTH 508 0
DWIDTH 8 0
BBX 7 9 1 0
BITMAP
FE
FE
08
08
08
08
08
08
08
ENDCHAR
STARTCHAR uni05D4
ENCODING 1492
SWIDTH 602 0
DWIDTH 10 0
BBX 8 9 1 0
BITMAP
E0
7E
07
03
C1
C1
C1
C1
C1
ENDCHAR
STARTCHAR uni05D5
ENCODING 1493
SWIDTH 246 0
DWIDTH 4 0
BBX 2 9 1 0
BITMAP
C0
C0
C0
C0
C0
C0
C0
C0
C0
ENDCHAR
STARTCHAR uni05D6
ENCODING 1494
SWIDTH 382 0
DWIDTH 6 0
BBX 5 9 1 0
BITMAP
F8
F8
10
20
20
60
60
60
60
ENDCHAR
STARTCHAR uni05D7
ENCODING 1495
SWIDTH 598 0
DWIDTH 10 0
BBX 8 9 1 0
BITMAP
70
FC
46
43
42
42
42
42
42
ENDCHAR
STARTCHAR uni05D8
ENCODING 1496
SWIDTH 589 0
DWIDTH 9 0
BBX 7 9 2 0
BITMAP
88
BC
82
82
82
82
C4
C6
78
ENDCHAR
STARTCHAR uni05D9
ENCODING 1497
SWIDTH 246 0
DWIDTH 4 0
BBX 2 5 1 4
BITMAP
C0
C0
C0
C0
C0
ENDCHAR
STARTCHAR uni05DA
ENCODING 1498
SWIDTH 509 0
DWIDTH 8 0
BBX 7 12 0 -3
BITMAP
60
FC
0E
06
06
06
06
06
06
06
06
06
ENDCHAR
STARTCHAR uni05DB
ENCODING 1499
SWIDTH 460 0
DWIDTH 7 0
BBX 7 9 1 0
BITMAP
C0
7C
0C
06
06
06
0C
FC
78
ENDCHAR
STARTCHAR uni05DC
ENCODING 1500
SWIDTH 462 0
DWIDTH 7 0
BBX 6 12 1 0
BITMAP
80
80
80
FC
FC
08
08
18
10
10
10
10
ENDCHAR
STARTCHAR uni05DD
ENCODING 1501
SWIDTH 598 0
DWIDTH 10 0
BBX 8 9 1 0
BITMAP
70
FC
46
43
42
42
42
7F
7F
ENDCHAR
STARTCHAR uni05DE
ENCODING 1502
SWIDTH 601 0
DWIDTH 10 0
BBX 9 9 1 0
BITMAP
C400
6E00
7300
3300
6180
2180
4180
6F00
CF00
ENDCHAR
STARTCHAR uni05DF
ENCODING 1503
SWIDTH 246 0
DWIDTH 4 0
BBX 2 12 1 -3
BITMAP
C0
C0
C0
C0
C0
C0
C0
C0
C0
C0
C0
C0
ENDCHAR
STARTCHAR uni05E0
ENCODING 1504
SWIDTH 352 0
DWIDTH 6 0
BBX 5 9 0 0
BITMAP
40
70
18
18
18
18
18
F0
F0
ENDCHAR
STARTCHAR uni05E1
ENCODING 1505
SWIDTH 574 0
DWIDTH 9 0
BBX 8 9 1 0
BITMAP
0C
7E
63
C3
C3
C3
63
3F
3E
ENDCHAR
STARTCHAR uni05E2
ENCODING 1506
SWIDTH 529 0
DWIDTH 8 0
BBX 8 9 0 0
BITMAP
62
62
32
32
22
13
36
3C
F0
ENDCHAR
STARTCHAR uni05E3
ENCODING 1507
SWIDTH 566 0
DWIDTH 9 0
BBX 8 12 1 -3
BITMAP
10
FC
46
43
42
72
02
02
02
02
02
02
ENDCHAR
STARTCHAR uni05E4
ENCODING 1508
SWIDTH 546 0
DWIDTH 9 0
BBX 8 9 1 0
BITMAP
10
5C
46
43
73
03
06
7E
F0
ENDCHAR
STARTCHAR uni05E5
ENCODING 1509
SWIDTH 461 0
DWIDTH 7 0
BBX 7 12 0 -3
BITMAP
C6
66
66
36
3C
18
18
18
18
18
18
18
ENDCHAR
STARTCHAR uni05E6
ENCODING 1510
SWIDTH 478 0
DWIDTH 8 0
BBX 7 9 0 0
BITMAP
C6
66
36
36
1C
0C
0C
7E
7E
ENDCHAR
STARTCHAR uni05E7
ENCODING 1511
SWIDTH 549 0
DWIDTH 9 0
BBX 7 12 1 -3
BITMAP
FE
FE
06
06
C6
CC
C8
CC
CC
C0
C0
C0
ENDCHAR
STARTCHAR uni05E8
ENCODING 1512
SWIDTH 509 0
DWIDTH 8 0
BBX 7 9 0 0
BITMAP
60
FC
06
06
06
06
06
06
06
ENDCHAR
STARTCHAR uni05E9
ENCODING 1513
SWIDTH 694 0
DWIDTH 11 0
BBX 10 9 1 0
BITMAP
C440
C440
C440
CCC0
7C80
78C0
4180
3F80
1F00
ENDCHAR
STARTCHAR uni05EA
ENCODING 1514
SWIDTH 642 0
DWIDTH 10 0
BBX 10 9 0 0
BITMAP
7F00
F780
3180
3180
30C0
30C0
30C0
70C0
E0C0
ENDCHAR
STARTCHAR uni05EF
ENCODING 1519
SWIDTH 493 0
DWIDTH 8 0
BBX 6 8 1 4
BITMAP
30
30
30
FC
CC
CC
CC
CC
ENDCHAR
STARTCHAR uni05F0
ENCODING 1520
SWIDTH 493 0
DWIDTH 8 0
BBX 6 9 1 0
BITMAP
CC
CC
CC
CC
CC
CC
CC
CC
CC
ENDCHAR
STARTCHAR uni05F1
ENCODING 1521
SWIDTH 493 0
DWIDTH 8 0
BBX 6 9 1 0
BITMAP
CC
CC
CC
CC
CC
0C
0C
0C
0C
ENDCHAR
STARTCHAR uni05F2
ENCODING 1522
SWIDTH 493 0
DWIDTH 8 0
BBX 6 5 1 4
BITMAP
CC
CC
CC
CC
CC
ENDCHAR
STARTCHAR uni05F3
ENCODING 1523
SWIDTH 235 0
DWIDTH 4 0
BBX 2 3 2 6
BITMAP
C0
C0
80
ENDCHAR
STARTCHAR uni05F4
ENCODING 1524
SWIDTH 416 0
DWIDTH 7 0
BBX 5 3 2 6
BITMAP
D8
F0
90
ENDCHAR
STARTCHAR uni0600
ENCODING 1536
SWIDTH 936 0
DWIDTH 15 0
BBX 15 5 1 -1
BITMAP
0004
0008
0008
FFFC
3FFE
ENDCHAR
STARTCHAR uni0601
ENCODING 1537
SWIDTH 1299 0
DWIDTH 21 0
BBX 20 4 1 -2
BITMAP
408000
8C83F0
77FFF0
43FC20
ENDCHAR
STARTCHAR uni0602
ENCODING 1538
SWIDTH 438 0
DWIDTH 7 0
BBX 10 5 1 -1
BITMAP
2000
3000
5000
7FC0
FF00
ENDCHAR
STARTCHAR uni0603
ENCODING 1539
SWIDTH 1272 0
DWIDTH 20 0
BBX 19 4 2 -1
BITMAP
0010C0
0011E0
FFFFE0
7FFFE0
ENDCHAR
STARTCHAR uni0604
ENCODING 1540
SWIDTH 1299 0
DWIDTH 21 0
BBX 20 7 1 -1
BITMAP
000010
000E50
000950
0013F0
001000
FFFC00
3FFC00
ENDCHAR
STARTCHAR uni0605
ENCODING 1541
SWIDTH 0 0
DWIDTH 0 0
BBX 8 1 1 13
BITMAP
FF
ENDCHAR
STARTCHAR uni0606
ENCODING 1542
SWIDTH 615 0
DWIDTH 10 0
BBX 7 11 2 2
BITMAP
AC
9C
90
50
50
26
2C
2C
1C
08
10
ENDCHAR
STARTCHAR uni0607
ENCODING 1543
SWIDTH 615 0
DWIDTH 10 0
BBX 7 11 2 2
BITMAP
88
90
88
50
58
26
2C
2C
1C
08
10
ENDCHAR
STARTCHAR uni0608
ENCODING 1544
SWIDTH 755 0
DWIDTH 12 0
BBX 11 9 1 2
BITMAP
0020
0120
26A0
63E0
C380
4080
4180
3F80
3C00
ENDCHAR
STARTCHAR uni0609
ENCODING 1545
SWIDTH 604 0
DWIDTH 10 0
BBX 7 12 2 3
BITMAP
04
C8
C8
10
10
10
20
20
40
40
9A
9A
ENDCHAR
STARTCHAR uni060A
ENCODING 1546
SWIDTH 735 0
DWIDTH 12 0
BBX 10 12 2 3
BITMAP
0400
C800
C800
1000
1000
1000
2000
2000
4000
4000
B2C0
B2C0
ENDCHAR
STARTCHAR uni060B
ENCODING 1547
SWIDTH 262 0
DWIDTH 4 0
BBX 6 14 -1 -2
BITMAP
10
18
00
00
10
28
28
1C
F8
00
20
20
20
20
ENDCHAR
STARTCHAR uni060C
ENCODING 1548
SWIDTH 318 0
DWIDTH 5 0
BBX 3 5 1 3
BITMAP
20
40
40
C0
60
ENDCHAR
STARTCHAR uni060D
ENCODING 1549
SWIDTH 238 0
DWIDTH 4 0
BBX 4 4 0 0
BITMAP
30
60
40
80
ENDCHAR
STARTCHAR uni060E
ENCODING 1550
SWIDTH 656 0
DWIDTH 11 0
BBX 11 4 -1 3
BITMAP
3000
7000
9000
7FE0
ENDCHAR
STARTCHAR uni060F
ENCODING 1551
SWIDTH 543 0
DWIDTH 9 0
BBX 8 12 0 -3
BITMAP
10
30
41
6E
70
20
43
5F
61
41
41
9E
ENDCHAR
STARTCHAR uni0610
ENCODING 1552
SWIDTH 0 0
DWIDTH 0 0
BBX 3 3 -1 12
BITMAP
20
E0
80
ENDCHAR
STARTCHAR uni0611
ENCODING 1553
SWIDTH 0 0
DWIDTH 0 0
BBX 4 3 -1 12
BITMAP
40
C0
C0
ENDCHAR
STARTCHAR uni0612
ENCODING 1554
SWIDTH 0 0
DWIDTH 0 0
BBX 6 4 -2 11
BITMAP
08
78
74
98
ENDCHAR
STARTCHAR uni0613
ENCODING 1555
SWIDTH 0 0
DWIDTH 0 0
BBX 5 5 -2 10
BITMAP
40
28
E8
98
20
ENDCHAR
STARTCHAR uni0614
ENCODING 1556
SWIDTH 0 0
DWIDTH 0 0
BBX 3 2 1 12
BITMAP
A0
60
ENDCHAR
STARTCHAR uni0615
ENCODING 1557
SWIDTH 269 0
DWIDTH 4 0
BBX 4 5 1 9
BITMAP
80
40
40
50
50
ENDCHAR
STARTCHAR uni0616
ENCODING 1558
SWIDTH 0 0
DWIDTH 0 0
BBX 5 6 -4 9
BITMAP
28
28
28
18
28
80
ENDCHAR
STARTCHAR uni0617
ENCODING 1559
SWIDTH 0 0
DWIDTH 0 0
BBX 2 5 2 9
BITMAP
80
00
40
40
40
ENDCHAR
STARTCHAR uni0618
ENCODING 1560
SWIDTH 0 0
DWIDTH 0 0
BBX 2 2 2 11
BITMAP
40
80
ENDCHAR
STARTCHAR uni0619
ENCODING 1561
SWIDTH 0 0
DWIDTH 0 0
BBX 2 3 2 10
BITMAP
C0
40
80
ENDCHAR
STARTCHAR uni061A
ENCODING 1562
SWIDTH 0 0
DWIDTH 0 0
BBX 2 2 2 0
BITMAP
40
80
ENDCHAR
STARTCHAR uni061B
ENCODING 1563
SWIDTH 318 0
DWIDTH 5 0
BBX 3 7 1 3
BITMAP
20
40
80
C0
60
00
60
ENDCHAR
STARTCHAR uni061C
ENCODING 1564
SWIDTH 1000 0
DWIDTH 16 0
BBX 17 12 0 0
BITMAP
E77380
800080
800080
000000
193600
993680
953A80
252A00
000000
800080
800080
E77380
ENDCHAR
STARTCHAR uni061D
ENCODING 1565
SWIDTH 561 0
DWIDTH 9 0
BBX 7 8 1 3
BITMAP
18
60
80
40
60
30
0E
0E
ENDCHAR
STARTCHAR uni061E
ENCODING 1566
SWIDTH 289 0
DWIDTH 5 0
BBX 4 3 1 3
BITMAP
C0
A0
F0
ENDCHAR
STARTCHAR uni061F
ENCODING 1567
SWIDTH 356 0
DWIDTH 6 0
BBX 5 9 1 3
BITMAP
20
48
58
C0
60
20
20
20
30
ENDCHAR
STARTCHAR uni0620
ENCODING 1568
SWIDTH 638 0
DWIDTH 10 0
BBX 10 11 0 -3
BITMAP
0040
01C0
4200
4200
4780
8080
4380
7F00
0000
0C00
0C00
ENDCHAR
STARTCHAR uni0621
ENCODING 1569
SWIDTH 412 0
DWIDTH 7 0
BBX 5 5 2 2
BITMAP
20
60
88
F0
C0
ENDCHAR
STARTCHAR uni0622
ENCODING 1570
SWIDTH 207 0
DWIDTH 3 0
BBX 3 11 1 3
BITMAP
20
00
40
80
40
40
40
40
40
40
40
ENDCHAR
STARTCHAR uni0623
ENCODING 1571
SWIDTH 207 0
DWIDTH 3 0
BBX 2 11 2 3
BITMAP
80
80
80
80
80
80
80
80
80
40
80
ENDCHAR
STARTCHAR uni0624
ENCODING 1572
SWIDTH 432 0
DWIDTH 7 0
BBX 5 10 2 -1
BITMAP
60
20
10
18
28
38
08
18
30
E0
ENDCHAR
STARTCHAR uni0625
ENCODING 1573
SWIDTH 207 0
DWIDTH 3 0
BBX 2 13 1 -1
BITMAP
80
80
80
40
40
40
40
40
40
00
00
C0
80
ENDCHAR
STARTCHAR uni0626
ENCODING 1574
SWIDTH 638 0
DWIDTH 10 0
BBX 10 9 0 0
BITMAP
6000
2040
01C0
4200
4200
4780
8080
4380
7F00
ENDCHAR
STARTCHAR uni0627
ENCODING 1575
SWIDTH 207 0
DWIDTH 3 0
BBX 2 9 1 3
BITMAP
40
80
40
40
40
40
40
40
40
ENDCHAR
STARTCHAR uni0628
ENCODING 1576
SWIDTH 713 0
DWIDTH 11 0
BBX 12 8 0 0
BITMAP
4020
4020
8020
C010
7FE0
0000
0400
0600
ENDCHAR
STARTCHAR uni0629
ENCODING 1577
SWIDTH 282 0
DWIDTH 5 0
BBX 5 8 0 3
BITMAP
10
D0
40
00
20
30
58
70
ENDCHAR
STARTCHAR uni062A
ENCODING 1578
SWIDTH 713 0
DWIDTH 11 0
BBX 12 7 0 3
BITMAP
0B00
0400
4020
4020
8020
C010
7FE0
ENDCHAR
STARTCHAR uni062B
ENCODING 1579
SWIDTH 713 0
DWIDTH 11 0
BBX 12 9 0 3
BITMAP
0400
0400
0B00
0400
4020
4020
8020
C010
7FE0
ENDCHAR
STARTCHAR uni062C
ENCODING 1580
SWIDTH 562 0
DWIDTH 9 0
BBX 8 10 0 -3
BITMAP
3F
0F
38
40
4C
84
80
C0
20
1E
ENDCHAR
STARTCHAR uni062D
ENCODING 1581
SWIDTH 562 0
DWIDTH 9 0
BBX 8 10 0 -3
BITMAP
3F
0F
38
40
40
80
80
C0
20
1E
ENDCHAR
STARTCHAR uni062E
ENCODING 1582
SWIDTH 562 0
DWIDTH 9 0
BBX 8 14 0 -3
BITMAP
08
18
00
00
3F
0F
38
40
40
80
80
C0
20
1E
ENDCHAR
STARTCHAR uni062F
ENCODING 1583
SWIDTH 337 0
DWIDTH 5 0
BBX 5 6 1 3
BITMAP
20
18
08
08
88
F8
ENDCHAR
STARTCHAR uni0630
ENCODING 1584
SWIDTH 337 0
DWIDTH 5 0
BBX 5 10 1 3
BITMAP
40
60
00
00
20
18
08
08
88
F8
ENDCHAR
STARTCHAR uni0631
ENCODING 1585
SWIDTH 488 0
DWIDTH 8 0
BBX 7 8 2 -1
BITMAP
04
06
02
02
02
04
0C
F0
ENDCHAR
STARTCHAR uni0632
ENCODING 1586
SWIDTH 488 0
DWIDTH 8 0
BBX 7 12 2 -1
BITMAP
08
0C
00
00
04
06
02
02
02
04
0C
F0
ENDCHAR
STARTCHAR uni0633
ENCODING 1587
SWIDTH 821 0
DWIDTH 13 0
BBX 13 8 0 -1
BITMAP
0108
41A8
4128
41F8
8080
8180
7F00
3E00
ENDCHAR
STARTCHAR uni0634
ENCODING 1588
SWIDTH 821 0
DWIDTH 13 0
BBX 13 13 0 -1
BITMAP
0040
0020
0070
0040
0000
0108
41A8
4128
41F8
8080
8180
7F00
3E00
ENDCHAR
STARTCHAR uni0635
ENCODING 1589
SWIDTH 1098 0
DWIDTH 18 0
BBX 18 8 0 -1
BITMAP
010200
418780
411080
40FFC0
808000
810000
7F0000
7E0000
ENDCHAR
STARTCHAR uni0636
ENCODING 1590
SWIDTH 1098 0
DWIDTH 18 0
BBX 18 11 0 -1
BITMAP
001000
001000
000000
010200
418780
411080
40FFC0
808000
810000
7F0000
7E0000
ENDCHAR
STARTCHAR uni0637
ENCODING 1591
SWIDTH 581 0
DWIDTH 9 0
BBX 10 10 -1 3
BITMAP
1000
1800
1000
0800
0800
0800
0880
0AC0
0840
FFC0
ENDCHAR
STARTCHAR uni0638
ENCODING 1592
SWIDTH 581 0
DWIDTH 9 0
BBX 10 10 -1 3
BITMAP
1000
1800
1100
0B00
0800
0800
0880
0AC0
0840
FFC0
ENDCHAR
STARTCHAR uni0639
ENCODING 1593
SWIDTH 543 0
DWIDTH 9 0
BBX 8 12 0 -3
BITMAP
10
40
81
C2
70
20
60
80
80
40
70
3E
ENDCHAR
STARTCHAR uni063A
ENCODING 1594
SWIDTH 543 0
DWIDTH 9 0
BBX 8 15 0 -3
BITMAP
30
10
00
10
40
81
C2
70
20
60
80
80
40
70
3E
ENDCHAR
STARTCHAR uni063B
ENCODING 1595
SWIDTH 812 0
DWIDTH 13 0
BBX 14 11 0 3
BITMAP
0040
01C0
0118
0020
0080
0180
00C0
4060
8010
4008
7FFC
ENDCHAR
STARTCHAR uni063C
ENCODING 1596
SWIDTH 812 0
DWIDTH 13 0
BBX 14 14 0 -2
BITMAP
0018
0020
0080
0180
00C0
4060
8010
4008
7FFC
0000
0080
02C0
0180
0180
ENDCHAR
STARTCHAR uni063D
ENCODING 1597
SWIDTH 638 0
DWIDTH 10 0
BBX 10 10 0 0
BITMAP
0800
1400
0040
01C0
4200
4200
4780
8080
4380
7F00
ENDCHAR
STARTCHAR uni063E
ENCODING 1598
SWIDTH 638 0
DWIDTH 10 0
BBX 10 10 0 0
BITMAP
0400
1600
1040
01C0
4200
4200
4780
8080
4380
7F00
ENDCHAR
STARTCHAR uni063F
ENCODING 1599
SWIDTH 638 0
DWIDTH 10 0
BBX 10 11 0 0
BITMAP
0800
0C00
1600
1040
01C0
4200
4200
4780
8080
4380
7F00
ENDCHAR
STARTCHAR uni0640
ENCODING 1600
SWIDTH 207 0
DWIDTH 3 0
BBX 4 1 -1 3
BITMAP
F0
ENDCHAR
STARTCHAR uni0641
ENCODING 1601
SWIDTH 788 0
DWIDTH 13 0
BBX 13 8 0 3
BITMAP
0060
0000
0000
4010
4030
8028
C038
7FF8
ENDCHAR
STARTCHAR uni0642
ENCODING 1602
SWIDTH 581 0
DWIDTH 9 0
BBX 9 12 1 -1
BITMAP
0700
0C00
0000
0100
0380
4280
4780
4080
8080
8180
7F80
3F00
ENDCHAR
STARTCHAR uni0643
ENCODING 1603
SWIDTH 601 0
DWIDTH 10 0
BBX 10 10 0 3
BITMAP
0100
00C0
02C0
0480
0480
0A80
4280
8040
4040
7FC0
ENDCHAR
STARTCHAR uni0644
ENCODING 1604
SWIDTH 506 0
DWIDTH 8 0
BBX 8 12 1 1
BITMAP
02
03
01
02
01
01
41
41
81
81
41
7E
ENDCHAR
STARTCHAR uni0645
ENCODING 1605
SWIDTH 337 0
DWIDTH 5 0
BBX 5 9 0 -3
BITMAP
30
38
38
60
80
80
40
40
40
ENDCHAR
STARTCHAR uni0646
ENCODING 1606
SWIDTH 525 0
DWIDTH 8 0
BBX 9 10 1 -1
BITMAP
0C00
0000
0100
4180
4100
4100
8080
8180
7F00
7E00
ENDCHAR
STARTCHAR uni0647
ENCODING 1607
SWIDTH 282 0
DWIDTH 5 0
BBX 3 4 1 3
BITMAP
80
E0
E0
E0
ENDCHAR
STARTCHAR uni0648
ENCODING 1608
SWIDTH 432 0
DWIDTH 7 0
BBX 5 8 2 -1
BITMAP
10
18
28
38
08
18
30
E0
ENDCHAR
STARTCHAR uni0649
ENCODING 1609
SWIDTH 638 0
DWIDTH 10 0
BBX 10 8 0 0
BITMAP
0040
01C0
4200
4200
4780
8080
4380
7F00
ENDCHAR
STARTCHAR uni064A
ENCODING 1610
SWIDTH 638 0
DWIDTH 10 0
BBX 10 11 0 -3
BITMAP
0040
01C0
4200
4200
4780
8080
4380
7F00
0400
0C00
0800
ENDCHAR
STARTCHAR uni064B
ENCODING 1611
SWIDTH 0 0
DWIDTH 0 0
BBX 3 3 2 10
BITMAP
20
E0
C0
ENDCHAR
STARTCHAR uni064C
ENCODING 1612
SWIDTH 0 0
DWIDTH 0 0
BBX 3 3 2 10
BITMAP
60
C0
C0
ENDCHAR
STARTCHAR uni064D
ENCODING 1613
SWIDTH 0 0
DWIDTH 0 0
BBX 3 3 2 -2
BITMAP
40
20
C0
ENDCHAR
STARTCHAR uni064E
ENCODING 1614
SWIDTH 0 0
DWIDTH 0 0
BBX 3 2 2 11
BITMAP
20
C0
ENDCHAR
STARTCHAR uni064F
ENCODING 1615
SWIDTH 0 0
DWIDTH 0 0
BBX 3 3 2 10
BITMAP
40
60
80
ENDCHAR
STARTCHAR uni0650
ENCODING 1616
SWIDTH 0 0
DWIDTH 0 0
BBX 3 2 2 0
BITMAP
20
C0
ENDCHAR
STARTCHAR uni0651
ENCODING 1617
SWIDTH 0 0
DWIDTH 0 0
BBX 4 3 1 10
BITMAP
10
B0
40
ENDCHAR
STARTCHAR uni0652
ENCODING 1618
SWIDTH 0 0
DWIDTH 0 0
BBX 3 3 1 10
BITMAP
40
A0
60
ENDCHAR
STARTCHAR uni0653
ENCODING 1619
SWIDTH 0 0
DWIDTH 0 0
BBX 1 1 0 11
BITMAP
80
ENDCHAR
STARTCHAR uni0654
ENCODING 1620
SWIDTH 0 0
DWIDTH 0 0
BBX 1 2 2 12
BITMAP
80
80
ENDCHAR
STARTCHAR uni0655
ENCODING 1621
SWIDTH 0 0
DWIDTH 0 0
BBX 1 3 2 -1
BITMAP
80
80
80
ENDCHAR
STARTCHAR uni0656
ENCODING 1622
SWIDTH 0 0
DWIDTH 0 0
BBX 2 5 0 -3
BITMAP
80
80
80
40
40
ENDCHAR
STARTCHAR uni0657
ENCODING 1623
SWIDTH 0 0
DWIDTH 0 0
BBX 4 3 -1 10
BITMAP
B0
C0
40
ENDCHAR
STARTCHAR uni0658
ENCODING 1624
SWIDTH 0 0
DWIDTH 0 0
BBX 2 2 -1 11
BITMAP
40
C0
ENDCHAR
STARTCHAR uni0659
ENCODING 1625
SWIDTH 0 0
DWIDTH 0 0
BBX 1 1 2 10
BITMAP
00
ENDCHAR
STARTCHAR uni065A
ENCODING 1626
SWIDTH 0 0
DWIDTH 0 0
BBX 2 2 0 10
BITMAP
C0
80
ENDCHAR
STARTCHAR uni065B
ENCODING 1627
SWIDTH 0 0
DWIDTH 0 0
BBX 2 2 0 10
BITMAP
80
C0
ENDCHAR
STARTCHAR uni065C
ENCODING 1628
SWIDTH 0 0
DWIDTH 0 0
BBX 2 2 0 0
BITMAP
C0
C0
ENDCHAR
STARTCHAR uni065D
ENCODING 1629
SWIDTH 0 0
DWIDTH 0 0
BBX 4 3 -1 10
BITMAP
C0
C0
40
ENDCHAR
STARTCHAR uni065E
ENCODING 1630
SWIDTH 0 0
DWIDTH 0 0
BBX 4 3 -1 10
BITMAP
40
70
A0
ENDCHAR
STARTCHAR uni065F
ENCODING 1631
SWIDTH 0 0
DWIDTH 0 0
BBX 3 3 0 -1
BITMAP
20
40
E0
ENDCHAR
STARTCHAR uni0660
ENCODING 1632
SWIDTH 525 0
DWIDTH 8 0
BBX 3 4 3 4
BITMAP
40
C0
E0
20
ENDCHAR
STARTCHAR uni0661
ENCODING 1633
SWIDTH 525 0
DWIDTH 8 0
BBX 4 9 2 3
BITMAP
40
C0
60
60
20
20
10
10
10
ENDCHAR
STARTCHAR uni0662
ENCODING 1634
SWIDTH 525 0
DWIDTH 8 0
BBX 6 9 1 3
BITMAP
84
48
F8
60
30
10
10
10
10
ENDCHAR
STARTCHAR uni0663
ENCODING 1635
SWIDTH 525 0
DWIDTH 8 0
BBX 6 9 2 3
BITMAP
94
9C
FC
40
40
40
20
20
20
ENDCHAR
STARTCHAR uni0664
ENCODING 1636
SWIDTH 525 0
DWIDTH 8 0
BBX 4 9 2 3
BITMAP
10
20
40
40
70
20
40
60
F0
ENDCHAR
STARTCHAR uni0665
ENCODING 1637
SWIDTH 525 0
DWIDTH 8 0
BBX 6 6 1 4
BITMAP
10
38
44
84
F8
78
ENDCHAR
STARTCHAR uni0666
ENCODING 1638
SWIDTH 525 0
DWIDTH 8 0
BBX 6 9 1 3
BITMAP
80
78
F0
08
08
08
18
0C
04
ENDCHAR
STARTCHAR uni0667
ENCODING 1639
SWIDTH 525 0
DWIDTH 8 0
BBX 7 9 1 3
BITMAP
82
42
C2
64
28
18
18
10
10
ENDCHAR
STARTCHAR uni0668
ENCODING 1640
SWIDTH 525 0
DWIDTH 8 0
BBX 7 9 1 3
BITMAP
10
10
10
30
38
28
66
44
82
ENDCHAR
STARTCHAR uni0669
ENCODING 1641
SWIDTH 525 0
DWIDTH 8 0
BBX 5 9 2 3
BITMAP
10
30
90
F0
70
08
08
08
18
ENDCHAR
STARTCHAR uni066A
ENCODING 1642
SWIDTH 525 0
DWIDTH 8 0
BBX 6 11 2 2
BITMAP
84
C8
08
10
10
20
20
40
40
98
98
ENDCHAR
STARTCHAR uni066B
ENCODING 1643
SWIDTH 318 0
DWIDTH 5 0
BBX 2 4 2 1
BITMAP
80
40
80
80
ENDCHAR
STARTCHAR uni066C
ENCODING 1644
SWIDTH 318 0
DWIDTH 5 0
BBX 2 5 2 1
BITMAP
80
C0
C0
40
40
ENDCHAR
STARTCHAR uni066D
ENCODING 1645
SWIDTH 525 0
DWIDTH 8 0
BBX 5 5 2 7
BITMAP
B0
B8
F8
60
20
ENDCHAR
STARTCHAR uni066E
ENCODING 1646
SWIDTH 713 0
DWIDTH 11 0
BBX 12 5 0 3
BITMAP
4020
4020
8020
C010
7FE0
ENDCHAR
STARTCHAR uni066F
ENCODING 1647
SWIDTH 581 0
DWIDTH 9 0
BBX 9 9 1 -1
BITMAP
0100
0380
4280
4780
4080
8080
8180
7F80
3F00
ENDCHAR
STARTCHAR uni0670
ENCODING 1648
SWIDTH 0 0
DWIDTH 0 0
BBX 2 4 0 9
BITMAP
80
80
40
40
ENDCHAR
STARTCHAR uni0671
ENCODING 1649
SWIDTH 207 0
DWIDTH 3 0
BBX 4 12 0 3
BITMAP
10
30
80
20
20
20
20
20
20
20
20
20
ENDCHAR
STARTCHAR uni0672
ENCODING 1650
SWIDTH 207 0
DWIDTH 3 0
BBX 3 12 0 3
BITMAP
20
40
C0
20
20
20
20
20
20
20
20
20
ENDCHAR
STARTCHAR uni0673
ENCODING 1651
SWIDTH 207 0
DWIDTH 3 0
BBX 2 13 1 -1
BITMAP
80
80
40
40
40
40
40
40
40
00
00
80
C0
ENDCHAR
STARTCHAR uni0654.dup6
ENCODING 1652
SWIDTH 0 0
DWIDTH 0 0
BBX 1 2 2 12
BITMAP
80
80
ENDCHAR
STARTCHAR uni0675
ENCODING 1653
SWIDTH 207 0
DWIDTH 3 0
BBX 4 9 1 3
BITMAP
70
B0
40
40
40
40
40
40
40
ENDCHAR
STARTCHAR uni0676
ENCODING 1654
SWIDTH 432 0
DWIDTH 7 0
BBX 6 11 2 -1
BITMAP
04
0C
00
10
18
28
38
08
18
30
E0
ENDCHAR
STARTCHAR uni0677
ENCODING 1655
SWIDTH 432 0
DWIDTH 7 0
BBX 6 11 2 -1
BITMAP
64
2C
40
10
18
28
38
08
18
30
E0
ENDCHAR
STARTCHAR uni0678
ENCODING 1656
SWIDTH 638 0
DWIDTH 10 0
BBX 10 11 0 0
BITMAP
0040
0040
0000
0040
01C0
4200
4200
4780
8080
4380
7F00
ENDCHAR
STARTCHAR uni0679
ENCODING 1657
SWIDTH 713 0
DWIDTH 11 0
BBX 12 11 0 3
BITMAP
0800
0400
0400
0500
0500
0000
4020
4020
8020
C010
7FE0
ENDCHAR
STARTCHAR uni067A
ENCODING 1658
SWIDTH 713 0
DWIDTH 11 0
BBX 12 9 0 3
BITMAP
0600
0400
0600
0000
4020
4020
8020
C010
7FE0
ENDCHAR
STARTCHAR uni067B
ENCODING 1659
SWIDTH 713 0
DWIDTH 11 0
BBX 12 10 0 -2
BITMAP
4020
4020
8020
C010
7FE0
0000
0400
0600
0200
0600
ENDCHAR
STARTCHAR uni067C
ENCODING 1660
SWIDTH 713 0
DWIDTH 11 0
BBX 12 9 0 1
BITMAP
0B00
0400
4020
4020
8020
C010
7FE0
0600
0600
ENDCHAR
STARTCHAR uni067D
ENCODING 1661
SWIDTH 713 0
DWIDTH 11 0
BBX 12 9 0 3
BITMAP
0B00
0800
0300
0000
4020
4020
8020
C010
7FE0
ENDCHAR
STARTCHAR uni067E
ENCODING 1662
SWIDTH 713 0
DWIDTH 11 0
BBX 12 10 0 -2
BITMAP
4020
4020
8020
C010
7FE0
0000
0200
0700
0600
0300
ENDCHAR
STARTCHAR uni067F
ENCODING 1663
SWIDTH 713 0
DWIDTH 11 0
BBX 12 9 0 3
BITMAP
0B00
0A00
0700
0400
4020
4020
8020
C010
7FE0
ENDCHAR
STARTCHAR uni0680
ENCODING 1664
SWIDTH 713 0
DWIDTH 11 0
BBX 12 11 0 -3
BITMAP
4020
4020
8020
C010
7FE0
0000
0200
0700
0600
0700
0400
ENDCHAR
STARTCHAR uni0681
ENCODING 1665
SWIDTH 562 0
DWIDTH 9 0
BBX 8 14 0 -3
BITMAP
08
08
00
00
3F
0F
38
40
40
80
80
C0
20
1E
ENDCHAR
STARTCHAR uni0682
ENCODING 1666
SWIDTH 562 0
DWIDTH 9 0
BBX 8 15 0 -3
BITMAP
18
08
18
00
00
3F
0F
38
40
40
80
80
C0
20
1E
ENDCHAR
STARTCHAR uni0683
ENCODING 1667
SWIDTH 562 0
DWIDTH 9 0
BBX 8 10 0 -3
BITMAP
3F
0F
38
40
46
9A
80
C0
20
1E
ENDCHAR
STARTCHAR uni0684
ENCODING 1668
SWIDTH 562 0
DWIDTH 9 0
BBX 8 10 0 -3
BITMAP
3F
0F
38
48
4C
88
84
C0
20
1E
ENDCHAR
STARTCHAR uni0685
ENCODING 1669
SWIDTH 562 0
DWIDTH 9 0
BBX 8 15 0 -3
BITMAP
18
06
1C
00
00
3F
0F
38
40
40
80
80
C0
20
1E
ENDCHAR
STARTCHAR uni0686
ENCODING 1670
SWIDTH 562 0
DWIDTH 9 0
BBX 8 10 0 -3
BITMAP
3F
0F
38
44
5C
8C
84
C0
20
1E
ENDCHAR
STARTCHAR uni0687
ENCODING 1671
SWIDTH 562 0
DWIDTH 9 0
BBX 8 10 0 -3
BITMAP
3F
0F
38
56
5A
8E
9A
C0
20
1E
ENDCHAR
STARTCHAR uni0688
ENCODING 1672
SWIDTH 337 0
DWIDTH 5 0
BBX 5 12 1 3
BITMAP
80
40
40
50
50
00
20
30
10
08
88
F8
ENDCHAR
STARTCHAR uni0689
ENCODING 1673
SWIDTH 337 0
DWIDTH 5 0
BBX 5 8 1 1
BITMAP
20
18
08
08
88
F8
30
30
ENDCHAR
STARTCHAR uni068A
ENCODING 1674
SWIDTH 337 0
DWIDTH 5 0
BBX 5 9 1 0
BITMAP
20
18
08
08
88
F8
00
20
30
ENDCHAR
STARTCHAR uni068B
ENCODING 1675
SWIDTH 337 0
DWIDTH 5 0
BBX 5 15 1 0
BITMAP
80
40
40
50
50
00
20
30
10
08
88
F8
00
20
60
ENDCHAR
STARTCHAR uni068C
ENCODING 1676
SWIDTH 337 0
DWIDTH 5 0
BBX 5 9 1 3
BITMAP
70
C0
00
20
18
08
08
88
F8
ENDCHAR
STARTCHAR uni068D
ENCODING 1677
SWIDTH 337 0
DWIDTH 5 0
BBX 5 10 1 -1
BITMAP
20
18
08
08
88
F8
00
10
58
40
ENDCHAR
STARTCHAR uni068E
ENCODING 1678
SWIDTH 337 0
DWIDTH 5 0
BBX 5 11 1 3
BITMAP
40
30
70
40
00
20
18
08
08
88
F8
ENDCHAR
STARTCHAR uni068F
ENCODING 1679
SWIDTH 337 0
DWIDTH 5 0
BBX 6 11 0 3
BITMAP
10
D0
20
10
00
10
18
08
08
44
7C
ENDCHAR
STARTCHAR uni0690
ENCODING 1680
SWIDTH 337 0
DWIDTH 5 0
BBX 6 11 1 3
BITMAP
10
D0
18
70
00
20
18
08
08
84
F8
ENDCHAR
STARTCHAR uni0691
ENCODING 1681
SWIDTH 488 0
DWIDTH 8 0
BBX 7 15 2 -1
BITMAP
20
10
10
14
12
00
00
04
06
02
02
02
04
0C
F0
ENDCHAR
STARTCHAR uni0692
ENCODING 1682
SWIDTH 488 0
DWIDTH 8 0
BBX 7 12 2 -1
BITMAP
14
08
00
00
04
06
02
02
02
04
0C
F0
ENDCHAR
STARTCHAR uni0693
ENCODING 1683
SWIDTH 488 0
DWIDTH 8 0
BBX 7 9 2 -2
BITMAP
04
06
02
02
02
04
0E
FA
06
ENDCHAR
STARTCHAR uni0694
ENCODING 1684
SWIDTH 488 0
DWIDTH 8 0
BBX 7 9 2 -2
BITMAP
04
06
02
02
02
04
0C
F2
02
ENDCHAR
STARTCHAR uni0695
ENCODING 1685
SWIDTH 488 0
DWIDTH 8 0
BBX 7 10 2 -3
BITMAP
04
06
02
02
02
04
0C
F0
0C
04
ENDCHAR
STARTCHAR uni0696
ENCODING 1686
SWIDTH 488 0
DWIDTH 8 0
BBX 7 9 2 -2
BITMAP
04
06
02
22
22
04
0C
F2
02
ENDCHAR
ENDFONT
